<svg width="40" height="40" viewBox="0 0 40 40" fill="none" xmlns="http://www.w3.org/2000/svg">
<g clip-path="url(#clip0_55_44203)">
<path d="M13.5287 39.8047C13.6538 39.9296 13.8233 39.9997 14 39.9997C14.1768 39.9997 14.3463 39.9296 14.4714 39.8047L17.8047 36.4714L16.862 35.5287L14 38.3905L1.60952 26.0002L9.13809 18.4716L8.19544 17.5289L0.195539 25.5288C0.0706414 25.6539 0.000488281 25.8234 0.000488281 26.0002C0.000488281 26.1769 0.0706414 26.3464 0.195539 26.4715L13.5287 39.8047ZM39.9958 13.9271L38.6625 1.92722C38.6458 1.77662 38.5783 1.63618 38.4712 1.52903C38.364 1.42189 38.2236 1.35442 38.073 1.33773L26.0731 0.00441446C25.9739 -0.00600661 25.8735 0.00575976 25.7793 0.0388632C25.6851 0.0719666 25.5995 0.12558 25.5286 0.195829L20.8619 4.86244L21.8046 5.80509L26.2446 1.36506L37.3998 2.60363L38.6384 13.7555L36.0226 16.3717L34.7556 7.8509C35.6651 7.48957 36.1821 6.526 35.9799 5.56868C35.7781 4.61136 34.9158 3.93887 33.938 3.97561C32.9605 4.0127 32.1515 4.74836 32.0223 5.71843C31.8931 6.68816 32.4812 7.61007 33.4151 7.90173L34.4464 14.8349L25.1379 5.5291C25.076 5.46718 25.0025 5.41807 24.9217 5.38456C24.8408 5.35105 24.7541 5.3338 24.6666 5.3338C24.579 5.3338 24.4923 5.35105 24.4115 5.38456C24.3306 5.41807 24.2571 5.46718 24.1952 5.5291L20.8619 8.86239L21.8046 9.80504L24.6666 6.94308L33.0571 15.3336L31.5285 16.8623L32.4711 17.8049L34.4711 15.805C34.5088 15.7621 34.5407 15.7143 34.5659 15.6631L34.8459 17.5449L33.5284 18.8623L34.4711 19.8049L35.0896 19.1861L35.5131 22.0276C35.5625 22.4302 35.7197 22.8121 35.9683 23.1327C36.2168 23.4534 36.5473 23.7009 36.9249 23.8492C37.3025 23.9975 37.7132 24.041 38.1135 23.9752C38.5138 23.9094 38.889 23.7366 39.1992 23.4752C39.5095 23.2138 39.7434 22.8735 39.8762 22.4901C40.009 22.1068 40.0358 21.6947 39.9538 21.2974L38.727 15.5488L39.8045 14.4717C39.8751 14.401 39.929 14.3154 39.9621 14.2211C39.9952 14.1269 40.0067 14.0264 39.9958 13.9271ZM33.9998 5.33376C34.1766 5.33376 34.3462 5.404 34.4712 5.52902C34.5962 5.65405 34.6664 5.82361 34.6664 6.00042C34.6664 6.17723 34.5962 6.3468 34.4712 6.47182C34.3462 6.59684 34.1766 6.66708 33.9998 6.66708C33.823 6.66708 33.6534 6.59684 33.5284 6.47182C33.4034 6.3468 33.3331 6.17723 33.3331 6.00042C33.3331 5.82361 33.4034 5.65405 33.5284 5.52902C33.6534 5.404 33.823 5.33376 33.9998 5.33376ZM38.6485 21.5682C38.6798 21.7305 38.6669 21.8983 38.6109 22.0538C38.5549 22.2094 38.4581 22.3469 38.3305 22.4521C38.0707 22.6662 37.7142 22.7209 37.4022 22.5945C37.0901 22.4682 36.8718 22.1816 36.8337 21.8469L36.2663 18.0129L37.6072 16.6721L38.6485 21.5682Z" fill="#D81320"/>
<path d="M4.86279 25.9288L9.19574 21.5959L10.1384 22.5386L5.80545 26.8715L4.86279 25.9288ZM6.92818 27.9952L11.2611 23.6622L12.2041 24.605L7.87084 28.9379L6.92818 27.9952ZM8.99516 30.0616L11.5284 27.5284L12.4714 28.4711L9.9379 31.0043L8.99516 30.0616ZM11.0619 32.1286L12.8624 30.3285L13.805 31.2712L12.005 33.0716L11.0619 32.1286ZM13.1286 34.1954L14.4619 32.8624L15.4046 33.805L14.0716 35.138L13.1286 34.1954ZM23.9999 36.6667C26.2711 36.6657 28.4819 35.9352 30.3065 34.5827L35.1143 39.3906C35.9272 40.203 37.2446 40.203 38.057 39.3906C38.8695 38.5781 38.8695 37.2604 38.057 36.4479L33.1378 31.5287L33.0525 31.614C35.6049 27.4854 35.0443 22.1538 31.6899 18.6461C28.3351 15.1379 23.0337 14.3404 18.7955 16.706C14.557 19.0715 12.4529 24.0024 13.6778 28.6993C14.9023 33.3959 19.146 36.6715 23.9999 36.6667ZM37.1143 37.3906C37.4063 37.6826 37.4063 38.1559 37.1143 38.4479C36.8223 38.7399 36.349 38.7399 36.057 38.4479L31.3331 33.7246C31.6959 33.3813 32.0343 33.0132 32.3458 32.6228L37.1143 37.3906ZM23.9999 16.6669C29.1544 16.6669 33.3331 20.8455 33.3331 26.0001C33.3331 31.1547 29.1544 35.3333 23.9999 35.3333C18.8454 35.3333 14.6667 31.1547 14.6667 26.0001C14.6722 20.8479 18.8476 16.6724 23.9999 16.6669Z" fill="#D81320"/>
<path d="M23.9999 34C28.4182 34 31.9998 30.4184 31.9998 26.0001C31.9998 21.5819 28.4182 18.0002 23.9999 18.0002C19.5816 18.0002 16 21.5819 16 26.0001C16.0049 30.4164 19.5836 33.9951 23.9999 34ZM23.9999 19.3336C27.6819 19.3336 30.6665 22.3182 30.6665 26.0001C30.6665 29.6821 27.6819 32.6667 23.9999 32.6667C20.3179 32.6667 17.3333 29.682 17.3333 26.0001C17.3372 22.3199 20.3196 19.3375 23.9999 19.3336Z" fill="#D81320"/>
<path d="M24.6664 28.6669H23.333C23.1562 28.6669 22.9867 28.5966 22.8616 28.4716C22.7366 28.3466 22.6664 28.177 22.6664 28.0002H21.3331C21.3331 29.1047 22.2286 30.0002 23.333 30.0002V31.3335H24.6664V30.0002C25.7708 30.0002 26.6663 29.1047 26.6663 28.0002V27.3336C26.6663 26.2291 25.7708 25.3336 24.6664 25.3336H23.333C23.1562 25.3336 22.9867 25.2634 22.8616 25.1383C22.7366 25.0133 22.6664 24.8437 22.6664 24.6669V24.0003C22.6664 23.8235 22.7366 23.6539 22.8616 23.5289C22.9867 23.4039 23.1562 23.3336 23.333 23.3336H24.6664C24.8432 23.3336 25.0127 23.4039 25.1378 23.5289C25.2628 23.6539 25.333 23.8235 25.333 24.0003H26.6663C26.6663 22.8958 25.7708 22.0003 24.6664 22.0003V20.667H23.333V22.0003C22.2286 22.0003 21.3331 22.8958 21.3331 24.0003V24.6669C21.3331 25.7714 22.2286 26.6669 23.333 26.6669H24.6664C24.8432 26.6669 25.0127 26.7371 25.1378 26.8622C25.2628 26.9872 25.333 27.1568 25.333 27.3336V28.0002C25.333 28.177 25.2628 28.3466 25.1378 28.4716C25.0127 28.5966 24.8432 28.6669 24.6664 28.6669ZM3.33329 16.0004H7.78665L12.2791 19.209C12.392 19.2901 12.5275 19.3337 12.6665 19.3337C12.7949 19.3333 12.9205 19.2963 13.0285 19.2269C13.1412 19.1541 13.2294 19.049 13.2813 18.9253C13.3333 18.8016 13.3467 18.6651 13.3198 18.5336L12.8133 16.0003H16.6665C18.5066 15.9981 19.9975 14.5069 19.9998 12.667V3.33378C19.9975 1.49372 18.5066 0.00282159 16.6665 0.000488281H3.33329C1.49315 0.00290492 0.00224997 1.4938 0 3.33386V12.6671C0.00224997 14.507 1.49315 15.9982 3.33329 16.0004ZM1.33332 3.33386C1.33332 2.22938 2.22881 1.33389 3.33329 1.33389H16.6665C17.7709 1.33389 18.6664 2.22938 18.6664 3.33386V12.6671C18.6664 13.7716 17.7709 14.6671 16.6665 14.6671H11.9999C11.901 14.667 11.8033 14.689 11.714 14.7313C11.6246 14.7736 11.5458 14.8353 11.4832 14.9118C11.4207 14.9884 11.376 15.0779 11.3524 15.1739C11.3288 15.2699 11.3268 15.3699 11.3465 15.4668L11.6799 17.1475L8.38531 14.7943C8.27334 14.7126 8.13853 14.6681 7.9999 14.6671H3.33329C2.22881 14.6671 1.33332 13.7716 1.33332 12.6671V3.33386Z" fill="#D81320"/>
<path d="M3.33316 13.3337H17.333V12.0004H3.99982V10.2224L5.33314 8.44509L6.79995 10.4005C6.86607 10.4833 6.94989 10.5502 7.04525 10.5963C7.14061 10.6424 7.2451 10.6666 7.35103 10.6671C7.45773 10.6642 7.56217 10.6357 7.65558 10.584C7.74898 10.5323 7.82861 10.459 7.88777 10.3702L10.059 7.11303L12.8204 10.4278C12.8833 10.5026 12.9617 10.5627 13.0503 10.6041C13.1388 10.6454 13.2353 10.6668 13.333 10.667C13.3539 10.6684 13.3747 10.6684 13.3959 10.667C13.5036 10.6568 13.6073 10.6205 13.6978 10.5612C13.7884 10.502 13.8632 10.4215 13.9157 10.3269L17.249 4.32698L16.0837 3.68049L13.2224 8.82984L10.5124 5.5763C10.4469 5.49507 10.3629 5.43069 10.2674 5.38851C10.1719 5.34633 10.0678 5.32757 9.96358 5.3338C9.86012 5.33945 9.75939 5.36912 9.66939 5.42047C9.57939 5.47182 9.50259 5.54343 9.44509 5.62963L7.3012 8.84709L5.8663 6.93378C5.73513 6.77411 5.53955 6.68178 5.33314 6.68178C5.12672 6.68178 4.93114 6.77428 4.79998 6.9337L3.99982 8.00035V3.33374H2.6665V12.667C2.6665 12.8438 2.73674 13.0133 2.86176 13.1384C2.98679 13.2634 3.15635 13.3337 3.33316 13.3337Z" fill="#D81320"/>
</g>
<defs>
<clipPath id="clip0_55_44203">
<rect width="40" height="40" fill="white"/>
</clipPath>
</defs>
</svg>
