<svg width="40" height="40" viewBox="0 0 40 40" fill="none" xmlns="http://www.w3.org/2000/svg">
<g clip-path="url(#clip0_55_44185)">
<path d="M39.6284 12.6359L20.4576 0.135939C20.3221 0.0475518 20.1639 0.000488281 20.0021 0.000488281C19.8404 0.000488281 19.6822 0.0475518 19.5467 0.135939L0.380058 12.6359C0.201707 12.7596 0.078622 12.9479 0.0369762 13.1609C-0.00466969 13.3739 0.0384094 13.5947 0.157052 13.7764C0.275696 13.9581 0.460543 14.0864 0.672285 14.1339C0.884028 14.1814 1.10596 14.1445 1.29089 14.0309L3.33339 12.6976V37.5001C3.33339 38.1631 3.59678 38.799 4.06562 39.2679C4.53447 39.7367 5.17035 40.0001 5.83339 40.0001H34.1726C34.8356 40.0001 35.4715 39.7367 35.9403 39.2679C36.4092 38.799 36.6726 38.1631 36.6726 37.5001V12.6976C36.9959 12.8518 38.8226 14.2509 39.1726 14.1668C39.3503 14.1633 39.5223 14.1034 39.6638 13.9957C39.8053 13.8881 39.9089 13.7382 39.9596 13.5678C40.0103 13.3975 40.0056 13.2154 39.9461 13.0478C39.8865 12.8803 39.7753 12.7361 39.6284 12.6359ZM29.1709 38.3334H27.5042V32.5001C27.5042 32.2791 27.4164 32.0671 27.2602 31.9109C27.1039 31.7546 26.8919 31.6668 26.6709 31.6668H24.1667V25.8334C24.1667 25.6124 24.0789 25.4005 23.9226 25.2442C23.7664 25.0879 23.5544 25.0001 23.3334 25.0001H16.6667C16.4457 25.0001 16.2337 25.0879 16.0775 25.2442C15.9212 25.4005 15.8334 25.6124 15.8334 25.8334V31.6668H13.3334C13.1124 31.6668 12.9004 31.7546 12.7441 31.9109C12.5879 32.0671 12.5001 32.2791 12.5001 32.5001V38.3334H10.8334V23.3334H29.1667L29.1709 38.3334ZM17.5001 31.6668V26.6668H22.5001V31.6668H17.5001ZM14.1667 33.3334H19.1667V38.3334H14.1667V33.3334ZM20.8334 38.3334V33.3334H25.8334V38.3334H20.8334ZM35.0001 37.5001C35.0001 37.7211 34.9123 37.9331 34.756 38.0894C34.5997 38.2456 34.3877 38.3334 34.1667 38.3334H30.8334V22.5001C30.8334 22.2791 30.7456 22.0671 30.5893 21.9108C30.433 21.7546 30.2211 21.6668 30.0001 21.6668H10.0001C9.77904 21.6668 9.56708 21.7546 9.4108 21.9108C9.25452 22.0671 9.16673 22.2791 9.16673 22.5001V38.3334H5.83339C5.61238 38.3334 5.40042 38.2456 5.24414 38.0894C5.08786 37.9331 5.00006 37.7211 5.00006 37.5001V11.6109L20.0001 1.82844L35.0001 11.6109V37.5001ZM26.6667 16.6668C26.6667 16.8878 26.5789 17.0997 26.4226 17.256C26.2664 17.4123 26.0544 17.5001 25.8334 17.5001H14.1667C13.9457 17.5001 13.7337 17.4123 13.5775 17.256C13.4212 17.0997 13.3334 16.8878 13.3334 16.6668C13.3334 16.4458 13.4212 16.2338 13.5775 16.0775C13.7337 15.9212 13.9457 15.8334 14.1667 15.8334H25.8334C25.9432 15.8329 26.052 15.854 26.1536 15.8957C26.2552 15.9373 26.3475 15.9986 26.4253 16.076C26.5032 16.1535 26.5649 16.2455 26.6071 16.3469C26.6492 16.4483 26.6709 16.557 26.6709 16.6668H26.6667ZM14.1667 11.6668H25.8334C26.0544 11.6668 26.2664 11.7546 26.4226 11.9109C26.5789 12.0671 26.6667 12.2791 26.6667 12.5001C26.6667 12.7211 26.5789 12.9331 26.4226 13.0894C26.2664 13.2456 26.0544 13.3334 25.8334 13.3334H14.1667C13.9457 13.3334 13.7337 13.2456 13.5775 13.0894C13.4212 12.9331 13.3334 12.7211 13.3334 12.5001C13.3334 12.2791 13.4212 12.0671 13.5775 11.9109C13.7337 11.7546 13.9457 11.6668 14.1667 11.6668Z" fill="#D81320"/>
</g>
<defs>
<clipPath id="clip0_55_44185">
<rect width="40" height="40" fill="white"/>
</clipPath>
</defs>
</svg>
