<svg width="12" height="12" viewBox="0 0 12 12" fill="none" xmlns="http://www.w3.org/2000/svg">
<path d="M5.9998 11.8334C5.83428 11.8343 5.67222 11.786 5.53429 11.6945C5.39636 11.603 5.2888 11.4725 5.22533 11.3196C5.16185 11.1667 5.14534 10.9984 5.1779 10.8361C5.21046 10.6738 5.29061 10.5249 5.40813 10.4084L9.8248 6.00002L5.40813 1.59169C5.27161 1.43227 5.20027 1.22721 5.20838 1.01748C5.21648 0.807748 5.30342 0.608799 5.45183 0.460386C5.60024 0.311974 5.79919 0.225031 6.00892 0.21693C6.21865 0.208829 6.42372 0.280168 6.58313 0.41669L11.5831 5.41669C11.7383 5.57282 11.8255 5.78403 11.8255 6.00419C11.8255 6.22434 11.7383 6.43555 11.5831 6.59169L6.58313 11.5917C6.42792 11.7456 6.21842 11.8324 5.9998 11.8334Z" fill="#D81320"/>
<path d="M0.999801 11.8333C0.83428 11.8343 0.672223 11.786 0.53429 11.6945C0.396357 11.603 0.288797 11.4725 0.225325 11.3196C0.161853 11.1667 0.145343 10.9984 0.177901 10.8361C0.210459 10.6738 0.29061 10.5249 0.408134 10.4083L4.8248 6.00001L0.408134 1.59168C0.251214 1.43476 0.163058 1.22193 0.163058 1.00001C0.163058 0.778094 0.251214 0.565265 0.408134 0.408345C0.565054 0.251426 0.777883 0.163269 0.999801 0.163269C1.22172 0.163269 1.43455 0.251426 1.59147 0.408345L6.59147 5.40835C6.74668 5.56448 6.83379 5.77569 6.83379 5.99585C6.83379 6.216 6.74668 6.42721 6.59147 6.58335L1.59147 11.5833C1.51429 11.6621 1.42225 11.7247 1.32069 11.7676C1.21913 11.8106 1.11006 11.8329 0.999801 11.8333Z" fill="#D81320"/>
</svg>
