<svg width="52" height="52" viewBox="0 0 52 52" fill="none" xmlns="http://www.w3.org/2000/svg">
<path d="M15.3596 12.6469V18.3734H23.6523V41.8896H29.4223V18.3734H37.7174V12.6469H15.3596Z" fill="#D81320"/>
<g opacity="0.3" filter="url(#filter0_f_101_2832)">
<path d="M29.4205 22.4569H23.6528V30.2691H29.4205V22.4569Z" fill="white"/>
</g>
<path d="M51.9259 28.0369C51.914 28.1785 51.9021 28.3176 51.8854 28.4592C51.4371 33.0824 49.873 37.2491 47.2216 40.8959C46.163 42.3532 44.9303 43.7299 43.5259 45.0187C38.5165 49.6443 32.4985 51.9925 25.634 51.9925C18.4048 51.9925 12.1507 49.4271 7.04347 44.3621C4.44218 41.8113 2.47273 38.9383 1.18519 35.8285L0.922922 35.1865H6.34725L6.476 35.4306C7.48457 37.3858 8.8484 39.2165 10.5317 40.8764C14.6947 44.9845 19.7781 47.0667 25.6364 47.0667C31.1442 47.0667 36.001 45.1945 40.0687 41.5037C40.2904 41.3036 40.5074 41.0985 40.7196 40.891C44.2174 37.4761 46.2775 33.2972 46.8497 28.4543H0.102715L0.0574128 28.0467C0.0502598 28.0003 -0.0665741 26.897 0.0550262 23.9752C0.0621791 23.8287 0.0693348 23.6798 0.0764878 23.5333C0.393602 18.2072 2.50611 13.3594 6.36155 9.08283C7.00771 8.36274 7.70631 7.65975 8.4526 6.97384C13.4597 2.34577 19.4801 0 26.3422 0C33.5714 0 39.8255 2.5679 44.9327 7.63046C47.534 10.1837 49.5034 13.0567 50.791 16.1665L51.0556 16.8085H45.6289L45.5025 16.5619C44.4916 14.6067 43.1278 12.776 41.4444 11.1186C37.2909 7.01045 32.2076 4.92587 26.3469 4.92587C21.5878 4.92587 17.3127 6.32454 13.6147 9.08771C13.0329 9.51976 12.4654 9.98599 11.9146 10.4864C8.02104 14.0136 5.74401 18.4024 5.13363 23.5382H51.8901L51.9235 23.9605C51.9307 24.0435 52.0904 26.0231 51.9259 28.0369Z" fill="#D81320"/>
<defs>
<filter id="filter0_f_101_2832" x="3.65283" y="2.45691" width="45.7676" height="47.8123" filterUnits="userSpaceOnUse" color-interpolation-filters="sRGB">
<feFlood flood-opacity="0" result="BackgroundImageFix"/>
<feBlend mode="normal" in="SourceGraphic" in2="BackgroundImageFix" result="shape"/>
<feGaussianBlur stdDeviation="10" result="effect1_foregroundBlur_101_2832"/>
</filter>
</defs>
</svg>
