<svg width="38" height="38" viewBox="0 0 38 38" fill="none" xmlns="http://www.w3.org/2000/svg">
<path d="M2.33336 18.9998C2.33291 15.87 3.21388 12.8033 4.8754 10.1509C6.53692 7.49858 8.91181 5.36774 11.7281 4.00244C14.5444 2.63714 17.6883 2.09256 20.7998 2.43107C23.9112 2.76959 26.8644 3.9775 29.3212 5.9165H26.786C26.5664 5.91862 26.3565 6.00736 26.202 6.1634C26.0474 6.31945 25.9607 6.53019 25.9607 6.74982C25.9607 6.96944 26.0474 7.18019 26.202 7.33623C26.3565 7.49228 26.5664 7.58101 26.786 7.58314H31.5C31.721 7.58314 31.933 7.49534 32.0893 7.33905C32.2456 7.18277 32.3334 6.9708 32.3334 6.74978V2.03564C32.3344 1.92553 32.3137 1.81629 32.2723 1.71426C32.2309 1.61222 32.1696 1.5194 32.0922 1.44115C32.0147 1.36291 31.9224 1.30081 31.8208 1.25842C31.7192 1.21603 31.6102 1.19421 31.5 1.19421C31.3899 1.19421 31.2809 1.21603 31.1793 1.25842C31.0776 1.30081 30.9854 1.36291 30.9079 1.44115C30.8304 1.5194 30.7692 1.61222 30.7278 1.71426C30.6864 1.81629 30.6657 1.92553 30.6667 2.03564V4.85751C27.033 1.85996 22.3849 0.376093 17.6865 0.713677C12.988 1.05126 8.59983 3.18439 5.43197 6.67064C2.26412 10.1569 0.559726 14.7287 0.672294 19.4379C0.784862 24.1471 2.70575 28.6323 6.03656 31.9632C6.11361 32.0421 6.20553 32.1048 6.30701 32.1479C6.40848 32.191 6.5175 32.2135 6.62773 32.2141C6.73797 32.2147 6.84723 32.1935 6.9492 32.1516C7.05116 32.1097 7.1438 32.048 7.22175 31.97C7.2997 31.8921 7.36141 31.7995 7.4033 31.6975C7.44519 31.5955 7.46644 31.4863 7.4658 31.376C7.46517 31.2658 7.44266 31.1568 7.3996 31.0553C7.35653 30.9538 7.29376 30.8619 7.21492 30.7849C5.66244 29.2408 4.43161 27.4042 3.59369 25.3813C2.75577 23.3584 2.3274 21.1894 2.33336 18.9998ZM11.7165 33.9961C11.2412 33.7648 10.7772 33.5111 10.3259 33.236C10.1372 33.1209 9.91057 33.0854 9.69576 33.1373C9.48095 33.1893 9.29558 33.3245 9.18043 33.5131C9.06528 33.7017 9.02978 33.9284 9.08174 34.1432C9.1337 34.358 9.26886 34.5434 9.4575 34.6585C9.9542 34.9615 10.465 35.2407 10.9883 35.4951C11.0867 35.5429 11.1936 35.5709 11.3028 35.5774C11.4121 35.5839 11.5215 35.5689 11.6249 35.5331C11.7283 35.4973 11.8237 35.4415 11.9055 35.3689C11.9874 35.2962 12.0541 35.2082 12.102 35.1098C12.1498 35.0114 12.1777 34.9045 12.1843 34.7952C12.1908 34.686 12.1757 34.5766 12.1399 34.4731C12.1042 34.3697 12.0484 34.2744 11.9757 34.1925C11.9031 34.1107 11.8151 34.0439 11.7166 33.9961H11.7165ZM34.0037 11.7317C34.0514 11.8302 34.118 11.9184 34.1998 11.9911C34.2815 12.0638 34.3768 12.1197 34.4802 12.1557C34.5836 12.1916 34.693 12.2068 34.8023 12.2004C34.9115 12.194 35.0185 12.1662 35.117 12.1185C35.2154 12.0707 35.3036 12.0041 35.3763 11.9223C35.449 11.8406 35.505 11.7453 35.5409 11.6419C35.5768 11.5385 35.592 11.4291 35.5856 11.3198C35.5792 11.2106 35.5514 11.1037 35.5037 11.0052C35.2501 10.4818 34.9717 9.97082 34.6695 9.47392C34.6126 9.38041 34.5379 9.29902 34.4496 9.23439C34.3612 9.16977 34.261 9.12318 34.1547 9.09728C33.9399 9.04498 33.7132 9.08013 33.5243 9.19501C33.3354 9.30989 33.2 9.49509 33.1477 9.70987C33.0954 9.92464 33.1305 10.1514 33.2454 10.3402C33.52 10.7919 33.773 11.2562 34.0037 11.7317ZM20.9771 35.5497C20.451 35.6122 19.9188 35.6494 19.3947 35.662C19.1777 35.6703 18.9725 35.763 18.8228 35.9204C18.6731 36.0777 18.5908 36.2873 18.5933 36.5044C18.5959 36.7215 18.683 36.9291 18.8363 37.0829C18.9896 37.2368 19.1969 37.3246 19.4141 37.3279C19.4205 37.3279 19.4275 37.3279 19.434 37.3275C20.0102 37.3141 20.5948 37.2728 21.1727 37.2046C21.392 37.1785 21.5919 37.0664 21.7286 36.8929C21.8653 36.7194 21.9276 36.4988 21.9017 36.2795C21.8758 36.0601 21.7639 35.86 21.5906 35.7231C21.4173 35.5863 21.1967 35.5238 20.9773 35.5494L20.9771 35.5497ZM16.2344 35.4366C15.7129 35.3494 15.196 35.2373 14.6853 35.1006C14.4717 35.0436 14.2442 35.0737 14.0529 35.1843C13.8615 35.295 13.7219 35.4771 13.6648 35.6907C13.6077 35.9042 13.6378 36.1318 13.7485 36.3231C13.8591 36.5145 14.0413 36.6541 14.2548 36.7112C14.8171 36.8612 15.3862 36.9844 15.9602 37.0802C16.0681 37.0983 16.1785 37.0948 16.2851 37.0702C16.3918 37.0455 16.4925 37 16.5815 36.9365C16.6706 36.8729 16.7462 36.7923 16.8042 36.6995C16.8621 36.6067 16.9012 36.5033 16.9192 36.3954C16.9372 36.2875 16.9338 36.177 16.9091 36.0704C16.8844 35.9638 16.839 35.8631 16.7754 35.774C16.7118 35.685 16.6313 35.6093 16.5385 35.5514C16.4457 35.4934 16.3423 35.4543 16.2344 35.4363V35.4366ZM36.5151 18.598C36.2942 18.5926 36.0801 18.6752 35.9201 18.8275C35.76 18.9799 35.667 19.1896 35.6614 19.4105C35.648 19.9394 35.6098 20.4675 35.547 20.9929C35.5209 21.2124 35.583 21.4332 35.7197 21.607C35.8563 21.7807 36.0563 21.8931 36.2758 21.9194C36.309 21.9231 36.3424 21.925 36.3759 21.9251C36.5795 21.9248 36.7761 21.8499 36.9283 21.7146C37.0806 21.5793 37.178 21.393 37.2023 21.1907C37.2709 20.6134 37.3127 20.0332 37.3273 19.452C37.33 19.3426 37.3112 19.2337 37.2719 19.1316C37.2326 19.0294 37.1736 18.936 37.0981 18.8567C37.0227 18.7774 36.9324 18.7137 36.8324 18.6693C36.7323 18.6249 36.6245 18.6007 36.5151 18.598ZM33.9573 28.1299C33.7744 28.0059 33.5498 27.9595 33.3328 28.0009C33.1157 28.0424 32.924 28.1682 32.7996 28.3508C32.5022 28.7883 32.1844 29.2116 31.847 29.6191C31.7756 29.7031 31.7215 29.8005 31.688 29.9056C31.6545 30.0108 31.6422 30.1215 31.6518 30.2314C31.6615 30.3413 31.6928 30.4482 31.7441 30.5459C31.7954 30.6435 31.8655 30.7301 31.9505 30.8004C32.0355 30.8708 32.1336 30.9236 32.2391 30.9557C32.3446 30.9878 32.4555 30.9987 32.5653 30.9876C32.675 30.9766 32.7815 30.9438 32.8785 30.8913C32.9755 30.8387 33.0611 30.7675 33.1304 30.6816C33.5015 30.2336 33.8511 29.7683 34.1781 29.2871C34.2396 29.1966 34.2827 29.0949 34.3049 28.9878C34.327 28.8807 34.3279 28.7702 34.3074 28.6627C34.2869 28.5553 34.2454 28.4529 34.1853 28.3615C34.1253 28.27 34.0478 28.1913 33.9573 28.1299ZM35.1055 14.7005C35.2414 15.2114 35.3528 15.7285 35.4396 16.2499C35.4719 16.4445 35.5721 16.6213 35.7225 16.7489C35.8728 16.8765 36.0635 16.9467 36.2607 16.947C36.3066 16.9469 36.3525 16.9431 36.3978 16.9356C36.5058 16.9177 36.6092 16.8787 36.7021 16.8208C36.795 16.7629 36.8756 16.6873 36.9392 16.5983C37.0029 16.5092 37.0484 16.4085 37.0732 16.3019C37.0979 16.1953 37.1014 16.0849 37.0834 15.9769C36.9882 15.4029 36.8657 14.8339 36.7163 14.2716C36.6594 14.058 36.52 13.8758 36.3287 13.765C36.1375 13.6542 35.9101 13.6239 35.6965 13.6808C35.483 13.7376 35.3007 13.877 35.1899 14.0683C35.0791 14.2595 35.0488 14.4869 35.1057 14.7005H35.1055ZM29.6051 31.8583C29.1976 32.1953 28.7744 32.5128 28.3368 32.8096C28.2462 32.871 28.1686 32.9497 28.1085 33.041C28.0483 33.1324 28.0067 33.2348 27.9861 33.3422C27.9654 33.4497 27.9662 33.5602 27.9882 33.6673C28.0103 33.7745 28.0533 33.8763 28.1146 33.9669C28.176 34.0574 28.2547 34.135 28.3461 34.1952C28.4375 34.2554 28.5398 34.297 28.6473 34.3176C28.7547 34.3382 28.8652 34.3375 28.9724 34.3154C29.0795 34.2934 29.1813 34.2504 29.2719 34.189C29.7532 33.8626 30.2188 33.5137 30.6671 33.1433C30.8375 33.0025 30.945 32.7997 30.9659 32.5796C30.9868 32.3596 30.9194 32.1402 30.7786 31.9698C30.6378 31.7994 30.435 31.6919 30.2149 31.671C29.9948 31.6501 29.7755 31.7175 29.6051 31.8583ZM35.9205 23.5477C35.71 23.4809 35.4815 23.5003 35.2853 23.6016C35.089 23.703 34.941 23.8781 34.8737 24.0885C34.7128 24.592 34.528 25.0875 34.3198 25.5733C34.2744 25.6742 34.2495 25.7832 34.2466 25.8938C34.2437 26.0045 34.2629 26.1146 34.3031 26.2177C34.3432 26.3209 34.4035 26.415 34.4805 26.4946C34.5574 26.5741 34.6494 26.6376 34.7511 26.6812C34.8529 26.7248 34.9622 26.7478 35.0729 26.7486C35.1836 26.7495 35.2934 26.7283 35.3958 26.6863C35.4982 26.6443 35.5912 26.5823 35.6693 26.504C35.7475 26.4256 35.8093 26.3325 35.8511 26.23C36.0807 25.6951 36.2843 25.1494 36.461 24.5947C36.4943 24.4905 36.5068 24.3807 36.4976 24.2717C36.4885 24.1626 36.458 24.0564 36.4078 23.9592C36.3576 23.862 36.2887 23.7756 36.2051 23.705C36.1215 23.6344 36.0248 23.581 35.9205 23.5477ZM25.5576 34.3265C25.0716 34.5344 24.576 34.7189 24.0724 34.8795C23.9682 34.9127 23.8715 34.9661 23.7879 35.0367C23.7043 35.1073 23.6354 35.1937 23.5852 35.2909C23.535 35.3882 23.5044 35.4943 23.4952 35.6034C23.486 35.7124 23.4984 35.8222 23.5316 35.9264C23.5649 36.0307 23.6183 36.1274 23.6889 36.211C23.7595 36.2946 23.8459 36.3634 23.9431 36.4136C24.0403 36.4639 24.1465 36.4944 24.2555 36.5036C24.3646 36.5128 24.4743 36.5004 24.5786 36.4672C25.1329 36.2906 25.6785 36.0876 26.2135 35.8589C26.4167 35.7719 26.577 35.6077 26.6592 35.4025C26.7414 35.1973 26.7386 34.9678 26.6516 34.7646C26.5646 34.5614 26.4004 34.4011 26.1952 34.3189C25.9899 34.2367 25.7605 34.2395 25.5573 34.3265H25.5576Z" fill="white"/>
<path d="M11.9525 17.2975C11.9525 15.9317 11.0544 14.8374 9.66452 14.5092C8.90095 14.3284 8.09862 14.4117 7.3885 14.7456C6.67838 15.0795 6.10241 15.6442 5.75459 16.3476C5.6572 16.5451 5.64195 16.7732 5.71218 16.9819C5.7824 17.1906 5.93239 17.3631 6.12937 17.4616C6.32635 17.5601 6.55431 17.5766 6.76344 17.5076C6.97256 17.4385 7.14586 17.2895 7.24545 17.0931C7.42337 16.7238 7.72266 16.4268 8.09327 16.2518C8.46388 16.0767 8.88335 16.0342 9.28155 16.1313C9.51717 16.1869 10.2858 16.4355 10.2858 17.2975C10.2858 18.1667 9.28194 18.837 8.21913 19.5469C7.02241 20.3456 5.66663 21.251 5.66663 22.75C5.66663 22.971 5.75443 23.183 5.91071 23.3393C6.067 23.4956 6.27896 23.5834 6.49999 23.5834H11.1191C11.2292 23.5844 11.3385 23.5637 11.4405 23.5223C11.5425 23.4809 11.6354 23.4197 11.7136 23.3422C11.7919 23.2647 11.854 23.1725 11.8963 23.0708C11.9387 22.9692 11.9606 22.8602 11.9606 22.7501C11.9606 22.6399 11.9387 22.5309 11.8963 22.4293C11.854 22.3276 11.7919 22.2354 11.7136 22.1579C11.6354 22.0804 11.5425 22.0192 11.4405 21.9778C11.3385 21.9364 11.2292 21.9157 11.1191 21.9167H7.81756C8.1667 21.586 8.66022 21.2563 9.14444 20.9328C10.4609 20.0539 11.9525 19.0578 11.9525 17.2975ZM19.8333 20.0417C19.8333 19.8206 19.7455 19.6087 19.5892 19.4524C19.4329 19.2962 19.221 19.2084 19 19.2084H18.3229V14.7813C18.3228 14.6087 18.2692 14.4404 18.1694 14.2995C18.0697 14.1587 17.9286 14.0524 17.7658 13.9951C17.603 13.9379 17.4264 13.9326 17.2604 13.98C17.0945 14.0275 16.9474 14.1252 16.8394 14.2599L12.6206 19.5205C12.5225 19.643 12.4609 19.7908 12.4431 19.9468C12.4253 20.1028 12.4518 20.2607 12.5198 20.4022C12.5877 20.5438 12.6943 20.6632 12.8272 20.7469C12.96 20.8305 13.1138 20.8749 13.2708 20.875H16.6562V23.2188C16.6552 23.3289 16.6759 23.4381 16.7173 23.5401C16.7587 23.6422 16.8199 23.735 16.8974 23.8132C16.9749 23.8915 17.0671 23.9536 17.1688 23.996C17.2704 24.0384 17.3794 24.0602 17.4896 24.0602C17.5997 24.0602 17.7087 24.0384 17.8103 23.996C17.912 23.9536 18.0042 23.8915 18.0817 23.8132C18.1592 23.735 18.2204 23.6422 18.2618 23.5401C18.3032 23.4381 18.3239 23.3289 18.3229 23.2188V20.875H19C19.221 20.875 19.433 20.7872 19.5893 20.6309C19.7455 20.4746 19.8333 20.2627 19.8333 20.0417ZM16.6562 19.2084H15.0078L16.6562 17.1523V19.2084ZM24.0984 13.4955C23.9911 13.4738 23.8805 13.4735 23.7731 13.4946C23.6657 13.5158 23.5635 13.5579 23.4724 13.6187C23.3812 13.6794 23.303 13.7575 23.2422 13.8486C23.1813 13.9396 23.1391 14.0417 23.1178 14.1492L21.2428 23.5242C21.1994 23.7409 21.2439 23.9659 21.3665 24.1498C21.489 24.3337 21.6796 24.4614 21.8963 24.5048C21.9503 24.5155 22.0053 24.521 22.0604 24.521C22.2528 24.5208 22.4393 24.454 22.5881 24.3319C22.7369 24.2098 22.8388 24.04 22.8766 23.8513L24.7516 14.4763C24.7732 14.369 24.7734 14.2585 24.7522 14.1511C24.731 14.0438 24.6889 13.9416 24.6282 13.8505C24.5676 13.7594 24.4896 13.6812 24.3987 13.6203C24.3078 13.5594 24.2057 13.517 24.0984 13.4955ZM28.3746 23.5838C28.5392 23.5837 28.7 23.5349 28.8369 23.4436C28.9739 23.3523 29.0807 23.2225 29.144 23.0706L32.269 15.5706C32.3219 15.444 32.3426 15.3063 32.3295 15.1697C32.3163 15.0331 32.2696 14.9019 32.1935 14.7878C32.1174 14.6736 32.0143 14.58 31.8933 14.5152C31.7723 14.4505 31.6372 14.4166 31.5 14.4167H27.2812C27.0616 14.4188 26.8517 14.5075 26.6972 14.6636C26.5426 14.8196 26.4559 15.0304 26.4559 15.25C26.4559 15.4696 26.5426 15.6803 26.6972 15.8364C26.8517 15.9924 27.0616 16.0812 27.2812 16.0833H30.25L27.6059 22.4297C27.5533 22.5563 27.5328 22.694 27.546 22.8304C27.5593 22.9669 27.606 23.098 27.682 23.2122C27.758 23.3263 27.8609 23.4199 27.9817 23.4848C28.1026 23.5497 28.2375 23.5838 28.3746 23.5841V23.5838Z" fill="white"/>
</svg>
