<svg width="40" height="40" viewBox="0 0 40 40" fill="none" xmlns="http://www.w3.org/2000/svg">
<g clip-path="url(#clip0_103_2872)">
<path d="M5.33357 27.3333H4.66691C4.4901 27.3333 4.32053 27.4035 4.19551 27.5285C4.07048 27.6535 4.00024 27.8231 4.00024 27.9999V28.6666C4.00024 28.8434 4.07048 29.013 4.19551 29.138C4.32053 29.263 4.4901 29.3332 4.66691 29.3332H5.33357C5.51038 29.3332 5.67995 29.263 5.80497 29.138C5.92999 29.013 6.00023 28.8434 6.00023 28.6666V27.9999C6.00023 27.8231 5.92999 27.6535 5.80497 27.5285C5.67995 27.4035 5.51038 27.3333 5.33357 27.3333ZM36.6667 35.3332H36C35.8232 35.3332 35.6537 35.4034 35.5286 35.5285C35.4036 35.6535 35.3334 35.8231 35.3334 35.9999V36.6665C35.3334 36.8433 35.4036 37.0129 35.5286 37.1379C35.6537 37.263 35.8232 37.3332 36 37.3332H36.6667C36.8435 37.3332 37.0131 37.263 37.1381 37.1379C37.2631 37.0129 37.3334 36.8433 37.3334 36.6665V35.9999C37.3334 35.8231 37.2631 35.6535 37.1381 35.5285C37.0131 35.4034 36.8435 35.3332 36.6667 35.3332ZM32.6667 35.3332H32.0001C31.8233 35.3332 31.6537 35.4034 31.5287 35.5285C31.4036 35.6535 31.3334 35.8231 31.3334 35.9999V36.6665C31.3334 36.8433 31.4036 37.0129 31.5287 37.1379C31.6537 37.263 31.8233 37.3332 32.0001 37.3332H32.6667C32.8435 37.3332 33.0131 37.263 33.1381 37.1379C33.2632 37.0129 33.3334 36.8433 33.3334 36.6665V35.9999C33.3334 35.8231 33.2632 35.6535 33.1381 35.5285C33.0131 35.4034 32.8435 35.3332 32.6667 35.3332ZM28.6668 35.3332H28.0001C27.8233 35.3332 27.6537 35.4034 27.5287 35.5285C27.4037 35.6535 27.3334 35.8231 27.3334 35.9999V36.6665C27.3334 36.8433 27.4037 37.0129 27.5287 37.1379C27.6537 37.263 27.8233 37.3332 28.0001 37.3332H28.6668C28.8436 37.3332 29.0131 37.263 29.1382 37.1379C29.2632 37.0129 29.3334 36.8433 29.3334 36.6665V35.9999C29.3334 35.8231 29.2632 35.6535 29.1382 35.5285C29.0131 35.4034 28.8436 35.3332 28.6668 35.3332ZM24.6668 35.3332H24.0001C23.8233 35.3332 23.6537 35.4034 23.5287 35.5285C23.4037 35.6535 23.3335 35.8231 23.3335 35.9999V36.6665C23.3335 36.8433 23.4037 37.0129 23.5287 37.1379C23.6537 37.263 23.8233 37.3332 24.0001 37.3332H24.6668C24.8436 37.3332 25.0132 37.263 25.1382 37.1379C25.2632 37.0129 25.3334 36.8433 25.3334 36.6665V35.9999C25.3334 35.8231 25.2632 35.6535 25.1382 35.5285C25.0132 35.4034 24.8436 35.3332 24.6668 35.3332Z" fill="#ffffff"/>
<path d="M39.3342 4.00003H34.0002V0.666719C34.0003 0.568386 33.9786 0.471254 33.9367 0.382297C33.8948 0.293341 33.8337 0.214767 33.7578 0.15222C33.6819 0.0896722 33.5931 0.0447027 33.4978 0.0205406C33.4025 -0.00362155 33.303 -0.00637673 33.2065 0.0124729L12.54 4.01245L12.5425 4.0252C12.3914 4.05199 12.2545 4.13082 12.1554 4.24801C12.0564 4.3652 12.0015 4.51335 12.0003 4.66678V7.33343C12.0003 7.42093 12.0174 7.50758 12.0509 7.58844C12.0843 7.6693 12.1333 7.74278 12.1952 7.80469C12.257 7.86659 12.3304 7.91571 12.4113 7.94924C12.4921 7.98277 12.5787 8.00005 12.6662 8.00009H12.667V12.6667H11.3336C11.2461 12.6667 11.1595 12.6839 11.0786 12.7173C10.9978 12.7507 10.9243 12.7998 10.8624 12.8616C10.8005 12.9234 10.7514 12.9969 10.7178 13.0777C10.6843 13.1585 10.667 13.2451 10.667 13.3326V15.3334H9.33365C9.24616 15.3333 9.1595 15.3505 9.07864 15.3839C8.99778 15.4174 8.9243 15.4664 8.8624 15.5283C8.80049 15.5901 8.75137 15.6635 8.71784 15.7443C8.68432 15.8252 8.66704 15.9118 8.66699 15.9993V21.3333C8.66694 21.4208 8.68412 21.5075 8.71756 21.5884C8.75099 21.6692 8.80003 21.7427 8.86187 21.8046C8.9237 21.8665 8.99713 21.9156 9.07795 21.9492C9.15877 21.9827 9.24541 22 9.33291 22H17.3336C17.4211 22.0001 17.5078 21.9829 17.5886 21.9494C17.6695 21.916 17.743 21.867 17.8049 21.8051C17.8668 21.7433 17.9159 21.6699 17.9494 21.589C17.9829 21.5082 18.0002 21.4216 18.0003 21.3341V16C18.0003 15.9125 17.9831 15.8259 17.9497 15.745C17.9163 15.6642 17.8672 15.5907 17.8054 15.5288C17.7436 15.4669 17.6701 15.4178 17.5893 15.3842C17.5085 15.3507 17.4219 15.3334 17.3344 15.3334H16.0003V13.3334C16.0003 13.2459 15.9832 13.1592 15.9497 13.0784C15.9163 12.9975 15.8672 12.924 15.8054 12.8621C15.7436 12.8002 15.6701 12.7511 15.5893 12.7176C15.5085 12.6841 15.4219 12.6668 15.3344 12.6667H14.0003V8.00009H26.5565L22.7617 32.6666H21.3336C21.2461 32.6665 21.1594 32.6837 21.0786 32.7172C20.9977 32.7506 20.9242 32.7996 20.8623 32.8615C20.8004 32.9233 20.7513 32.9967 20.7178 33.0776C20.6842 33.1584 20.667 33.245 20.6669 33.3325V39.3332C20.6669 39.4207 20.684 39.5074 20.7175 39.5882C20.7509 39.6691 20.8 39.7426 20.8618 39.8045C20.9236 39.8664 20.9971 39.9155 21.0779 39.949C21.1587 39.9826 21.2453 39.9998 21.3328 39.9999H39.3335C39.421 39.9999 39.5076 39.9828 39.5885 39.9493C39.6693 39.9159 39.7428 39.8669 39.8047 39.805C39.8666 39.7432 39.9158 39.6698 39.9493 39.5889C39.9828 39.5081 40.0001 39.4215 40.0001 39.334V33.3333C40.0002 33.2458 39.983 33.1591 39.9496 33.0783C39.9161 32.9974 39.8671 32.9239 39.8053 32.862C39.7434 32.8001 39.67 32.751 39.5892 32.7175C39.5084 32.6839 39.4217 32.6666 39.3342 32.6666H37.9054L34.1106 8.00009H39.3335C39.421 8.00014 39.5076 7.98296 39.5885 7.94953C39.6693 7.91609 39.7428 7.86705 39.8047 7.80522C39.8666 7.74338 39.9158 7.66995 39.9493 7.58913C39.9828 7.50831 40.0001 7.42168 40.0001 7.33418V4.66678C40.0002 4.57927 39.983 4.49261 39.9496 4.41174C39.9162 4.33087 39.8671 4.25738 39.8053 4.19547C39.7434 4.13355 39.67 4.08442 39.5892 4.05089C39.5084 4.01736 39.4217 4.00008 39.3342 4.00003ZM32.6668 1.47463V4.00003H19.6189L32.6668 1.47463ZM16.6669 16.6666V20.6666H10.0003V16.6666H16.6669ZM14.667 14V15.3333H12.0003V14H14.667ZM26.5201 17.0054L33.7625 20.6263L25.4002 24.2849L26.5201 17.0054ZM32.3993 12.0547L26.8552 14.827L27.5901 10.05L32.3993 12.0547ZM27.799 8.69258L27.9055 8.00001H32.7616L33.2155 10.9507L27.799 8.69258ZM38.6668 33.9998V38.6665H22.0002V33.9998H38.6668ZM36.5562 32.6665H24.1109L25.089 26.3086L36.5021 32.315L36.5562 32.6665ZM36.2499 30.6758L26.2033 25.3886L34.8542 21.6037L36.2499 30.6758ZM34.534 19.5214L27.4911 16L33.5279 12.9816L34.534 19.5214ZM38.6668 6.66668H13.3336V5.33336H38.6668V6.66668Z" fill="#ffffff"/>
<path d="M18.7717 30.9798C18.7118 30.8839 18.6285 30.8049 18.5296 30.7502C18.4308 30.6954 18.3196 30.6666 18.2066 30.6666H8.66693V25.3333C8.66698 25.2458 8.6498 25.1591 8.61637 25.0783C8.58293 24.9974 8.53389 24.9239 8.47206 24.862C8.41022 24.8001 8.33679 24.751 8.25597 24.7175C8.17515 24.6839 8.08852 24.6667 8.00102 24.6666H2.0003C1.9128 24.6666 1.82615 24.6838 1.74529 24.7172C1.66443 24.7506 1.59095 24.7997 1.52905 24.8615C1.46714 24.9233 1.41802 24.9968 1.38449 25.0776C1.35096 25.1584 1.33369 25.245 1.33364 25.3325V30.6666H0.666979C0.55507 30.6665 0.444939 30.6946 0.346746 30.7483C0.248552 30.8019 0.165458 30.8795 0.105129 30.9737C0.0447994 31.068 0.00917784 31.1759 0.00155 31.2876C-0.00607783 31.3992 0.0145337 31.511 0.0614832 31.6126L3.30696 38.646C3.24175 38.6573 3.17585 38.6641 3.10971 38.6665C2.89787 38.6659 2.68855 38.6205 2.49547 38.5333C2.30239 38.4462 2.1299 38.3192 1.9893 38.1607C1.72962 37.8973 1.41991 37.6883 1.07837 37.5462C0.73682 37.4041 0.370324 37.3317 0.000400263 37.3332V38.6665C0.212246 38.6672 0.421564 38.7126 0.614645 38.7998C0.807726 38.8869 0.980214 39.0139 1.12081 39.1724C2.21247 40.2708 3.98788 40.2764 5.08629 39.1847L5.09862 39.1724C5.64387 38.5537 6.58728 38.4942 7.20594 39.0395C7.25302 39.081 7.29735 39.1253 7.33885 39.1724C8.43093 40.271 10.2068 40.2764 11.3054 39.1843L11.3167 39.173C11.8644 38.5528 12.8112 38.494 13.4315 39.0418C13.4779 39.0828 13.5217 39.1266 13.5627 39.173C14.6577 40.2724 16.4366 40.2759 17.536 39.1809L17.5438 39.173C17.6848 39.0143 17.8577 38.8872 18.0513 38.7999C18.2448 38.7126 18.4546 38.6672 18.6669 38.6665V37.3332C18.2968 37.3316 17.9301 37.404 17.5884 37.5459C17.2466 37.6879 16.9366 37.8967 16.6766 38.16C16.5356 38.3188 16.3625 38.446 16.1689 38.5333C15.9753 38.6206 15.7654 38.666 15.553 38.6665C15.4997 38.6639 15.4466 38.6584 15.394 38.65L18.8062 31.6242C18.8555 31.5227 18.8782 31.4103 18.8722 31.2975C18.8662 31.1848 18.8316 31.0755 18.7717 30.9798ZM2.66697 26H7.3336V30.6666H2.66697V26ZM14.231 37.9935C13.7375 37.5568 13.098 37.3211 12.4391 37.3333C12.0691 37.3316 11.7025 37.4039 11.3608 37.5459C11.0192 37.6879 10.7093 37.8967 10.4495 38.1601C9.90384 38.7795 8.95943 38.8391 8.3401 38.2935C8.2931 38.2521 8.24876 38.2078 8.20735 38.1608C7.94766 37.8973 7.63795 37.6884 7.29641 37.5463C6.95486 37.4042 6.58837 37.3318 6.21844 37.3333C5.57495 37.3209 4.94957 37.5468 4.46254 37.9675L1.70872 32H17.1415L14.231 37.9935Z" fill="#ffffff"/>
</g>
<defs>
<clipPath id="clip0_103_2872">
<rect width="40" height="40" fill="white"/>
</clipPath>
</defs>
</svg>
