<svg width="40" height="40" viewBox="0 0 40 40" fill="none" xmlns="http://www.w3.org/2000/svg">
<g clip-path="url(#clip0_103_2862)">
<path d="M25.3768 19.6792C27.2833 16.9574 28.2909 13.7621 28.2909 10.4391V3.03003C28.2909 2.66417 28.0367 2.34706 27.6797 2.26737L17.5918 0.0185436C17.4798 -0.00618121 17.3638 -0.00618121 17.2518 0.0185436L7.16431 2.26737C6.99087 2.30602 6.83578 2.40264 6.72464 2.54129C6.61351 2.67994 6.55295 2.85233 6.55298 3.03003V10.4391C6.55298 13.7621 7.56063 16.9574 9.46704 19.6789C11.3735 22.4008 14.0319 24.4396 17.1551 25.5755C17.2406 25.6065 17.3308 25.6224 17.4218 25.6225C17.5121 25.6225 17.6027 25.6067 17.6888 25.5755C20.812 24.44 23.4704 22.4007 25.3768 19.6792ZM17.4218 24.0069C14.7174 22.9641 12.4136 21.1624 10.747 18.7826C9.02548 16.325 8.11548 13.4399 8.11548 10.4391V3.65628L17.4218 1.58167L26.7284 3.65628V10.4391C26.7284 13.4396 25.8184 16.3247 24.0969 18.7826C22.43 21.1623 20.1263 22.9641 17.4218 24.0069Z" fill="#D81320"/>
<path d="M25.3995 5.34789C25.3996 5.1702 25.3391 4.99779 25.2279 4.85913C25.1168 4.72048 24.9617 4.62386 24.7883 4.58524L17.5922 2.98094C17.4801 2.95622 17.364 2.95622 17.2519 2.98094L10.0556 4.58524C9.63451 4.6793 9.36928 5.09672 9.46326 5.51789C9.55701 5.93898 9.97475 6.20422 10.3955 6.11023L17.4219 4.54406L23.837 5.97414V10.4391C23.837 12.8434 23.1079 15.1548 21.7289 17.124C20.6208 18.706 19.137 19.9878 17.4219 20.8493C15.7069 19.9881 14.2234 18.706 13.1153 17.124C11.9223 15.4209 11.2058 13.4298 11.0434 11.367C11.0297 11.1948 11.02 11.0209 11.0141 10.8493C10.9993 10.4178 10.6351 10.0805 10.2063 10.0952C9.77514 10.1102 9.43756 10.4718 9.45256 10.903C9.45928 11.0974 9.47029 11.2948 9.48553 11.4895C9.6699 13.8305 10.4826 16.0888 11.8354 18.0203C13.1718 19.928 14.9901 21.4514 17.0939 22.4255C17.1968 22.4732 17.3087 22.4978 17.4221 22.4978C17.5354 22.4978 17.6474 22.4732 17.7503 22.4255C19.8545 21.4511 21.6727 19.928 23.0088 18.0203C24.5729 15.7873 25.3998 13.1656 25.3998 10.4391V5.34789H25.3995Z" fill="#D81320"/>
<path d="M15.1962 14.4946C15.2695 14.5814 15.3608 14.6511 15.4639 14.6989C15.5669 14.7468 15.6792 14.7715 15.7928 14.7714C15.9864 14.7714 16.1731 14.6995 16.3167 14.5697L21.9808 9.44515C22.3007 9.15586 22.3253 8.66179 22.036 8.34164C21.7464 8.02187 21.2525 7.99711 20.9325 8.2864L15.8675 12.8687L14.422 11.1587C14.1436 10.8295 13.6505 10.788 13.3212 11.0666C12.9916 11.3452 12.9504 11.838 13.2287 12.1677L15.1962 14.4946ZM10.8432 25.8557C10.4314 25.3143 9.833 24.9701 9.15831 24.8859C8.48354 24.802 7.81886 24.9884 7.28667 25.4116C7.04421 25.6043 6.84006 25.8407 6.68479 26.1087L6.45534 25.8096C6.25097 25.5427 6.13999 25.216 6.13948 24.8798V17.8317C6.13948 16.3919 4.96792 15.2203 3.52808 15.2203C2.1737 15.2203 1.0562 16.2372 0.92831 17.5852L0.0921377 26.4038C0.0185439 27.1762 0.236435 27.9425 0.707997 28.5651L7.34862 37.2119V39.2187C7.34862 39.6502 7.69831 40 8.12987 40C8.56104 40 8.91112 39.6502 8.91112 39.2187V36.9464C8.91112 36.7743 8.85401 36.607 8.7494 36.4706L1.95034 27.6175C1.71904 27.3127 1.61096 26.932 1.64761 26.5512L2.48409 17.7328C2.50772 17.4726 2.62804 17.2306 2.82132 17.0548C3.01459 16.8789 3.26676 16.7819 3.52808 16.7828C4.10667 16.7828 4.57698 17.2534 4.57698 17.8317V24.8798C4.57816 25.56 4.8028 26.2211 5.21636 26.7612L6.85175 28.891L6.85909 28.9011L8.17862 30.6195C8.44175 30.9616 8.93214 31.026 9.27425 30.7633C9.61636 30.5005 9.68073 30.0101 9.418 29.6677L8.09409 27.9437C7.78745 27.5378 7.86065 26.9519 8.25987 26.6345C8.35812 26.5559 8.47118 26.4978 8.59233 26.4637C8.71348 26.4296 8.84026 26.4202 8.96511 26.4361C9.21933 26.4679 9.44479 26.5979 9.59987 26.8017L12.7539 30.9466C13.3746 31.7624 13.7164 32.7762 13.7164 33.8013V39.2187C13.7164 39.6502 14.0661 40 14.4976 40C14.9292 40 15.2789 39.6502 15.2789 39.2187V33.8012C15.2789 32.4365 14.8239 31.0867 13.9974 30.0006L10.8432 25.8557ZM34.5328 26.4038L33.6962 17.5851C33.5684 16.2372 32.4505 15.2203 31.0964 15.2203C29.6566 15.2203 28.485 16.3919 28.485 17.8317V24.8798C28.485 25.2142 28.3728 25.5445 28.1692 25.8096L27.9394 26.1087C27.7842 25.8408 27.5801 25.6044 27.3378 25.4117C26.8057 24.9884 26.141 24.802 25.4663 24.8859C24.7915 24.9701 24.1931 25.3143 23.7814 25.8557L20.6275 30.0006C19.801 31.0867 19.3457 32.4366 19.3457 33.8016V39.2187C19.3457 39.6502 19.6957 40 20.1269 40C20.5584 40 20.9082 39.6502 20.9082 39.2187V33.8012C20.9082 32.7762 21.25 31.7624 21.8707 30.9466L25.0246 26.8017C25.1006 26.7013 25.196 26.6173 25.3051 26.5545C25.4142 26.4917 25.5348 26.4514 25.6598 26.4361C25.9139 26.4047 26.1645 26.4749 26.365 26.6345C26.7639 26.9519 26.8375 27.5378 26.5304 27.9437L25.2068 29.6677C24.9441 30.0101 25.0085 30.5005 25.3506 30.7633C25.6928 31.026 26.1832 30.9616 26.4462 30.6195L27.7654 28.9011C27.7679 28.898 27.77 28.8949 27.7724 28.8919L29.4085 26.7614C29.8218 26.2211 30.0463 25.56 30.0476 24.8798V17.8317C30.0476 17.2534 30.5182 16.7828 31.0964 16.7828C31.6403 16.7828 32.0892 17.1912 32.1407 17.7328L32.9772 26.5512C33.0132 26.9333 32.9058 27.3117 32.6772 27.6135L25.8752 36.4706C25.7705 36.6072 25.7137 36.7746 25.7138 36.9467V39.2187C25.7138 39.6502 26.0635 40 26.495 40C26.9265 40 27.2763 39.6502 27.2763 39.2187V37.2119L33.9196 28.5611C34.3876 27.9445 34.6065 27.1744 34.5328 26.4038ZM9.79182 8.75765C10.0668 8.94101 10.4391 8.92945 10.701 8.72773C10.9472 8.53789 11.0628 8.20648 10.9799 7.90554C10.891 7.58297 10.6024 7.34617 10.267 7.32789C9.93495 7.30992 9.62151 7.5125 9.49979 7.82101C9.36612 8.16008 9.48964 8.55437 9.79182 8.75765Z" fill="#D81320"/>
</g>
<defs>
<clipPath id="clip0_103_2862">
<rect width="40" height="40" fill="white"/>
</clipPath>
</defs>
</svg>
