<svg width="36" height="38" viewBox="0 0 36 38" fill="none" xmlns="http://www.w3.org/2000/svg">
<path d="M1.89611 37.4616C1.91386 37.599 1.98197 37.725 2.08726 37.8151C2.19256 37.9052 2.32754 37.953 2.46606 37.9493H9.84888C9.9374 37.9532 10.0256 37.9357 10.1059 37.8983C10.1862 37.8609 10.2563 37.8047 10.3103 37.7344C10.3642 37.6641 10.4004 37.5818 10.4158 37.4946C10.4311 37.4073 10.4252 37.3176 10.3985 37.2331L9.45398 34.1394L12.3965 32.2809C12.7745 32.0734 13.2172 32.0169 13.6352 32.1229C13.647 32.1259 13.659 32.1291 13.671 32.1311L19.8159 33.2631C21.5103 33.5663 23.2572 33.3198 24.8014 32.5594C24.8257 32.5475 24.8492 32.5338 24.8716 32.5184L35.4993 25.2213C35.6199 25.1385 35.7044 25.0127 35.7354 24.8697C35.7664 24.7267 35.7417 24.5772 35.6662 24.4518C35.2643 23.7822 34.6194 23.2935 33.8661 23.0874C33.1127 22.8814 32.3089 22.9739 31.6221 23.3457L31.5232 23.3991C30.7496 22.5257 29.4642 22.1995 28.478 22.6995L28.4652 22.7062L28.1062 22.8996C27.5784 22.4736 26.934 22.2173 26.2578 22.1641C25.5816 22.111 24.9052 22.2636 24.3172 22.6018L22.0418 23.8399H19.0067C18.3606 23.8388 17.723 23.6925 17.141 23.4117L16.7196 23.2075C15.5003 22.6142 14.1406 22.3699 12.791 22.5016C11.4414 22.6334 10.1546 23.1361 9.0731 23.954C9.06047 23.9635 9.0485 23.9734 9.03652 23.9838L8.01884 24.8899C7.6761 25.1947 7.27547 25.4273 6.84087 25.5739L6.29651 23.7715C6.26149 23.6519 6.18948 23.5464 6.09081 23.4703C5.99214 23.3942 5.87189 23.3512 5.74731 23.3477H0.825436C0.743056 23.3509 0.662254 23.3713 0.588216 23.4075C0.514178 23.4438 0.448539 23.4951 0.395511 23.5583C0.341604 23.6191 0.301243 23.6907 0.277102 23.7683C0.252962 23.8459 0.245592 23.9278 0.255483 24.0085L1.89611 37.4616ZM29.0032 23.7214C29.469 23.489 30.045 23.6453 30.4587 23.9738L26.5767 26.0682L26.4565 26.1316C26.3444 25.847 26.1965 25.5779 26.0165 25.3306L29.0032 23.7214ZM24.8726 23.6065C24.8771 23.6041 24.8817 23.6015 24.8862 23.599C25.1984 23.4183 25.5501 23.3168 25.9106 23.3031C26.271 23.2894 26.6294 23.364 26.9544 23.5205L25.158 24.4884C24.8508 24.2735 24.5121 24.1078 24.1538 23.9974L24.8726 23.6065ZM8.78247 25.7475L9.7821 24.8576C10.6947 24.1727 11.7785 23.7527 12.9143 23.644C14.0501 23.5352 15.1939 23.7418 16.2199 24.241L16.6414 24.4455C17.3792 24.8014 18.1875 24.987 19.0067 24.9883H23.0941C23.6425 24.9889 24.1751 25.172 24.6078 25.5088C25.0406 25.8456 25.3488 26.3169 25.484 26.8484L22.6725 26.7208C21.5884 26.6718 20.5021 26.7219 19.4271 26.8705C19.2781 26.8935 19.1442 26.9742 19.0541 27.0951C18.9641 27.216 18.9252 27.3675 18.9459 27.5168C18.9666 27.6661 19.0452 27.8013 19.1646 27.8932C19.2841 27.9851 19.435 28.0263 19.5846 28.008C20.5902 27.869 21.6064 27.8221 22.6206 27.8677L26.1069 28.0255C26.1151 28.0255 26.1242 28.026 26.1328 28.026C26.2851 28.026 26.4312 27.9655 26.5389 27.8578C26.6465 27.7502 26.707 27.6041 26.707 27.4518C26.707 27.4006 26.7053 27.3498 26.7033 27.2991L27.1166 27.0811L32.1673 24.3564C32.5123 24.1695 32.9069 24.0949 33.2963 24.1429C33.6856 24.191 34.0503 24.3593 34.3396 24.6244L24.2558 31.5478C22.9418 32.1855 21.4597 32.3905 20.022 32.1335L13.8959 31.0054C13.1941 30.8331 12.4531 30.934 11.8229 31.2876C11.8139 31.2926 11.8051 31.2979 11.7964 31.3034L9.10575 33.0043L7.17556 26.6732C7.76888 26.4779 8.3158 26.1628 8.78247 25.7476V25.7475ZM5.32206 24.4961L9.07352 36.8008H2.97449L1.47389 24.4961H5.32206Z" fill="white"/>
<path d="M5.77063 36.614C6.07889 36.614 6.38023 36.5226 6.63654 36.3514C6.89285 36.1801 7.09262 35.9367 7.21058 35.6519C7.32855 35.3671 7.35941 35.0537 7.29928 34.7514C7.23914 34.4491 7.0907 34.1713 6.87272 33.9534C6.65475 33.7354 6.37703 33.5869 6.0747 33.5268C5.77236 33.4667 5.45898 33.4975 5.17418 33.6155C4.88939 33.7335 4.64597 33.9332 4.47471 34.1895C4.30345 34.4459 4.21204 34.7472 4.21204 35.0555C4.21251 35.4687 4.37688 35.8648 4.66907 36.157C4.96125 36.4492 5.35741 36.6136 5.77063 36.614ZM5.77063 34.6453C5.85175 34.6453 5.93105 34.6694 5.9985 34.7144C6.06595 34.7595 6.11852 34.8235 6.14956 34.8985C6.18061 34.9734 6.18873 35.0559 6.17291 35.1355C6.15708 35.215 6.11802 35.2881 6.06065 35.3455C6.00329 35.4028 5.93021 35.4419 5.85065 35.4577C5.77108 35.4736 5.68862 35.4654 5.61367 35.4344C5.53872 35.4033 5.47467 35.3508 5.4296 35.2833C5.38453 35.2159 5.36047 35.1366 5.36047 35.0555C5.3606 34.9467 5.40386 34.8425 5.48075 34.7656C5.55764 34.6887 5.66189 34.6454 5.77063 34.6453ZM8.92145 11.5225L10.4796 11.6727C10.6565 12.3143 10.9156 12.9303 11.2506 13.5054L10.2611 14.7002C10.1698 14.8104 10.1229 14.9506 10.1296 15.0936C10.1363 15.2365 10.1961 15.3717 10.2973 15.4729L12.1658 17.3414C12.2669 17.4425 12.4021 17.5023 12.5449 17.509C12.6878 17.5157 12.828 17.4688 12.9381 17.3776L14.1358 16.3855C14.7104 16.7195 15.325 16.9794 15.9651 17.1587L16.1153 18.7223C16.1288 18.865 16.1949 18.9976 16.3006 19.0944C16.4063 19.1912 16.5442 19.2453 16.6875 19.2463H19.3366C19.4799 19.2451 19.6177 19.1909 19.7232 19.094C19.8288 18.9972 19.8947 18.8646 19.9082 18.722L20.0584 17.1613C20.7 16.984 21.316 16.7244 21.891 16.3891L23.086 17.378C23.1961 17.4691 23.3363 17.5159 23.4792 17.5091C23.622 17.5023 23.7571 17.4425 23.8582 17.3414L25.7265 15.4729C25.8276 15.3718 25.8874 15.2366 25.8941 15.0937C25.9008 14.9508 25.854 14.8106 25.7628 14.7005L24.7702 13.5023C25.1044 12.9275 25.3643 12.3127 25.5436 11.6724L27.0789 11.5226C27.2209 11.5087 27.3526 11.4425 27.4484 11.3369C27.5443 11.2312 27.5973 11.0937 27.5973 10.9511V8.30186C27.5973 8.15911 27.5442 8.02147 27.4482 7.91579C27.3522 7.81012 27.2203 7.74397 27.0782 7.73027L25.5201 7.58015C25.3432 6.93857 25.0841 6.32257 24.7491 5.74749L25.7386 4.55254C25.8294 4.44291 25.8762 4.30346 25.87 4.16126C25.8638 4.01905 25.805 3.88423 25.705 3.78293L23.8605 1.91434C23.7596 1.81223 23.6241 1.75161 23.4808 1.74443C23.3374 1.73725 23.1965 1.78402 23.086 1.87554L21.8883 2.86811C21.3137 2.53404 20.699 2.27422 20.059 2.09489L19.9088 0.553521C19.8944 0.412986 19.8274 0.283091 19.7212 0.18989C19.6151 0.0966887 19.4776 0.0470739 19.3364 0.0509974H16.6875C16.5465 0.0472753 16.4093 0.0969281 16.3033 0.190024C16.1973 0.28312 16.1304 0.412795 16.1159 0.553111L15.9656 2.1026C15.3242 2.27802 14.7083 2.53575 14.1331 2.86934L12.938 1.87767C12.828 1.78632 12.6879 1.73931 12.5451 1.74581C12.4022 1.75232 12.2669 1.81189 12.1657 1.91286L10.2973 3.78079C10.1962 3.88188 10.1365 4.01702 10.1298 4.15978C10.1231 4.30254 10.1699 4.44268 10.261 4.55279L11.2536 5.75045C10.9195 6.32505 10.6597 6.93972 10.4804 7.57974L8.92178 7.72994C8.77957 7.74358 8.64755 7.80973 8.5515 7.91549C8.45545 8.02124 8.40228 8.159 8.40236 8.30186V10.9509C8.40235 11.0937 8.45552 11.2313 8.55149 11.337C8.64746 11.4426 8.77936 11.5088 8.92145 11.5225ZM9.55079 8.82342L10.9945 8.68397C11.1157 8.67226 11.2301 8.62235 11.321 8.54143C11.412 8.46051 11.4749 8.35277 11.5006 8.23378C11.6769 7.44244 11.9949 6.68952 12.4393 6.01139C12.5054 5.90884 12.5372 5.78789 12.53 5.66607C12.5228 5.54424 12.4769 5.42789 12.3991 5.33389L11.4789 4.2227L12.6082 3.09345L13.7192 4.0136C13.8143 4.0924 13.9323 4.13843 14.0557 4.14484C14.1791 4.15126 14.3012 4.11772 14.404 4.0492C15.0781 3.60317 15.8294 3.28655 16.6194 3.11552C16.7372 3.0935 16.8447 3.03397 16.9258 2.94582C17.007 2.85767 17.0574 2.74564 17.0696 2.62645L17.2091 1.19911H18.8152L18.9547 2.62645C18.9666 2.74664 19.0168 2.85983 19.0978 2.9494C19.1789 3.03896 19.2865 3.10018 19.4049 3.12405C20.1962 3.29865 20.9494 3.61512 21.6279 4.05814C21.7307 4.12402 21.8518 4.15542 21.9737 4.1478C22.0955 4.14017 22.2117 4.09391 22.3055 4.01573L23.414 3.09698L24.5243 4.22081L23.6009 5.33381C23.5222 5.42894 23.4762 5.54693 23.4698 5.67026C23.4635 5.79359 23.497 5.91569 23.5655 6.01844C24.0115 6.69256 24.3281 7.4438 24.4991 8.23378C24.5248 8.35277 24.5877 8.46051 24.6787 8.54143C24.7696 8.62235 24.884 8.67226 25.0052 8.68397L26.4489 8.82342V10.43L25.0279 10.5687C24.9068 10.5805 24.7926 10.6305 24.7018 10.7114C24.6109 10.7923 24.5481 10.8999 24.5224 11.0188C24.3463 11.8104 24.0284 12.5635 23.584 13.2419C23.5179 13.3444 23.4861 13.4654 23.4933 13.5872C23.5005 13.7091 23.5464 13.8254 23.6242 13.9194L24.5448 15.0299L23.4156 16.1591L22.3044 15.239C22.2093 15.1602 22.0913 15.1142 21.9679 15.1078C21.8446 15.1013 21.7224 15.1349 21.6196 15.2034C20.9455 15.6495 20.1943 15.9662 19.4042 16.1373C19.2849 16.1642 19.177 16.2281 19.0962 16.3199C19.0153 16.4118 18.9656 16.5268 18.954 16.6486L18.8149 18.0979H17.2087L17.0693 16.6486C17.0576 16.5272 17.0078 16.4125 16.9269 16.3211C16.846 16.2297 16.7383 16.1663 16.6191 16.14C15.8276 15.9634 15.0746 15.6451 14.3965 15.2004C14.294 15.1342 14.173 15.1023 14.0512 15.1094C13.9294 15.1166 13.813 15.1623 13.7189 15.2401L12.6079 16.1599L11.4789 15.0299L12.3991 13.9188C12.4779 13.8236 12.5239 13.7056 12.5303 13.5822C12.5367 13.4588 12.5031 13.3367 12.4345 13.2339C11.9886 12.5598 11.672 11.8085 11.5009 11.0186C11.4752 10.8996 11.4123 10.7918 11.3213 10.7109C11.2304 10.63 11.1161 10.5801 10.9949 10.5684L9.55112 10.4289L9.55079 8.82342Z" fill="white"/>
<path d="M18.0119 15.3579C19.1456 15.3579 20.2538 15.0217 21.1964 14.3919C22.139 13.7621 22.8737 12.8669 23.3075 11.8195C23.7414 10.7721 23.8549 9.61959 23.6337 8.5077C23.4125 7.39582 22.8666 6.37448 22.065 5.57286C21.2633 4.77124 20.242 4.22533 19.1301 4.00417C18.0182 3.78301 16.8657 3.89654 15.8183 4.33039C14.771 4.76424 13.8758 5.49892 13.2459 6.44155C12.6161 7.38417 12.28 8.49239 12.28 9.62606C12.2817 11.1457 12.8861 12.6027 13.9607 13.6772C15.0353 14.7518 16.4922 15.3562 18.0119 15.3579ZM18.0119 5.04256C18.9184 5.04256 19.8046 5.31138 20.5584 5.81502C21.3121 6.31866 21.8996 7.03451 22.2465 7.87203C22.5934 8.70956 22.6842 9.63115 22.5073 10.5203C22.3305 11.4094 21.8939 12.2261 21.2529 12.8671C20.6119 13.5081 19.7952 13.9446 18.9061 14.1215C18.017 14.2983 17.0954 14.2076 16.2579 13.8607C15.4203 13.5137 14.7045 12.9263 14.2009 12.1725C13.6972 11.4188 13.4284 10.5326 13.4284 9.62606C13.4299 8.41091 13.9132 7.24595 14.7725 6.38673C15.6318 5.52752 16.7968 5.0442 18.0119 5.04281V5.04256Z" fill="white"/>
<path d="M16.9874 11.3791C17.0946 11.4838 17.2386 11.5424 17.3885 11.5424C17.5384 11.5424 17.6824 11.4838 17.7896 11.3791L20.5382 8.69561C20.5928 8.64309 20.6365 8.58029 20.6667 8.51081C20.6969 8.44133 20.7131 8.36656 20.7143 8.2908C20.7155 8.21505 20.7017 8.1398 20.6737 8.06941C20.6457 7.99901 20.604 7.93485 20.5511 7.88063C20.4981 7.82642 20.435 7.78321 20.3653 7.7535C20.2956 7.72379 20.2207 7.70817 20.1449 7.70754C20.0692 7.70691 19.994 7.72127 19.9239 7.74981C19.8537 7.77835 19.7898 7.8205 19.736 7.87383L17.3885 10.1655L16.2639 9.06763C16.2101 9.0143 16.1463 8.97215 16.0761 8.94361C16.0059 8.91507 15.9308 8.90071 15.855 8.90134C15.7792 8.90197 15.7044 8.91759 15.6347 8.9473C15.565 8.97701 15.5018 9.02022 15.4489 9.07444C15.396 9.12865 15.3543 9.19281 15.3263 9.26321C15.2983 9.3336 15.2845 9.40885 15.2857 9.4846C15.2869 9.56036 15.303 9.63513 15.3333 9.70461C15.3635 9.77409 15.4072 9.8369 15.4618 9.88942L16.9874 11.3791Z" fill="white"/>
</svg>
