<svg width="60" height="60" viewBox="0 0 60 60" fill="none" xmlns="http://www.w3.org/2000/svg">
<g clip-path="url(#clip0_39_4585)">
<path d="M54.5943 4.83871H44.5161V2.90323C44.5161 1.30282 43.2133 0 41.6129 0H16.4516C14.8512 0 13.5484 1.30282 13.5484 2.90323V19.7669C9.08722 21.0357 5.80645 25.1383 5.80645 30V35.8064C5.80645 37.6904 7.1602 39.2592 8.94593 39.6036C9.45677 41.6631 10.7903 43.3978 12.5806 44.4369V46.6502L3.75097 48.6873C1.54282 49.1959 0 51.1352 0 53.4019V60H32.9032V53.4021C32.9032 51.1354 31.3604 49.196 29.1532 48.6871L20.3226 46.65V44.4368C22.1129 43.3977 23.4465 41.663 23.9573 39.6037C25.743 39.2592 27.0968 37.6904 27.0968 35.8064V30.9427C27.9076 31.557 28.9065 31.9355 30 31.9355C31.979 31.9355 33.6791 30.7385 34.4286 29.0323H46.8617C47.6112 30.7385 49.3113 31.9355 51.2903 31.9355C53.2694 31.9355 54.9694 30.7385 55.7189 29.0323H57.0968C58.6972 29.0323 60 27.7294 60 26.129V10.2444L54.5943 4.83871ZM53.7929 6.77419L58.0645 11.0459V23.2258H54.1638C53.3577 22.6258 52.3696 22.2581 51.2903 22.2581C50.211 22.2581 49.223 22.6258 48.4169 23.2258H44.5161V6.77419H53.7929ZM15.4839 2.90323C15.4839 2.37024 15.9186 1.93548 16.4516 1.93548H41.6129C42.1459 1.93548 42.5806 2.37024 42.5806 2.90323V23.2258H32.8735C32.0673 22.6258 31.0793 22.2581 30 22.2581C28.1543 22.2581 26.5666 23.309 25.7505 24.8324C24.9647 23.4233 23.8675 22.2137 22.5533 21.2903H40.6452V3.87097H17.4194V19.404C17.1 19.3752 16.7786 19.3548 16.4516 19.3548C16.1246 19.3548 15.8032 19.3752 15.4839 19.404V2.90323ZM27.0968 5.80645H30.9677V7.74194H27.0968V5.80645ZM32.9032 9.67742V5.80645H38.7097V19.3548H32.9032V15.4839H25.1613V19.3548H19.3548V5.80645H25.1613V9.67742H32.9032ZM30.9677 19.3548H27.0968V17.4194H30.9677V19.3548ZM7.74194 35.8064C7.74194 35.0933 8.13363 34.4758 8.70968 34.1399V37.473C8.13363 37.1371 7.74194 36.5196 7.74194 35.8064ZM28.7175 50.573C30.0426 50.8793 30.9677 52.0421 30.9677 53.4021V58.0645H25.1613V54.1935H23.2258V58.0645H9.67742V54.1935H7.74194V58.0645H1.93548V53.4021C1.93548 52.0421 2.86065 50.8793 4.18669 50.573L13.1525 48.5032L16.4516 52.9037L19.7508 48.5044L28.7175 50.573ZM18.3871 47.0971L16.4516 49.6781L14.5161 47.0971V45.2292C15.1366 45.3899 15.7821 45.4839 16.4516 45.4839C17.1212 45.4839 17.7667 45.3899 18.3871 45.2292V47.0971ZM22.2581 37.7419C22.2581 40.9443 19.654 43.5484 16.4516 43.5484C13.2492 43.5484 10.6452 40.9443 10.6452 37.7419V33.1315C10.6452 32.3546 10.9925 31.6402 11.5789 31.1662C14.1396 32.9151 17.219 33.871 20.3226 33.871H22.2581V37.7419ZM22.2581 31.9355H20.3226C17.4109 31.9355 14.5236 30.9726 12.1935 29.226L11.7145 28.8668L11.1791 29.1339C9.99496 29.7259 9.16657 30.7858 8.8529 32.0277C8.45407 32.1155 8.08452 32.2743 7.74194 32.4737V30C7.74194 25.1982 11.6498 21.2903 16.4516 21.2903C21.2534 21.2903 25.1613 25.1982 25.1613 30V32.4738C24.8588 32.2961 24.5331 32.1612 24.1935 32.073V30H22.2581V31.9355ZM24.1935 37.473V34.1399C24.7696 34.4758 25.1613 35.0933 25.1613 35.8064C25.1613 36.5196 24.7696 37.1371 24.1935 37.473ZM30 30C28.3996 30 27.0968 28.6972 27.0968 27.0968C27.0968 25.4964 28.3996 24.1935 30 24.1935C31.6004 24.1935 32.9032 25.4964 32.9032 27.0968C32.9032 28.6972 31.6004 30 30 30ZM34.4286 25.1613H42.5806V27.0968H34.8387C34.8387 26.4079 34.6899 25.7552 34.4286 25.1613ZM44.5161 27.0968V25.1613H46.8617C46.6004 25.7552 46.4516 26.4079 46.4516 27.0968H44.5161ZM51.2903 30C49.6899 30 48.3871 28.6972 48.3871 27.0968C48.3871 25.4964 49.6899 24.1935 51.2903 24.1935C52.8907 24.1935 54.1935 25.4964 54.1935 27.0968C54.1935 28.6972 52.8907 30 51.2903 30ZM57.0968 27.0968H56.129C56.129 26.4079 55.9802 25.7552 55.7189 25.1613H58.0645V26.129C58.0645 26.662 57.6298 27.0968 57.0968 27.0968Z" fill="#D81320"/>
<path d="M52.2581 27.0966C52.2581 27.3532 52.1561 27.5994 51.9746 27.7809C51.7931 27.9624 51.547 28.0643 51.2903 28.0643C51.0337 28.0643 50.7875 27.9624 50.606 27.7809C50.4245 27.5994 50.3226 27.3532 50.3226 27.0966C50.3226 26.8399 50.4245 26.5938 50.606 26.4123C50.7875 26.2308 51.0337 26.1288 51.2903 26.1288C51.547 26.1288 51.7931 26.2308 51.9746 26.4123C52.1561 26.5938 52.2581 26.8399 52.2581 27.0966ZM30.9677 27.0966C30.9677 27.3532 30.8658 27.5994 30.6843 27.7809C30.5028 27.9624 30.2567 28.0643 30 28.0643C29.7433 28.0643 29.4972 27.9624 29.3157 27.7809C29.1342 27.5994 29.0323 27.3532 29.0323 27.0966C29.0323 26.8399 29.1342 26.5938 29.3157 26.4123C29.4972 26.2308 29.7433 26.1288 30 26.1288C30.2567 26.1288 30.5028 26.2308 30.6843 26.4123C30.8658 26.5938 30.9677 26.8399 30.9677 27.0966ZM56.129 16.4514V12.1797L52.6587 8.70947H46.4516V16.4514H56.129ZM48.3871 10.645H51.8574L54.1935 12.9812V14.5159H48.3871V10.645ZM46.4516 32.903C38.9804 32.903 32.9032 38.9802 32.9032 46.4514C32.9032 53.9226 38.9804 59.9998 46.4516 59.9998C53.9228 59.9998 60 53.9226 60 46.4514C60 38.9802 53.9228 32.903 46.4516 32.903ZM46.4516 58.0643C40.0478 58.0643 34.8387 52.8551 34.8387 46.4514C34.8387 40.0477 40.0479 34.8385 46.4516 34.8385C52.8553 34.8385 58.0645 40.0477 58.0645 46.4514C58.0645 52.8551 52.8553 58.0643 46.4516 58.0643Z" fill="#D81320"/>
<path d="M44.2373 52.731L40.2823 49.567L39.0726 51.0781L44.795 55.656L53.0982 41.1253L51.4179 40.165L44.2373 52.731Z" fill="#D81320"/>
</g>
<defs>
<clipPath id="clip0_39_4585">
<rect width="60" height="60" fill="white"/>
</clipPath>
</defs>
</svg>
