<svg width="52" height="60" viewBox="0 0 52 60" fill="none" xmlns="http://www.w3.org/2000/svg">
<path d="M11.3547 28.6691C11.3429 28.9237 11.2304 29.1632 11.042 29.3349C10.8537 29.5065 10.6048 29.5964 10.3502 29.5846C10.0956 29.5727 9.85608 29.4603 9.6844 29.2719C9.51271 29.0835 9.4229 28.8346 9.43471 28.58C9.43971 28.4534 9.46973 28.3289 9.52303 28.2139C9.57632 28.0989 9.65184 27.9956 9.74524 27.9099C9.83864 27.8242 9.94807 27.7578 10.0672 27.7146C10.1864 27.6713 10.3129 27.6521 10.4395 27.658C10.5662 27.6638 10.6904 27.6947 10.805 27.7488C10.9197 27.8029 11.0225 27.8791 11.1075 27.9731C11.1926 28.0671 11.2582 28.1769 11.3007 28.2964C11.3431 28.4158 11.3614 28.5425 11.3547 28.6691ZM51.055 43.5347C50.8012 44.1099 50.3398 44.5515 49.756 44.7778L46.8721 45.8959C46.6021 46.0008 46.315 46.0547 46.0253 46.0548C45.0831 46.0548 44.192 45.4841 43.8315 44.5542L43.6269 44.0265L41.4912 44.9176C41.5822 45.5795 41.4638 46.2608 41.1363 46.8563C40.7328 47.5901 40.0676 48.124 39.261 48.3624C39.4824 49.1358 39.4126 49.9903 38.9985 50.7428C38.3797 51.8682 37.1699 52.4669 35.9651 52.3657C35.9754 52.9101 35.8425 53.4477 35.5797 53.9246C35.1729 54.6643 34.4998 55.201 33.6843 55.4358C33.2356 55.5661 32.7634 55.5948 32.3022 55.5198C32.2925 56.0268 32.1596 56.5238 31.9149 56.9679C31.5079 57.7077 30.8061 58.2634 29.9893 58.4924C29.712 58.5705 29.4254 58.6103 29.1373 58.6106C28.6028 58.6108 28.0776 58.4703 27.6145 58.2034L26.9177 57.8032C26.5115 58.3337 25.9505 58.7242 25.2958 58.9226C24.9902 59.0156 24.6726 59.063 24.3531 59.0633C23.8312 59.0633 23.3149 58.9352 22.8429 58.6829C22.1997 58.3398 21.6923 57.7881 21.4041 57.1185C20.5572 57.4396 19.5847 57.4036 18.7392 56.9513C18.1648 56.6437 17.6976 56.1687 17.3995 55.5893C16.4992 56.0303 15.4093 56.0482 14.4625 55.5418C13.7061 55.1372 13.1517 54.4599 12.9016 53.6348C12.7754 53.2215 12.7335 52.7871 12.7784 52.3574C12.2753 52.3464 11.7818 52.217 11.3379 51.9797C10.5815 51.575 10.0271 50.8978 9.77713 50.0726C9.52693 49.2473 9.61213 48.3763 10.0167 47.6198L10.765 46.2205C10.6024 45.8128 10.5188 45.3756 10.4392 44.9477C10.3026 44.2137 10.1914 43.724 9.90006 43.611C9.76494 43.5585 9.45041 43.4278 8.33185 42.9299L8.07146 43.519C7.68357 44.3961 6.82107 44.9189 5.91861 44.9189C5.60162 44.9189 5.27994 44.8544 4.97197 44.7184L2.14283 43.468C1.57014 43.2149 1.12963 42.7526 0.902753 42.166C0.675878 41.5795 0.690292 40.9412 0.943417 40.3685L7.43889 25.6725C7.69201 25.0998 8.15432 24.6594 8.74084 24.4324C9.32713 24.2054 9.96545 24.2198 10.5384 24.4731L13.3675 25.7235C14.5526 26.2472 15.0908 27.6376 14.5669 28.8228L14.1302 29.811L15.8583 30.6082C15.8811 30.6187 15.9035 30.6302 15.9254 30.6424C16.8943 31.1877 17.9297 30.9449 19.2406 30.6376C20.9948 30.2264 23.15 29.7218 25.6713 31.1748C29.1562 29.053 31.8319 30.1438 33.8098 30.9522C35.2394 31.5365 36.0886 31.8459 36.9194 31.4138L38.4247 30.6081L38.0233 29.5727C37.555 28.3644 38.157 27.0005 39.3649 26.5321L42.249 25.4141C42.8328 25.1877 43.4712 25.203 44.0464 25.4567C44.6217 25.7107 45.0632 26.1719 45.2895 26.7556L51.0973 41.7368C51.3241 42.321 51.309 42.9593 51.055 43.5347ZM6.35689 42.761L12.8522 28.065C12.9206 27.9103 12.8859 27.7713 12.8593 27.7021C12.8324 27.6329 12.7645 27.5067 12.6099 27.4384L9.78064 26.188C9.72163 26.1617 9.65775 26.1481 9.59314 26.1481C9.51873 26.1481 9.45697 26.1658 9.41783 26.1811C9.34869 26.2079 9.22248 26.2758 9.15416 26.4305L2.65881 41.1265C2.59037 41.2812 2.62506 41.4203 2.65178 41.4894C2.6785 41.5585 2.74646 41.6847 2.90115 41.7531L5.73041 43.0035C5.96572 43.1076 6.25271 42.9964 6.35689 42.761ZM13.6663 50.2133L15.5015 47.0375C15.7764 46.3979 15.5174 45.6481 14.9014 45.3193C14.2461 44.9695 13.4282 45.2169 13.0784 45.8712L11.6702 48.5041C11.5017 48.819 11.4667 49.1829 11.5715 49.5288C11.6764 49.8747 11.9075 50.158 12.2224 50.3264C12.6851 50.5738 13.2497 50.525 13.6663 50.2133ZM17.1744 53.3269L19.2121 49.3805C19.3155 48.8116 19.0373 48.2197 18.526 47.9468C18.0592 47.6975 17.4904 47.7484 17.073 48.0657L14.7951 52.0663C14.6266 52.3813 14.5917 52.745 14.6964 53.091C14.8013 53.4369 15.0324 53.7201 15.3473 53.8885C16.0014 54.2385 16.8208 53.9864 17.1744 53.3269ZM21.3214 54.9347L23.1236 51.4711C23.2263 50.9026 22.9481 50.3114 22.4371 50.0387C21.9282 49.7671 21.2867 49.86 20.8716 50.2533L18.916 54.0405C18.8906 54.5581 19.1631 55.0517 19.6236 55.2981C20.202 55.6073 20.9219 55.4496 21.3214 54.9347ZM25.5497 56.4772L26.8999 53.9523C27.1428 53.4981 27.1005 52.9336 26.792 52.514C26.6748 52.3544 26.523 52.2232 26.348 52.1304C25.839 51.8584 25.197 51.9519 24.7818 52.3463L23.0228 55.727C22.9805 56.2555 23.2579 56.7783 23.7275 57.0295C24.3822 57.3797 25.1996 57.1317 25.5497 56.4772ZM29.7639 54.3172C29.7175 54.2912 28.8923 53.8086 28.8923 53.8086C28.8387 54.1636 28.727 54.5117 28.5533 54.8366L27.8399 56.1704L28.5485 56.5774C28.8288 56.7383 29.1608 56.7772 29.4834 56.6869C29.8187 56.5929 30.1061 56.3659 30.272 56.0642C30.6111 55.4479 30.3831 54.6643 29.7639 54.3172ZM27.7579 48.0729C27.65 48.0128 27.5551 47.932 27.4785 47.8352C27.402 47.7383 27.3453 47.6273 27.3117 47.5085C27.2782 47.3896 27.2684 47.2654 27.2831 47.1428C27.2977 47.0202 27.3364 46.9017 27.3969 46.794C27.4575 46.6864 27.5387 46.5919 27.6359 46.5157C27.7331 46.4396 27.8444 46.3834 27.9633 46.3504C28.0823 46.3174 28.2066 46.3082 28.3292 46.3234C28.4517 46.3386 28.57 46.3778 28.6774 46.4388L35.6176 50.344C36.236 50.6839 37.0158 50.4574 37.3558 49.839C37.6927 49.2266 37.4628 48.4446 36.8431 48.0957C35.2161 47.1845 33.3721 46.1517 31.5581 45.1132C31.3446 44.9885 31.1891 44.7845 31.1253 44.5457C31.0615 44.3069 31.0946 44.0525 31.2174 43.838C31.3403 43.6234 31.5428 43.4661 31.7811 43.4002C32.0193 43.3343 32.274 43.3651 32.4896 43.486C34.2967 44.5207 36.1373 45.5515 37.761 46.461L37.7614 46.4612C38.0514 46.6234 38.391 46.6612 38.7178 46.5678C39.0524 46.4721 39.3278 46.2537 39.4933 45.9528C39.6929 45.59 39.7013 45.1638 39.5166 44.7832C39.399 44.5408 39.2106 44.3399 38.9763 44.207L31.3061 39.8352C30.0567 39.1233 28.4563 39.7713 26.6028 40.5215C23.7781 41.6649 20.2633 43.0878 17.2383 39.1953C17.0229 38.9183 16.9408 38.5758 17.0068 38.2309C17.0729 37.8853 17.2769 37.5969 17.581 37.4191C19.735 36.1619 21.5531 34.7908 22.9852 33.3435C23.2998 33.0252 23.627 32.7196 23.9658 32.4273C22.4206 31.8194 21.0756 32.1336 19.6687 32.4634C18.1764 32.8132 16.6339 33.1749 15.0407 32.2959L13.3723 31.5262L9.09006 41.2149C10.086 41.6583 10.4546 41.8149 10.5788 41.8631C11.6306 42.2714 11.9835 43.2116 12.1735 44.058C13.1526 43.224 14.5825 43.0238 15.7842 43.6651C16.6856 44.1462 17.2692 45.0035 17.4366 45.9469C18.114 45.8494 18.8048 45.9705 19.4086 46.2926C20.1377 46.6805 20.6892 47.3345 20.9484 48.1186C21.7437 47.8997 22.5928 47.9949 23.3199 48.3845C24.0489 48.7723 24.6004 49.4262 24.8596 50.2103C25.6552 49.9914 26.5044 50.0867 27.2316 50.4765C27.5974 50.671 27.9216 50.9352 28.1859 51.2542L32.2021 53.5276C32.4952 53.6906 32.8375 53.7283 33.1658 53.6338C33.4983 53.538 33.7722 53.3203 33.937 53.0208C34.274 52.4082 34.044 51.6262 33.4244 51.2776M42.949 42.2777L39.1079 32.3695L37.7948 33.0723C36.1428 33.9314 34.5964 33.2994 33.1007 32.688C31.144 31.8881 29.1203 31.0608 26.2131 33.0551C25.5886 33.4817 24.9515 34.0221 24.3182 34.6621C22.9291 36.0658 21.217 37.3958 19.2213 38.6221C21.2358 40.6711 23.4108 39.7908 25.8993 38.7833C28.0116 37.9281 30.1959 37.0439 32.2346 38.2059L39.905 42.5777C40.2022 42.7468 40.4705 42.9622 40.6999 43.2159L42.949 42.2777ZM49.3496 42.4149L43.5418 27.4337C43.4807 27.276 43.3578 27.2022 43.2899 27.1724C43.2285 27.1452 43.162 27.1311 43.0948 27.1309C43.0375 27.1309 42.9807 27.1417 42.9272 27.1625L40.0431 28.2805C39.803 28.3735 39.6789 28.6551 39.772 28.8954L45.5799 43.8764C45.6728 44.1164 45.9541 44.2405 46.1945 44.1476L49.0784 43.0295C49.2362 42.9683 49.3099 42.8455 49.3397 42.7776C49.3695 42.7099 49.4106 42.5726 49.3496 42.4149ZM42.2009 28.607C41.6701 28.607 41.2399 29.0373 41.2399 29.568C41.2399 29.8229 41.3411 30.0674 41.5213 30.2476C41.7016 30.4278 41.946 30.5291 42.2009 30.5291C42.4558 30.5291 42.7003 30.4278 42.8805 30.2476C43.0607 30.0674 43.162 29.8229 43.162 29.568C43.162 29.3131 43.0607 29.0687 42.8805 28.8885C42.7003 28.7082 42.4558 28.607 42.2009 28.607ZM43.3928 22.5235C43.4068 22.6543 43.393 22.7865 43.3526 22.9117C43.3121 23.0368 43.2457 23.152 43.1578 23.2498C43.0699 23.3476 42.9624 23.4259 42.8424 23.4795C42.7223 23.5331 42.5922 23.5608 42.4607 23.5609H33.4885C33.5054 23.6716 33.5203 23.783 33.5323 23.8953C33.5463 24.0261 33.5325 24.1583 33.4921 24.2835C33.4516 24.4086 33.3852 24.5238 33.2973 24.6216C33.2094 24.7194 33.1019 24.7977 32.9818 24.8513C32.8617 24.9049 32.7317 24.9326 32.6002 24.9327H19.3999C19.2683 24.9327 19.1383 24.905 19.0182 24.8514C18.898 24.7979 18.7905 24.7196 18.7026 24.6218C18.6147 24.524 18.5484 24.4088 18.5079 24.2836C18.4674 24.1585 18.4538 24.0262 18.4678 23.8954C18.4798 23.7831 18.4947 23.6716 18.5115 23.5609H9.53936C9.40781 23.5609 9.27772 23.5333 9.15756 23.4797C9.03741 23.4262 8.92987 23.3479 8.84194 23.2501C8.75402 23.1522 8.68768 23.037 8.64725 22.9118C8.60681 22.7866 8.59318 22.6543 8.60725 22.5235C8.85685 20.1912 10.3066 18.2625 12.3052 17.3181C11.7035 16.6502 11.3365 15.7669 11.3365 14.7992C11.3365 12.722 13.0265 11.0321 15.1037 11.0321C17.1808 11.0321 18.8708 12.7221 18.8708 14.7992C18.8708 15.7704 18.5013 16.6568 17.8956 17.3255C18.9257 17.8154 19.8214 18.569 20.4782 19.5142C21.1828 18.7656 22.0326 18.1685 22.9756 17.7593C22.1922 16.981 21.7062 15.9036 21.7062 14.7147C21.7062 12.3471 23.6324 10.4208 26.0001 10.4208C28.3678 10.4208 30.2941 12.3471 30.2941 14.7147C30.2941 15.9037 29.8081 16.981 29.0246 17.7594C29.9676 18.1686 30.8174 18.7657 31.522 19.5143C32.1787 18.5692 33.0744 17.8155 34.1045 17.3256C33.4989 16.6569 33.1294 15.7705 33.1294 14.7994C33.1294 12.7221 34.8194 11.0322 36.8965 11.0322C38.9737 11.0322 40.6637 12.7222 40.6637 14.7994C40.6637 15.767 40.2967 16.6502 39.695 17.3182C41.6934 18.2624 43.1433 20.191 43.3928 22.5235ZM36.8964 16.6915C37.9397 16.6915 38.7885 15.8427 38.7885 14.7994C38.7885 13.756 37.9397 12.9072 36.8964 12.9072C35.8531 12.9072 35.0043 13.756 35.0043 14.7994C35.0043 15.8427 35.8531 16.6915 36.8964 16.6915ZM26 17.1335C27.3338 17.1335 28.419 16.0485 28.419 14.7146C28.419 13.3808 27.3338 12.2956 26 12.2956C24.6663 12.2956 23.5811 13.3808 23.5811 14.7146C23.5812 16.0485 24.6664 17.1335 26 17.1335ZM15.1037 16.6915C16.147 16.6915 16.9958 15.8427 16.9958 14.7994C16.9958 13.756 16.147 12.9072 15.1037 12.9072C14.0603 12.9072 13.2115 13.756 13.2115 14.7994C13.2115 15.8427 14.0603 16.6915 15.1037 16.6915ZM19.0503 21.6858C19.124 21.5145 19.204 21.3461 19.2902 21.1808C18.5158 19.6013 16.8842 18.5663 15.1037 18.5663C13.0798 18.5663 11.3405 19.8508 10.7033 21.6858H19.0503ZM31.4593 23.0576C30.7494 20.6892 28.5608 19.0085 26 19.0085C23.4391 19.0085 21.2505 20.6892 20.5407 23.0576H31.4593ZM41.2968 21.6858C40.6595 19.8508 38.9203 18.5663 36.8964 18.5663C35.1159 18.5663 33.4844 19.6013 32.7099 21.1809C32.7961 21.3462 32.8761 21.5146 32.9498 21.6858H41.2968ZM48.8341 25.6461C48.8341 25.8948 48.9329 26.1332 49.1087 26.309C49.2845 26.4848 49.5229 26.5836 49.7716 26.5836C50.0202 26.5836 50.2587 26.4848 50.4345 26.309C50.6103 26.1332 50.7091 25.8948 50.7091 25.6461C50.7091 21.2767 49.5523 16.982 47.364 13.2262C47.2378 13.0134 47.0326 12.859 46.7931 12.7968C46.5536 12.7346 46.2993 12.7696 46.0855 12.8942C45.8717 13.0187 45.7158 13.2228 45.6518 13.4618C45.5879 13.7008 45.621 13.9555 45.744 14.1702C47.7656 17.6396 48.8341 21.6079 48.8341 25.6461ZM2.2285 26.5836C2.47714 26.5836 2.71559 26.4848 2.89141 26.309C3.06722 26.1332 3.166 25.8948 3.166 25.6461C3.166 20.6354 4.78963 15.9975 7.53662 12.2279L7.60389 14.1016C7.6083 14.2247 7.63691 14.3456 7.68807 14.4576C7.73924 14.5696 7.81196 14.6704 7.90208 14.7543C7.99221 14.8381 8.09797 14.9035 8.21333 14.9465C8.32869 14.9895 8.4514 15.0093 8.57443 15.0049C8.69747 15.0005 8.81843 14.9719 8.93041 14.9207C9.0424 14.8695 9.1432 14.7968 9.22708 14.7067C9.31096 14.6166 9.37626 14.5108 9.41927 14.3955C9.46227 14.2801 9.48213 14.1574 9.47771 14.0344L9.33475 10.0541C13.5043 5.60037 19.4322 2.81201 26 2.81201C30.8335 2.81201 35.5468 4.35455 39.4329 7.18217L37.5444 7.25002C37.2959 7.25894 37.0611 7.3662 36.8917 7.54822C36.7223 7.73023 36.6322 7.97208 36.6411 8.22057C36.65 8.46905 36.7573 8.70381 36.9393 8.87321C37.1213 9.04261 37.3631 9.13277 37.6116 9.12385L41.9942 8.96646C42.1364 8.96138 42.2755 8.92401 42.4011 8.85719C42.5266 8.79037 42.6354 8.69585 42.719 8.58078C42.8027 8.46572 42.859 8.33313 42.8838 8.19306C42.9086 8.05299 42.9012 7.90911 42.8622 7.77232L41.6589 3.5551C41.5907 3.31598 41.4303 3.11376 41.213 2.99292C40.9957 2.87208 40.7392 2.84252 40.5001 2.91074C40.261 2.97896 40.0588 3.13938 39.9379 3.3567C39.8171 3.57401 39.7875 3.83044 39.8558 4.06955L40.254 5.46514C36.1035 2.53357 31.114 0.937012 26 0.937012C18.8558 0.937012 12.4112 3.98588 7.8958 8.84951L3.90885 9.98705C3.66975 10.0553 3.46755 10.2157 3.34673 10.433C3.22591 10.6503 3.19637 10.9068 3.26461 11.1459C3.33284 11.385 3.49327 11.5872 3.71059 11.708C3.92791 11.8288 4.18432 11.8583 4.42342 11.7901L5.83025 11.3887C2.97252 15.4195 1.291 20.34 1.291 25.6461C1.291 25.8948 1.38977 26.1332 1.56558 26.309C1.7414 26.4848 1.97986 26.5836 2.2285 26.5836Z" fill="#D81320"/>
</svg>
