<svg width="60" height="60" viewBox="0 0 60 60" fill="none" xmlns="http://www.w3.org/2000/svg">
<g clip-path="url(#clip0_39_4570)">
<path fill-rule="evenodd" clip-rule="evenodd" d="M19.4996 45.4015C21.2853 41.4231 25.303 38.6538 29.9419 38.6538C34.5807 38.6538 38.5984 41.423 40.3841 45.4013C40.6554 46.0054 40.8728 46.6322 41.0336 47.2746C41.1908 47.9024 40.8093 48.5388 40.1815 48.696C39.5537 48.8532 38.9173 48.4717 38.7601 47.8439C38.6328 47.3356 38.4608 46.8396 38.2462 46.3616L38.246 46.3613C36.8268 43.1993 33.6299 40.9975 29.9419 40.9975C26.2539 40.9975 23.057 43.1993 21.6378 46.3613L21.6377 46.3614C21.4062 46.8772 21.2243 47.4139 21.0945 47.9642C20.9459 48.5941 20.3148 48.9843 19.6849 48.8357C19.0549 48.6871 18.6648 48.056 18.8133 47.4261C18.9773 46.731 19.2071 46.0531 19.4995 45.4016" fill="#D81320"/>
<path fill-rule="evenodd" clip-rule="evenodd" d="M28.1707 29.6889C25.8088 30.6672 24.6872 33.375 25.6656 35.7369C26.6439 38.0988 29.3517 39.2204 31.7135 38.242C34.0754 37.2637 35.197 34.5559 34.2187 32.1941C33.2404 29.8322 30.5326 28.7106 28.1707 29.6889ZM23.5003 36.6338C22.0266 33.076 23.7161 28.9972 27.2738 27.5236C30.8316 26.0499 34.9103 27.7394 36.384 31.2971C37.8577 34.8549 36.1682 38.9337 32.6104 40.4073C29.0527 41.881 24.9739 40.1915 23.5003 36.6338Z" fill="#D81320"/>
<path fill-rule="evenodd" clip-rule="evenodd" d="M2.75539 32.1357C1.77707 34.4976 2.89866 37.2053 5.26053 38.1836C7.62241 39.162 10.3302 38.0404 11.3085 35.6785C12.2868 33.3166 11.1652 30.6089 8.80335 29.6305C6.44147 28.6522 3.73371 29.7738 2.75539 32.1357ZM4.36362 40.349C0.805859 38.8753 -0.88363 34.7965 0.590043 31.2388C2.06372 27.681 6.1425 25.9915 9.70026 27.4652C13.258 28.9389 14.9475 33.0176 13.4738 36.5754C12.0002 40.1332 7.92138 41.8227 4.36362 40.349Z" fill="#D81320"/>
<path fill-rule="evenodd" clip-rule="evenodd" d="M52.9688 29.2788C50.4123 29.2788 48.3399 31.3512 48.3399 33.9077C48.3399 36.4642 50.4123 38.5366 52.9688 38.5366C55.5253 38.5366 57.5977 36.4642 57.5977 33.9077C57.5977 31.3512 55.5253 29.2788 52.9688 29.2788ZM45.9961 33.9077C45.9961 30.0568 49.1179 26.9351 52.9688 26.9351C56.8197 26.9351 59.9414 30.0568 59.9414 33.9077C59.9414 37.7586 56.8197 40.8804 52.9688 40.8804C49.1179 40.8804 45.9961 37.7586 45.9961 33.9077Z" fill="#D81320"/>
<path fill-rule="evenodd" clip-rule="evenodd" d="M30 0C30.372 0 30.7219 0.17662 30.9428 0.475909L34.1063 4.76144L39.1596 6.44577C39.5125 6.5634 39.7886 6.84159 39.9035 7.19538C40.0185 7.54917 39.9586 7.93652 39.7423 8.23912L36.6441 12.5721L36.6038 17.8985C36.601 18.2705 36.4217 18.6191 36.1208 18.8377C35.8198 19.0564 35.4329 19.1192 35.0783 19.0069L30 17.3993L24.9217 19.0069C24.567 19.1192 24.1801 19.0564 23.8792 18.8377C23.5782 18.6191 23.399 18.2705 23.3962 17.8985L23.3559 12.5721L20.2577 8.23912C20.0413 7.93652 19.9815 7.54917 20.0964 7.19538C20.2114 6.84159 20.4875 6.5634 20.8404 6.44577L25.8937 4.76144L29.0572 0.475909C29.2781 0.17662 29.628 0 30 0ZM30 3.14509L27.559 6.45185C27.4157 6.64608 27.2158 6.79129 26.9868 6.86763L23.0876 8.16728L25.4782 11.5107C25.6186 11.707 25.6949 11.942 25.6967 12.1834L25.7278 16.2933L29.6463 15.0528C29.8765 14.98 30.1235 14.98 30.3537 15.0528L34.2721 16.2933L34.3032 12.1834C34.3051 11.942 34.3814 11.707 34.5218 11.5107L36.9124 8.16728L33.0132 6.86763C32.7842 6.79129 32.5843 6.64608 32.4409 6.45185L30 3.14509ZM9.08197 6.02951C9.45397 6.0295 9.80388 6.20612 10.0248 6.50542L12.8499 10.3326L17.3627 11.8367C17.7156 11.9543 17.9917 12.2325 18.1066 12.5863C18.2216 12.9401 18.1617 13.3275 17.9454 13.6301L15.1786 17.4996L15.1425 22.2563C15.1397 22.6283 14.9604 22.9768 14.6595 23.1954C14.3585 23.4141 13.9716 23.4769 13.617 23.3646L9.08198 21.929L4.54696 23.3646C4.19231 23.4769 3.80542 23.4141 3.50447 23.1954C3.20352 22.9768 3.02426 22.6282 3.02144 22.2562L2.98546 17.4996L0.218601 13.6301C0.00222801 13.3275 -0.0576211 12.9401 0.0573356 12.5863C0.172292 12.2325 0.448399 11.9543 0.801314 11.8367L5.31413 10.3326L8.13914 6.50543C8.36006 6.20614 8.70997 6.02951 9.08197 6.02951ZM50.918 6.02951C51.29 6.02951 51.6399 6.20614 51.8608 6.50543L54.6858 10.3326L59.1987 11.8367C59.5516 11.9543 59.8277 12.2325 59.9426 12.5863C60.0576 12.9401 59.9977 13.3275 59.7814 13.6301L57.0145 17.4996L56.9785 22.2562C56.9757 22.6282 56.7964 22.9768 56.4955 23.1954C56.1945 23.4141 55.8077 23.4769 55.453 23.3646L50.918 21.929L46.3828 23.3646C46.0282 23.4769 45.6413 23.4141 45.3404 23.1954C45.0394 22.9768 44.8602 22.6282 44.8573 22.2562L44.8214 17.4996L42.0546 13.6301C41.8382 13.3275 41.7784 12.9401 41.8933 12.5863C42.0083 12.2325 42.2844 11.9543 42.6373 11.8367L47.15 10.3326L49.9752 6.50542C50.1961 6.20612 50.546 6.0295 50.918 6.02951ZM50.918 9.17462L48.8154 12.023C48.672 12.2173 48.4721 12.3625 48.2431 12.4388L44.8845 13.5582L46.9437 16.4381C47.0841 16.6345 47.1604 16.8695 47.1622 17.1109L47.189 20.651L50.5643 19.5826C50.7945 19.5097 51.0415 19.5097 51.2717 19.5826L54.6468 20.651L54.6736 17.1109C54.6755 16.8695 54.7518 16.6345 54.8922 16.4381L56.9515 13.5582L53.5928 12.4388C53.3637 12.3625 53.1639 12.2173 53.0205 12.023L50.918 9.17462ZM9.082 9.17463L11.1846 12.023C11.328 12.2173 11.5279 12.3625 11.7569 12.4388L15.1155 13.5582L13.0563 16.4381C12.9159 16.6345 12.8396 16.8695 12.8377 17.1109L12.8109 20.651L9.43565 19.5826C9.2055 19.5097 8.95846 19.5097 8.72831 19.5826L5.35312 20.651L5.32634 17.1109C5.32451 16.8695 5.24817 16.6345 5.10775 16.4381L3.04851 13.5582L6.40718 12.4388C6.63622 12.3625 6.8361 12.2173 6.97948 12.023L9.082 9.17463ZM-2.22423e-05 45.6262C-2.22423e-05 41.7565 3.16134 38.595 7.03121 38.595C10.9011 38.595 14.0624 41.7566 14.0624 45.6262V45.9376H18.164C20.4222 45.9376 22.2655 47.7805 22.2655 50.0391C22.2655 50.6675 22.1229 51.2636 21.8684 51.7969H38.1314C37.8769 51.2637 37.7343 50.6676 37.7343 50.0392C37.7343 47.7806 39.5776 45.9377 41.8359 45.9377H45.9374V45.6263C45.9374 41.7569 49.0987 38.5951 52.9686 38.5951C56.8385 38.5951 59.9999 41.7565 59.9999 45.6263V58.828C59.9999 59.4752 59.4752 59.9999 58.828 59.9999H1.17185C0.524645 59.9999 -2.22423e-05 59.4752 -2.22423e-05 58.828V45.6262ZM41.8121 51.7969C41.8119 51.7969 41.8117 51.7969 41.8116 51.7969C40.8584 51.7838 40.0781 50.995 40.0781 50.0392C40.0781 49.0752 40.8719 48.2814 41.8359 48.2814H47.1093C47.7565 48.2814 48.2812 47.7568 48.2812 47.1095V45.6263C48.2812 43.0512 50.3933 40.9388 52.9686 40.9388C55.5441 40.9388 57.6561 43.0509 57.6561 45.6263V57.6561H48.2813V54.1407H50.0391C52.2976 54.1407 54.1406 52.2976 54.1406 50.0391V45.8912C54.1406 45.2439 53.616 44.7193 52.9688 44.7193C52.3216 44.7193 51.7969 45.2439 51.7969 45.8912V50.0391C51.7969 51.0032 51.0032 51.7969 50.0391 51.7969H41.8121ZM45.9375 54.1407H14.0624V57.6561H45.9375V54.1407ZM11.7187 57.6561V54.1407H9.96088C7.70235 54.1407 5.85933 52.2976 5.85933 50.0391V45.8912C5.85933 45.2439 6.384 44.7193 7.03121 44.7193C7.67842 44.7193 8.20308 45.2439 8.20308 45.8912V50.0391C8.20308 51.0032 8.99677 51.7969 9.96088 51.7969H18.1672C18.1702 51.7969 18.1732 51.7968 18.1761 51.7968C19.1347 51.7904 19.9218 50.9992 19.9218 50.0391C19.9218 49.0751 19.1279 48.2813 18.164 48.2813H12.8906C12.2433 48.2813 11.7187 47.7566 11.7187 47.1094V45.6262C11.7187 43.051 9.60661 40.9387 7.03121 40.9387C4.45579 40.9387 2.34373 43.0509 2.34373 45.6262V57.6561H11.7187Z" fill="#D81320"/>
</g>
<defs>
<clipPath id="clip0_39_4570">
<rect width="60" height="60" fill="white"/>
</clipPath>
</defs>
</svg>
