<svg width="60" height="70" viewBox="0 0 60 70" fill="none" xmlns="http://www.w3.org/2000/svg">
<path d="M59.8531 41.3011L54.5019 32.043C54.3771 31.827 54.1822 31.66 53.9494 31.5696L42.6512 27.1814C43.0109 25.9679 43.1933 24.7089 43.1926 23.4434C43.1926 16.177 37.2745 10.2653 30.0001 10.2653C22.7257 10.2653 16.8076 16.177 16.8076 23.4434C16.8069 24.7089 16.9893 25.9679 17.349 27.1814L6.0508 31.5696C5.81805 31.66 5.62314 31.827 5.49828 32.043L0.147094 41.3011C0.067958 41.4379 0.0193904 41.5902 0.00472392 41.7476C-0.00994259 41.9049 0.00963882 42.0636 0.0621246 42.2126C0.11461 42.3617 0.198759 42.4977 0.308796 42.6112C0.418833 42.7247 0.552155 42.8132 0.699615 42.8704L5.35113 44.6771V59.7565C5.35115 59.9774 5.41796 60.1931 5.54282 60.3753C5.66767 60.5576 5.84473 60.6979 6.0508 60.7779L29.6024 69.9254C29.8581 70.0249 30.1418 70.0249 30.3975 69.9254L53.9491 60.7779C54.1552 60.6979 54.3323 60.5576 54.4571 60.3753C54.582 60.1931 54.6488 59.9774 54.6488 59.7565V44.6771L59.3003 42.8704C59.4478 42.8131 59.581 42.7247 59.691 42.6112C59.801 42.4976 59.8851 42.3616 59.9376 42.2126C59.9902 42.0636 60.0099 41.9049 59.9953 41.7476C59.9808 41.5902 59.9322 41.4379 59.8531 41.3011ZM30.0002 12.4571C36.0648 12.4571 40.9986 17.3856 40.9986 23.4434C40.9986 29.5012 36.0647 34.4297 30.0002 34.4297C23.9358 34.4297 19.0019 29.5012 19.0019 23.4434C19.0019 17.3856 23.9357 12.4571 30.0002 12.4571ZM30.0002 36.6215C35.2276 36.6215 39.7546 33.5687 41.8884 29.1542L50.5465 32.5824L30.0002 40.5627L9.45383 32.5824L18.1119 29.1542C20.2458 33.5687 24.7728 36.6215 30.0002 36.6215ZM2.68699 41.2905L6.92806 33.953L28.4106 42.297L24.1695 49.6346L2.68699 41.2905ZM7.54559 45.5293L24.2516 52.0181C24.4959 52.1128 24.766 52.1172 25.0131 52.0304C25.2603 51.9436 25.4682 51.7713 25.5993 51.5446L28.9032 45.8285V67.3022L7.54559 59.0068V45.5293ZM52.4549 59.0068L31.0973 67.3022V45.8285L34.4012 51.5448C34.5323 51.7714 34.7402 51.9437 34.9873 52.0306C35.2345 52.1174 35.5046 52.113 35.7489 52.0182L52.4549 45.5294V59.0068ZM35.831 49.6346L31.5898 42.297L53.0724 33.953L57.3135 41.2905L35.831 49.6346ZM27.2706 30.562C28.03 30.562 28.7448 30.2659 29.283 29.7282L37.8354 21.1853C38.9466 20.0752 38.9466 18.2689 37.8352 17.1585C37.297 16.6208 36.5811 16.3246 35.8199 16.3246C35.0586 16.3246 34.3428 16.6208 33.8044 17.1585L27.509 23.4471L25.8288 21.3352C25.5628 20.9992 25.2239 20.728 24.8376 20.5419C24.4513 20.3558 24.0278 20.2597 23.599 20.2608C22.956 20.2619 22.3322 20.4796 21.8283 20.8786C20.5996 21.8546 20.3947 23.6472 21.3714 24.8745L24.951 29.3742C25.2156 29.7419 25.5639 30.0413 25.9672 30.2479C26.3706 30.4544 26.8173 30.5621 27.2706 30.562ZM23.1935 22.5942C23.3085 22.5022 23.4515 22.4521 23.5989 22.4525C23.7998 22.4525 23.9864 22.5423 24.1109 22.6988L26.5561 25.7725C26.6523 25.8933 26.7729 25.9925 26.9102 26.0636C27.0475 26.1346 27.1982 26.1759 27.3525 26.1847C27.5069 26.1935 27.6613 26.1696 27.8058 26.1146C27.9502 26.0596 28.0814 25.9748 28.1907 25.8656L35.3557 18.7083C35.4795 18.5845 35.6444 18.5164 35.8198 18.5164C35.9951 18.5164 36.1597 18.5846 36.2835 18.7082C36.4065 18.8313 36.4755 18.998 36.4756 19.1719C36.4756 19.3457 36.4066 19.5125 36.2837 19.6356L27.7315 28.1785C27.6714 28.2397 27.5996 28.2882 27.5204 28.3211C27.4411 28.3541 27.3561 28.3708 27.2703 28.3703C27.1637 28.3711 27.0586 28.3458 26.964 28.2967C26.8695 28.2476 26.7884 28.1761 26.7279 28.0885C26.715 28.0699 26.7014 28.0518 26.6873 28.0341L23.089 23.5108C22.9815 23.3753 22.9321 23.2028 22.9517 23.031C22.9713 22.8592 23.0582 22.7021 23.1935 22.5942ZM28.9032 6.22863V1.09589C28.9032 0.805242 29.0187 0.526498 29.2245 0.320979C29.4302 0.11546 29.7093 0 30.0002 0C30.2912 0 30.5703 0.11546 30.776 0.320979C30.9818 0.526498 31.0973 0.805242 31.0973 1.09589V6.22863C31.0973 6.51928 30.9818 6.79802 30.776 7.00354C30.5703 7.20906 30.2912 7.32452 30.0002 7.32452C29.7093 7.32452 29.4302 7.20906 29.2245 7.00354C29.0187 6.79802 28.9032 6.51928 28.9032 6.22863ZM17.8254 4.49356C17.68 4.24184 17.6405 3.9427 17.7159 3.66195C17.7912 3.3812 17.9751 3.14183 18.227 2.99651C18.479 2.85118 18.7785 2.8118 19.0596 2.88704C19.3406 2.96227 19.5803 3.14595 19.7257 3.39767L22.2948 7.84274C22.4403 8.09445 22.4797 8.39359 22.4044 8.67435C22.3291 8.9551 22.1452 9.19446 21.8932 9.33979C21.6412 9.48511 21.3418 9.52449 21.0607 9.44926C20.7797 9.37402 20.54 9.19034 20.3946 8.93863L17.8254 4.49356ZM9.53104 11.4719C9.60305 11.3473 9.69895 11.238 9.81324 11.1504C9.92754 11.0627 10.058 10.9985 10.1972 10.9612C10.3363 10.924 10.4815 10.9145 10.6243 10.9333C10.7672 10.9521 10.9049 10.9988 11.0297 11.0708L15.4796 13.6371C15.7295 13.7835 15.9113 14.0226 15.9854 14.3024C16.0594 14.5822 16.0197 14.8799 15.8748 15.1305C15.73 15.3811 15.4918 15.5643 15.2122 15.6401C14.9326 15.7159 14.6343 15.6782 14.3825 15.5352L9.93258 12.9689C9.6806 12.8236 9.49674 12.5842 9.42144 12.3035C9.34614 12.0227 9.38556 11.7236 9.53104 11.4719ZM6.24252 23.1549C6.24252 22.8643 6.3581 22.5855 6.56385 22.38C6.76959 22.1745 7.04864 22.059 7.33961 22.059H12.4778C13.0838 22.059 13.5749 22.5497 13.5749 23.1549C13.5749 23.7601 13.0838 24.2508 12.4778 24.2508H7.33961C7.04864 24.2508 6.76959 24.1353 6.56385 23.9298C6.3581 23.7243 6.24252 23.4456 6.24252 23.1549ZM37.6283 8.13109L40.1974 3.68603C40.2694 3.56137 40.3653 3.45211 40.4796 3.36449C40.5939 3.27686 40.7244 3.21259 40.8635 3.17534C41.0027 3.13809 41.1479 3.1286 41.2907 3.1474C41.4335 3.16621 41.5713 3.21294 41.696 3.28493C41.8208 3.35688 41.9302 3.45267 42.0179 3.56684C42.1056 3.68101 42.1699 3.81132 42.2072 3.95032C42.2445 4.08933 42.2541 4.23432 42.2353 4.377C42.2165 4.51969 42.1697 4.65728 42.0977 4.78192L39.5285 9.22698C39.4564 9.35165 39.3605 9.46093 39.2462 9.54857C39.1319 9.6362 39.0015 9.70048 38.8623 9.73773C38.7231 9.77498 38.5779 9.78447 38.4351 9.76565C38.2922 9.74684 38.1545 9.70009 38.0297 9.62808C37.7777 9.48273 37.5939 9.24336 37.5186 8.96262C37.4434 8.68188 37.4828 8.38278 37.6283 8.13109ZM43.8307 15.6337C43.6852 15.382 43.6458 15.0829 43.7211 14.8021C43.7964 14.5214 43.9803 14.282 44.2322 14.1367L48.6822 11.5704C48.934 11.4274 49.2323 11.3897 49.5118 11.4655C49.7914 11.5413 50.0296 11.7245 50.1745 11.9751C50.3194 12.2257 50.3591 12.5234 50.285 12.8032C50.211 13.083 50.0292 13.3221 49.7792 13.4685L45.3293 16.0348C45.2046 16.1068 45.0668 16.1536 44.924 16.1724C44.7811 16.1912 44.636 16.1817 44.4968 16.1445C44.3576 16.1072 44.2271 16.0429 44.1129 15.9553C43.9986 15.8677 43.9027 15.7584 43.8307 15.6337ZM46.9452 22.6359H52.0834C52.6894 22.6359 53.1805 23.1266 53.1805 23.7318C53.1805 24.337 52.6894 24.8277 52.0834 24.8277H46.9452C46.6542 24.8277 46.3752 24.7122 46.1694 24.5067C45.9637 24.3012 45.8481 24.0224 45.8481 23.7318C45.8481 23.4411 45.9637 23.1624 46.1694 22.9569C46.3752 22.7513 46.6542 22.6359 46.9452 22.6359Z" fill="#D81320"/>
</svg>
