<svg width="12" height="12" viewBox="0 0 12 12" fill="none" xmlns="http://www.w3.org/2000/svg">
<path d="M6.0002 11.8332C6.16572 11.8342 6.32778 11.7858 6.46571 11.6943C6.60364 11.6028 6.7112 11.4723 6.77467 11.3195C6.83815 11.1666 6.85466 10.9983 6.8221 10.836C6.78954 10.6737 6.70939 10.5248 6.59187 10.4082L2.1752 5.9999L6.59187 1.59157C6.72839 1.43215 6.79973 1.22709 6.79162 1.01736C6.78352 0.807626 6.69658 0.608676 6.54817 0.460264C6.39976 0.311852 6.20081 0.224909 5.99108 0.216808C5.78135 0.208707 5.57628 0.280045 5.41687 0.416567L0.416865 5.41657C0.261655 5.5727 0.174538 5.78391 0.174538 6.00407C0.174538 6.22422 0.261655 6.43543 0.416865 6.59157L5.41687 11.5916C5.57208 11.7455 5.78158 11.8323 6.0002 11.8332Z" fill="#D81320"/>
<path d="M11.0002 11.8333C11.1657 11.8342 11.3278 11.7859 11.4657 11.6944C11.6036 11.6029 11.7112 11.4724 11.7747 11.3195C11.8381 11.1667 11.8547 10.9983 11.8221 10.8361C11.7895 10.6738 11.7094 10.5248 11.5919 10.4083L7.1752 5.99995L11.5919 1.59162C11.7488 1.4347 11.8369 1.22187 11.8369 0.999951C11.8369 0.778033 11.7488 0.565204 11.5919 0.408284C11.4349 0.251365 11.2221 0.163208 11.0002 0.163208C10.7783 0.163208 10.5655 0.251365 10.4085 0.408284L5.40853 5.40829C5.25332 5.56442 5.16621 5.77563 5.16621 5.99579C5.16621 6.21594 5.25332 6.42715 5.40853 6.58328L10.4085 11.5833C10.4857 11.662 10.5777 11.7247 10.6793 11.7676C10.7809 11.8105 10.8899 11.8328 11.0002 11.8333Z" fill="#D81320"/>
</svg>
