<svg width="48" height="48" viewBox="0 0 48 48" fill="none" xmlns="http://www.w3.org/2000/svg">
<g clip-path="url(#clip0_309_89)">
<path d="M39.002 36C38.8567 36.0003 38.7131 35.9688 38.5811 35.9079C38.4492 35.8469 38.3321 35.7579 38.2381 35.6471C38.144 35.5364 38.0753 35.4064 38.0366 35.2663C37.9979 35.1262 37.9902 34.9794 38.014 34.836L39.554 25.556C39.6561 24.9568 39.575 24.3407 39.3213 23.7884C39.0676 23.236 38.6531 22.773 38.132 22.46L29.434 17.362C29.2054 17.2273 29.0394 17.0076 28.9724 16.7509C28.9053 16.4942 28.9425 16.2213 29.076 15.992C29.2115 15.7642 29.4312 15.599 29.6876 15.532C29.944 15.465 30.2164 15.5016 30.446 15.634L39.148 20.734C40.0174 21.2537 40.7095 22.0237 41.1339 22.9434C41.5582 23.863 41.6949 24.8894 41.526 25.888L39.986 35.162C39.9477 35.3956 39.8278 35.6079 39.6476 35.7614C39.4674 35.9148 39.2387 35.9994 39.002 36ZM8.99801 36C8.76165 35.9994 8.53314 35.9152 8.35301 35.7621C8.17288 35.6091 8.05278 35.3972 8.01401 35.164L6.47401 25.884C6.30613 24.8868 6.44311 23.8621 6.86702 22.944C7.29094 22.0258 7.98207 21.257 8.85001 20.738L17.636 15.578C17.7493 15.502 17.8769 15.45 18.0111 15.4252C18.1452 15.4003 18.283 15.4032 18.416 15.4336C18.549 15.464 18.6743 15.5213 18.7843 15.6019C18.8944 15.6826 18.9867 15.7849 19.0557 15.9025C19.1247 16.0202 19.169 16.1507 19.1856 16.2861C19.2023 16.4215 19.1911 16.5589 19.1528 16.6898C19.1144 16.8207 19.0496 16.9424 18.9625 17.0473C18.8753 17.1522 18.7676 17.2383 18.646 17.3L9.86401 22.46C9.34456 22.773 8.93144 23.2352 8.67851 23.7864C8.42557 24.3375 8.34455 24.9521 8.44601 25.55L9.98601 34.836C10.0098 34.9794 10.0021 35.1262 9.96345 35.2663C9.92475 35.4064 9.85599 35.5364 9.76195 35.6471C9.6679 35.7579 9.55084 35.8469 9.4189 35.9079C9.28697 35.9688 9.14334 36.0003 8.99801 36Z" fill="#ffffff"/>
<path d="M23.992 47.9999C23.8462 47.9993 23.7023 47.9673 23.57 47.9059L12.578 42.7979C12.4054 42.7176 12.2593 42.5896 12.157 42.4291C12.0546 42.2686 12.0001 42.0823 12 41.8919V30.1059C12.0003 29.9381 12.0427 29.7731 12.1235 29.6261C12.2042 29.479 12.3207 29.3546 12.4621 29.2644C12.6036 29.1742 12.7654 29.121 12.9328 29.1097C13.1002 29.0984 13.2677 29.1294 13.42 29.1999L24.412 34.3079C24.5846 34.3882 24.7307 34.5162 24.833 34.6767C24.9354 34.8371 24.9899 35.0235 24.99 35.2139V46.9999C24.99 47.2648 24.8849 47.5188 24.6978 47.7063C24.5107 47.8938 24.2569 47.9994 23.992 47.9999ZM14 41.2539L22.992 45.4339V35.8539L14 31.6739V41.2539Z" fill="#ffffff"/>
<path d="M24.0081 48C23.8766 48.0005 23.7463 47.975 23.6248 47.9249C23.5032 47.8749 23.3927 47.8012 23.2998 47.7083C23.2068 47.6153 23.1332 47.5048 23.0831 47.3833C23.033 47.2617 23.0075 47.1314 23.0081 47V35.214C23.0082 35.0236 23.0626 34.8372 23.165 34.6767C23.2674 34.5162 23.4135 34.3883 23.5861 34.308L34.5781 29.2C34.7305 29.1278 34.8987 29.0956 35.0669 29.1062C35.2352 29.1169 35.398 29.1701 35.5401 29.2608C35.6822 29.3515 35.799 29.4769 35.8794 29.625C35.9599 29.7732 36.0014 29.9394 36.0001 30.108V41.894C36 42.0843 35.9455 42.2707 35.8431 42.4312C35.7407 42.5917 35.5947 42.7196 35.4221 42.8L24.4301 47.908C24.2973 47.9675 24.1536 47.9989 24.0081 48ZM25.0081 35.854V45.434L34.0001 41.254V31.674L25.0081 35.854Z" fill="#ffffff"/>
<path d="M35 31.1079C34.8542 31.1081 34.71 31.076 34.578 31.0139L24.008 26.1019L13.42 31.0139C13.3012 31.07 13.1724 31.1019 13.0412 31.1077C12.9099 31.1136 12.7788 31.0934 12.6554 31.0481C12.5321 31.0029 12.4189 30.9337 12.3225 30.8444C12.2262 30.755 12.1485 30.6475 12.094 30.5279C12.0388 30.409 12.0076 30.2803 12.0021 30.1492C11.9966 30.0182 12.017 29.8873 12.0622 29.7642C12.1073 29.641 12.1763 29.528 12.2651 29.4315C12.354 29.335 12.461 29.257 12.58 29.2019L23.588 24.0939C23.7199 24.0327 23.8636 24.001 24.009 24.001C24.1545 24.001 24.2981 24.0327 24.43 24.0939L35.422 29.2019C35.6281 29.2982 35.7952 29.4618 35.8957 29.6658C35.9963 29.8698 36.0243 30.102 35.9751 30.3241C35.926 30.5462 35.8026 30.7448 35.6253 30.8873C35.448 31.0298 35.2275 31.1076 35 31.1079Z" fill="#ffffff"/>
<path d="M30 38C29.7348 38 29.4804 37.8946 29.2929 37.7071C29.1054 37.5196 29 37.2652 29 37V33.08L18.69 28.162C18.4508 28.048 18.2667 27.8436 18.1781 27.5938C18.0896 27.344 18.104 27.0692 18.218 26.83C18.332 26.5908 18.5364 26.4067 18.7862 26.3181C19.036 26.2296 19.3108 26.244 19.55 26.358L30.364 31.514C30.5501 31.5876 30.71 31.715 30.8233 31.88C30.9366 32.0449 30.9981 32.2399 31 32.44V37C31 37.2652 30.8946 37.5196 30.7071 37.7071C30.5196 37.8946 30.2652 38 30 38ZM7.138 16H5.138C3.484 16 2.138 14.654 2.138 13V9C2.138 7.346 3.484 6 5.138 6H7.138C8.792 6 10.138 7.346 10.138 9V13C10.138 14.654 8.792 16 7.138 16ZM5.138 8C4.588 8 4.138 8.45 4.138 9V13C4.138 13.55 4.588 14 5.138 14H7.138C7.688 14 8.138 13.55 8.138 13V9C8.138 8.45 7.688 8 7.138 8H5.138ZM11 2H1C0.734784 2 0.48043 1.89464 0.292893 1.70711C0.105357 1.51957 0 1.26522 0 1C0 0.734784 0.105357 0.48043 0.292893 0.292893C0.48043 0.105357 0.734784 0 1 0L11 0C11.2652 0 11.5196 0.105357 11.7071 0.292893C11.8946 0.48043 12 0.734784 12 1C12 1.26522 11.8946 1.51957 11.7071 1.70711C11.5196 1.89464 11.2652 2 11 2Z" fill="#ffffff"/>
<path d="M6 8C5.73478 8 5.48043 7.89464 5.29289 7.70711C5.10536 7.51957 5 7.26522 5 7V1C5 0.734784 5.10536 0.48043 5.29289 0.292893C5.48043 0.105357 5.73478 0 6 0C6.26522 0 6.51957 0.105357 6.70711 0.292893C6.89464 0.48043 7 0.734784 7 1V7C7 7.26522 6.89464 7.51957 6.70711 7.70711C6.51957 7.89464 6.26522 8 6 8ZM43.138 16H41.138C39.484 16 38.138 14.654 38.138 13V9C38.138 7.346 39.484 6 41.138 6H43.138C44.792 6 46.138 7.346 46.138 9V13C46.138 14.654 44.792 16 43.138 16ZM41.138 8C40.588 8 40.138 8.45 40.138 9V13C40.138 13.55 40.588 14 41.138 14H43.138C43.688 14 44.138 13.55 44.138 13V9C44.138 8.45 43.688 8 43.138 8H41.138ZM47 2H37C36.7348 2 36.4804 1.89464 36.2929 1.70711C36.1054 1.51957 36 1.26522 36 1C36 0.734784 36.1054 0.48043 36.2929 0.292893C36.4804 0.105357 36.7348 0 37 0L47 0C47.2652 0 47.5196 0.105357 47.7071 0.292893C47.8946 0.48043 48 0.734784 48 1C48 1.26522 47.8946 1.51957 47.7071 1.70711C47.5196 1.89464 47.2652 2 47 2Z" fill="#ffffff"/>
<path d="M41.9999 8C41.7347 8 41.4803 7.89464 41.2928 7.70711C41.1052 7.51957 40.9999 7.26522 40.9999 7V1C40.9999 0.734784 41.1052 0.48043 41.2928 0.292893C41.4803 0.105357 41.7347 0 41.9999 0C42.2651 0 42.5195 0.105357 42.707 0.292893C42.8945 0.48043 42.9999 0.734784 42.9999 1V7C42.9999 7.26522 42.8945 7.51957 42.707 7.70711C42.5195 7.89464 42.2651 8 41.9999 8ZM24.1399 20C20.7879 20 17.7999 18.274 16.2019 15.494C15.9409 15.0408 15.5654 14.6642 15.1129 14.4019C14.6604 14.1397 14.1469 14.0011 13.6239 14H9.13989C8.87468 14 8.62032 13.8946 8.43279 13.7071C8.24525 13.5196 8.13989 13.2652 8.13989 13C8.13989 12.7348 8.24525 12.4804 8.43279 12.2929C8.62032 12.1054 8.87468 12 9.13989 12H13.6219C15.3959 12 17.0479 12.958 17.9359 14.496C18.5507 15.5605 19.4346 16.4445 20.4989 17.0596C21.5633 17.6746 22.7706 17.9989 23.9999 18C26.6359 18 28.9579 16.658 30.2039 14.498C30.6407 13.7398 31.2692 13.1099 32.0265 12.6714C32.7837 12.233 33.6429 12.0014 34.5179 12H37.9999V10H34.5179C33.6429 9.99859 32.7837 9.76703 32.0265 9.32857C31.2692 8.89011 30.6407 8.26017 30.2039 7.502C29.5882 6.43845 28.7041 5.55521 27.6399 4.94064C26.5757 4.32606 25.3688 4.0017 24.1399 4C21.5019 4 19.1799 5.342 17.9359 7.502C17.4988 8.25947 16.8705 8.88889 16.1137 9.32727C15.357 9.76565 14.4984 9.99763 13.6239 10H9.13989C8.87468 10 8.62032 9.89464 8.43279 9.70711C8.24525 9.51957 8.13989 9.26522 8.13989 9C8.13989 8.73478 8.24525 8.48043 8.43279 8.29289C8.62032 8.10536 8.87468 8 9.13989 8H13.6219C14.6819 8 15.6699 7.428 16.2019 6.504C16.9932 5.13589 18.13 3.9997 19.4986 3.20924C20.8672 2.41877 22.4194 2.00177 23.9999 2C27.3499 2 30.3379 3.726 31.9379 6.506C32.1989 6.95965 32.5747 7.33657 33.0276 7.59883C33.4805 7.8611 33.9945 7.99946 34.5179 8H38.9999C39.2651 8 39.5195 8.10536 39.707 8.29289C39.8945 8.48043 39.9999 8.73478 39.9999 9V13C39.9999 13.2652 39.8945 13.5196 39.707 13.7071C39.5195 13.8946 39.2651 14 38.9999 14H34.5179C33.4559 14 32.4679 14.572 31.9379 15.494C31.1469 16.8625 30.0101 17.9991 28.6415 18.7899C27.2729 19.5807 25.7205 19.998 24.1399 20Z" fill="#ffffff"/>
</g>
<defs>
<clipPath id="clip0_309_89">
<rect width="48" height="48" fill="white"/>
</clipPath>
</defs>
</svg>
