<svg width="50" height="50" viewBox="0 0 50 50" fill="none" xmlns="http://www.w3.org/2000/svg">
<g clip-path="url(#clip0_30_632)">
<path d="M24.2969 11.0156C24.0625 11.0156 23.9062 10.9375 23.75 10.7812C23.4375 10.4688 23.4375 10 23.75 9.6875L24.2188 9.21875C24.6094 8.75 24.6094 8.04688 24.2188 7.65625C23.8281 7.26563 23.125 7.26563 22.6562 7.65625L20.0781 10.2344C19.7656 10.5469 19.2969 10.5469 18.9844 10.2344C18.6719 9.92188 18.6719 9.45312 18.9844 9.14062L21.5625 6.5625C22.6562 5.54687 24.2969 5.54687 25.3125 6.5625C26.3281 7.57812 26.3281 9.21875 25.3125 10.3125L24.8438 10.7812C24.6875 10.9375 24.5312 11.0156 24.2969 11.0156ZM14.1406 9.84375C13.9063 9.84375 13.75 9.76562 13.5937 9.60938C13.2812 9.29688 13.2812 8.82812 13.5937 8.51562L14.375 7.73437C14.7656 7.26562 14.7656 6.5625 14.375 6.17188C13.9844 5.78125 13.2031 5.78125 12.8125 6.17188L9.92187 9.0625C9.60937 9.375 9.14062 9.375 8.82813 9.0625C8.51563 8.75 8.51563 8.28125 8.82813 7.96875L11.7187 5.07812C12.6562 4.14062 14.5312 4.14062 15.4687 5.07812C16.4844 6.09375 16.4844 7.73438 15.4687 8.82812L14.6875 9.60938C14.5312 9.76562 14.375 9.84375 14.1406 9.84375Z" fill="white"/>
<path d="M21.1719 23.0469C21.0156 23.0469 20.8594 22.9688 20.7031 22.8907C16.0156 19.7657 7.89062 15.1563 1.32812 12.5C1.09375 12.4219 0.859375 12.2657 0.625 12.0313C-0.234375 11.1719 -0.234375 9.84378 0.625 8.90628L0.703125 8.82815C1.95312 7.65628 3.67188 7.1094 5.46875 7.26565L24.2969 9.45315L31.4063 10.625C31.7969 10.7032 32.1094 11.0938 32.0312 11.4844C31.9531 11.875 31.5625 12.1875 31.1719 12.1094L24.0625 10.9375L5.3125 8.82815C3.98438 8.6719 2.73438 9.14065 1.71875 10C1.48438 10.3125 1.48438 10.7032 1.71875 10.9375C1.79688 11.0157 1.875 11.0157 1.95313 11.0938C8.51562 13.75 16.7969 18.4375 21.5625 21.6407C21.9531 21.875 22.0312 22.3438 21.7969 22.7344C21.6406 22.8907 21.4062 23.0469 21.1719 23.0469ZM40.625 31.0938C40.3906 31.0938 40.2344 31.0157 40.0781 30.8594C39.7656 30.5469 39.7656 30.0781 40.0781 29.7656L42.6562 27.1875C43.0469 26.7188 43.0469 26.0156 42.6562 25.625C42.2656 25.2344 41.5625 25.2344 41.0938 25.625L40.625 26.0938C40.3125 26.4063 39.8438 26.4063 39.5312 26.0938C39.2188 25.7813 39.2188 25.3125 39.5312 25L40 24.5313C41.0938 23.5157 42.7344 23.5157 43.75 24.5313C44.7656 25.5469 44.7656 27.1875 43.75 28.2813L41.1719 30.8594C41.0156 31.0157 40.8594 31.0938 40.625 31.0938ZM41.7969 41.1719C41.5625 41.1719 41.4062 41.0938 41.25 40.9375C40.9375 40.625 40.9375 40.1563 41.25 39.8438L44.0625 36.9531C44.4531 36.4844 44.4531 35.7813 44.0625 35.3906C43.6719 35 42.9688 35 42.5 35.3906L41.7188 36.1719C41.4063 36.4844 40.9375 36.4844 40.625 36.1719C40.3125 35.8594 40.3125 35.3907 40.625 35.0782L41.4062 34.2969C42.5 33.2813 44.1406 33.2813 45.1562 34.2969C46.1719 35.3125 46.1719 36.9532 45.1562 38.0469L42.3438 40.9375C42.1875 41.0938 42.0312 41.1719 41.7969 41.1719Z" fill="white"/>
<path d="M39.7656 49.7656C39.2188 49.7656 38.5938 49.5312 38.2031 49.1406C37.9688 48.9062 37.8125 48.6718 37.7344 48.4375C35 41.7968 30.3906 33.4375 27.1875 28.5937C26.9531 28.2031 27.0312 27.7343 27.4219 27.5C27.8125 27.2656 28.2812 27.3437 28.5156 27.7343C31.7969 32.6562 36.4844 41.0937 39.2188 47.8125C39.2969 47.8906 39.2969 47.9687 39.375 48.0468C39.6094 48.2812 40.0781 48.2812 40.3125 48.0468C41.25 47.1093 41.7188 45.7812 41.5625 44.4531L39.375 25.5468L38.2812 18.125C38.2031 17.7343 38.5156 17.2656 38.9062 17.2656C39.2969 17.1875 39.7656 17.5 39.7656 17.8906L40.8594 25.3125L43.0469 44.2187C43.2031 46.0156 42.5781 47.8125 41.3281 49.0625C40.9375 49.6093 40.3125 49.7656 39.7656 49.7656ZM11.0938 37.3437C10.9375 37.3437 10.7812 37.2656 10.625 37.1875L2.26563 31.5625C1.875 31.25 1.64062 30.7812 1.5625 30.3125C1.5625 29.8437 1.71875 29.4531 2.03125 29.0625L3.4375 27.6562C3.90625 27.1875 4.375 27.1875 4.76562 27.1875H4.92188L13.8281 29.375C14.2188 29.4531 14.5312 29.9218 14.375 30.3125C14.2969 30.7031 13.8281 31.0156 13.4375 30.8593L4.76562 28.8281H4.60938L3.20312 30.2343L11.5625 35.9375C11.9531 36.1718 12.0312 36.6406 11.7969 37.0312C11.5625 37.1875 11.3281 37.3437 11.0938 37.3437ZM19.9219 48.3593H19.6875C19.2188 48.2812 18.8281 48.0468 18.5938 47.6562L12.5 38.5937C12.2656 38.2031 12.3437 37.7343 12.7344 37.5C13.125 37.2656 13.5938 37.3437 13.8281 37.7343L19.9219 46.7187L21.25 45.3906L18.5938 36.0937C18.4375 35.7031 18.75 35.2343 19.1406 35.1562C19.5312 35.0781 20 35.3125 20.0781 35.7031L22.7344 45C22.8906 45.4687 22.7344 46.0937 22.2656 46.5625L20.8594 47.9687C20.7031 48.2031 20.3125 48.3593 19.9219 48.3593Z" fill="white"/>
<path d="M14.1404 38.6719C13.9061 38.6719 13.5936 38.6719 13.3592 38.5938C12.9686 38.5156 12.6561 38.125 12.7342 37.7344C12.8123 37.3438 13.2029 37.0312 13.5936 37.1094C15.2342 37.3438 17.9686 36.25 18.7498 35.4688L44.7654 11.7188C47.3436 9.21875 49.3748 3.98438 47.8123 2.34375C47.4217 1.95313 46.7967 1.71875 45.9373 1.79688C43.5936 1.79688 40.1561 3.4375 38.2811 5.3125L14.2186 30.7813C13.4373 31.5625 12.2654 34.1406 12.5779 35.8594C12.6561 36.25 12.3436 36.7188 11.9529 36.7188C11.5623 36.7969 11.0936 36.4844 11.0936 36.0938C10.7029 33.8281 12.1092 30.7813 13.2029 29.6875L37.2654 4.14062C39.4529 1.875 43.2811 0.15625 46.0154 0.078125H46.0936C47.3436 0.078125 48.3592 0.390625 49.0623 1.09375C51.5623 3.67188 48.9842 9.76562 46.0154 12.6562L19.9217 36.4844C18.9842 37.5 16.3279 38.6719 14.1404 38.6719Z" fill="white"/>
<path d="M44.375 8.59375C43.9844 8.59375 43.5938 8.28125 43.5938 7.89063C43.5156 7.1875 42.9688 6.71875 42.1875 6.64062H42.0312C41.5625 6.64062 41.25 6.32812 41.25 5.85938C41.25 5.39062 41.5625 5.07812 42.0312 5.07812H42.2656C43.9062 5.15625 45.0781 6.25 45.1562 7.73437C45.1562 8.20312 44.8438 8.59375 44.375 8.59375ZM10.7031 40.8594C10.1562 40.8594 9.60938 40.625 9.21875 40.2344C8.82813 39.8438 8.59375 39.375 8.59375 38.8281C8.59375 38.2812 8.82812 37.7344 9.14062 37.3438L13.5937 32.8906C14.2969 32.1875 15.7813 32.1875 16.4844 32.8906C16.875 33.2812 17.0312 33.75 17.0312 34.375C17.0312 35 16.7969 35.4688 16.4844 35.8594L12.0312 40.3125C11.7969 40.625 11.25 40.8594 10.7031 40.8594ZM15.1562 33.9063C15 33.9063 14.9219 33.9844 14.8438 34.0625L10.3906 38.5156C10.3125 38.5938 10.2344 38.75 10.2344 38.8281C10.2344 38.9844 10.3125 39.0625 10.3906 39.1406C10.625 39.375 10.8594 39.375 11.0156 39.2188L15.5469 34.6875C15.625 34.6094 15.7031 34.4531 15.7031 34.375C15.7031 34.2969 15.625 34.1406 15.5469 34.0625C15.3906 33.9062 15.2344 33.9063 15.1562 33.9063Z" fill="white"/>
</g>
<defs>
<clipPath id="clip0_30_632">
<rect width="50" height="50" fill="white"/>
</clipPath>
</defs>
</svg>
