<svg width="60" height="60" viewBox="0 0 60 60" fill="none" xmlns="http://www.w3.org/2000/svg">
<g clip-path="url(#clip0_99_2491)">
<path d="M29.1562 13.2188C28.875 13.2188 28.6875 13.125 28.5 12.9375C28.125 12.5625 28.125 12 28.5 11.625L29.0625 11.0625C29.5312 10.5 29.5312 9.65625 29.0625 9.1875C28.5938 8.71875 27.75 8.71875 27.1875 9.1875L24.0938 12.2813C23.7188 12.6563 23.1562 12.6563 22.7812 12.2813C22.4062 11.9063 22.4062 11.3438 22.7812 10.9688L25.875 7.875C27.1875 6.65625 29.1563 6.65625 30.375 7.875C31.5938 9.09375 31.5938 11.0625 30.375 12.375L29.8125 12.9375C29.625 13.125 29.4375 13.2188 29.1562 13.2188ZM16.9688 11.8125C16.6875 11.8125 16.5 11.7188 16.3125 11.5313C15.9375 11.1563 15.9375 10.5937 16.3125 10.2187L17.25 9.28125C17.7187 8.71875 17.7187 7.875 17.25 7.40625C16.7812 6.9375 15.8437 6.9375 15.375 7.40625L11.9062 10.875C11.5312 11.25 10.9688 11.25 10.5938 10.875C10.2188 10.5 10.2188 9.9375 10.5938 9.5625L14.0625 6.09375C15.1875 4.96875 17.4375 4.96875 18.5625 6.09375C19.7812 7.3125 19.7812 9.28125 18.5625 10.5938L17.625 11.5313C17.4375 11.7188 17.25 11.8125 16.9688 11.8125Z" fill="white"/>
<path d="M25.4062 27.6563C25.2188 27.6563 25.0312 27.5625 24.8438 27.4688C19.2188 23.7188 9.46875 18.1875 1.59375 15C1.3125 14.9063 1.03125 14.7188 0.75 14.4375C-0.28125 13.4063 -0.28125 11.8125 0.75 10.6875L0.84375 10.5938C2.34375 9.18751 4.40625 8.53126 6.5625 8.71876L29.1562 11.3438L37.6875 12.75C38.1563 12.8438 38.5312 13.3125 38.4375 13.7813C38.3438 14.25 37.875 14.625 37.4063 14.5313L28.875 13.125L6.375 10.5938C4.78125 10.4063 3.28125 10.9688 2.0625 12C1.78125 12.375 1.78125 12.8438 2.0625 13.125C2.15625 13.2188 2.25 13.2188 2.34375 13.3125C10.2188 16.5 20.1562 22.125 25.875 25.9688C26.3438 26.25 26.4375 26.8125 26.1562 27.2813C25.9688 27.4688 25.6875 27.6563 25.4062 27.6563ZM48.75 37.3125C48.4688 37.3125 48.2812 37.2188 48.0938 37.0313C47.7188 36.6563 47.7188 36.0938 48.0938 35.7188L51.1875 32.625C51.6562 32.0625 51.6562 31.2188 51.1875 30.75C50.7188 30.2813 49.875 30.2813 49.3125 30.75L48.75 31.3125C48.375 31.6875 47.8125 31.6875 47.4375 31.3125C47.0625 30.9375 47.0625 30.375 47.4375 30L48 29.4375C49.3125 28.2188 51.2812 28.2188 52.5 29.4375C53.7188 30.6563 53.7188 32.625 52.5 33.9375L49.4063 37.0313C49.2188 37.2188 49.0312 37.3125 48.75 37.3125ZM50.1562 49.4063C49.875 49.4063 49.6875 49.3125 49.5 49.125C49.125 48.75 49.125 48.1875 49.5 47.8125L52.875 44.3438C53.3438 43.7813 53.3438 42.9375 52.875 42.4688C52.4063 42 51.5625 42 51 42.4688L50.0625 43.4063C49.6875 43.7813 49.125 43.7813 48.75 43.4063C48.375 43.0313 48.375 42.4688 48.75 42.0938L49.6875 41.1563C51 39.9375 52.9688 39.9375 54.1875 41.1563C55.4062 42.375 55.4062 44.3438 54.1875 45.6563L50.8125 49.125C50.625 49.3125 50.4375 49.4063 50.1562 49.4063Z" fill="white"/>
<path d="M47.7188 59.7187C47.0625 59.7187 46.3125 59.4375 45.8438 58.9687C45.5625 58.6875 45.375 58.4062 45.2812 58.125C42 50.1562 36.4688 40.125 32.625 34.3125C32.3438 33.8437 32.4375 33.2812 32.9062 33C33.375 32.7187 33.9375 32.8125 34.2188 33.2812C38.1562 39.1875 43.7812 49.3125 47.0625 57.375C47.1562 57.4687 47.1562 57.5625 47.25 57.6562C47.5312 57.9375 48.0938 57.9375 48.375 57.6562C49.5 56.5312 50.0625 54.9375 49.875 53.3437L47.25 30.6562L45.9375 21.75C45.8438 21.2812 46.2188 20.7187 46.6875 20.7187C47.1562 20.625 47.7188 21 47.7188 21.4687L49.0312 30.375L51.6562 53.0625C51.8438 55.2187 51.0938 57.375 49.5938 58.875C49.125 59.5312 48.375 59.7187 47.7188 59.7187ZM13.3125 44.8125C13.125 44.8125 12.9375 44.7187 12.75 44.625L2.71875 37.875C2.25 37.5 1.96875 36.9375 1.875 36.375C1.875 35.8125 2.0625 35.3437 2.4375 34.875L4.125 33.1875C4.6875 32.625 5.25 32.625 5.71875 32.625H5.90625L16.5938 35.25C17.0625 35.3437 17.4375 35.9062 17.25 36.375C17.1562 36.8437 16.5938 37.2187 16.125 37.0312L5.71875 34.5937H5.53125L3.84375 36.2812L13.875 43.125C14.3438 43.4062 14.4375 43.9687 14.1562 44.4375C13.875 44.625 13.5938 44.8125 13.3125 44.8125ZM23.9062 58.0312H23.625C23.0625 57.9375 22.5938 57.6562 22.3125 57.1875L15 46.3125C14.7188 45.8437 14.8125 45.2812 15.2812 45C15.75 44.7187 16.3125 44.8125 16.5938 45.2812L23.9062 56.0625L25.5 54.4687L22.3125 43.3125C22.125 42.8437 22.5 42.2812 22.9688 42.1875C23.4375 42.0937 24 42.375 24.0938 42.8437L27.2812 54C27.4688 54.5625 27.2812 55.3125 26.7188 55.875L25.0312 57.5625C24.8438 57.8437 24.375 58.0312 23.9062 58.0312Z" fill="white"/>
<path d="M16.9687 46.4062C16.6875 46.4062 16.3125 46.4063 16.0312 46.3125C15.5625 46.2188 15.1875 45.75 15.2812 45.2812C15.375 44.8125 15.8437 44.4375 16.3125 44.5312C18.2812 44.8125 21.5625 43.5 22.5 42.5625L53.7187 14.0625C56.8125 11.0625 59.25 4.78125 57.375 2.8125C56.9062 2.34375 56.1562 2.0625 55.125 2.15625C52.3125 2.15625 48.1875 4.125 45.9375 6.375L17.0625 36.9375C16.125 37.875 14.7187 40.9688 15.0937 43.0313C15.1875 43.5 14.8125 44.0625 14.3437 44.0625C13.875 44.1562 13.3125 43.7813 13.3125 43.3125C12.8437 40.5938 14.5312 36.9375 15.8437 35.625L44.7187 4.96875C47.3437 2.25 51.9375 0.1875 55.2187 0.09375H55.3125C56.8125 0.09375 58.0312 0.46875 58.875 1.3125C61.875 4.40625 58.7812 11.7188 55.2187 15.1875L23.9062 43.7813C22.7812 45 19.5937 46.4062 16.9687 46.4062Z" fill="white"/>
<path d="M53.25 10.3125C52.7812 10.3125 52.3125 9.9375 52.3125 9.46875C52.2188 8.625 51.5625 8.0625 50.625 7.96875H50.4375C49.875 7.96875 49.5 7.59375 49.5 7.03125C49.5 6.46875 49.875 6.09375 50.4375 6.09375H50.7188C52.6875 6.1875 54.0938 7.5 54.1875 9.28125C54.1875 9.84375 53.8125 10.3125 53.25 10.3125ZM12.8437 49.0312C12.1875 49.0312 11.5313 48.75 11.0625 48.2812C10.5938 47.8125 10.3125 47.25 10.3125 46.5938C10.3125 45.9375 10.5937 45.2812 10.9687 44.8125L16.3125 39.4688C17.1562 38.625 18.9375 38.625 19.7812 39.4688C20.25 39.9375 20.4375 40.5 20.4375 41.25C20.4375 42 20.1562 42.5625 19.7812 43.0312L14.4375 48.375C14.1562 48.75 13.5 49.0312 12.8437 49.0312ZM18.1875 40.6875C18 40.6875 17.9062 40.7812 17.8125 40.875L12.4688 46.2188C12.375 46.3125 12.2813 46.5 12.2813 46.5938C12.2813 46.7812 12.375 46.875 12.4688 46.9688C12.75 47.25 13.0313 47.25 13.2188 47.0625L18.6562 41.625C18.75 41.5312 18.8438 41.3438 18.8438 41.25C18.8438 41.1562 18.75 40.9688 18.6562 40.875C18.4688 40.6875 18.2812 40.6875 18.1875 40.6875Z" fill="white"/>
</g>
<defs>
<clipPath id="clip0_99_2491">
<rect width="60" height="60" fill="white"/>
</clipPath>
</defs>
</svg>
