<svg width="39" height="46" viewBox="0 0 39 46" fill="none" xmlns="http://www.w3.org/2000/svg">
<path d="M26.7729 31.397C26.5739 31.397 26.383 31.3183 26.2419 31.178L22.7469 27.683C21.7239 26.66 21.2199 25.505 21.2514 24.2495C21.3084 21.9065 23.2509 20.1185 23.3334 20.0435C23.4743 19.915 23.659 19.8452 23.8497 19.8482C24.0403 19.8513 24.2227 19.927 24.3594 20.06L33.0219 28.463C33.1629 28.6018 33.2434 28.7908 33.2457 28.9887C33.248 29.1866 33.172 29.3773 33.0342 29.5194C32.8965 29.6615 32.7082 29.7434 32.5103 29.7473C32.3124 29.7511 32.1211 29.6766 31.9779 29.54L23.8674 21.674C23.4069 22.241 22.7739 23.213 22.7499 24.2945C22.7319 25.133 23.0769 25.8935 23.8074 26.624L27.3024 30.119C27.4064 30.2239 27.4772 30.3573 27.5057 30.5023C27.5342 30.6473 27.5192 30.7975 27.4626 30.9341C27.4061 31.0706 27.3104 31.1874 27.1877 31.2697C27.065 31.3521 26.9207 31.3964 26.7729 31.397Z" fill="white"/>
<path d="M27.406 37.5665C27.3007 37.5666 27.1966 37.5444 27.1004 37.5015C27.0043 37.4586 26.9183 37.3959 26.848 37.3175C25.9991 36.3774 25.4699 35.1925 25.3362 33.933C25.2025 32.6734 25.4713 31.4038 26.104 30.3065C26.1533 30.2213 26.219 30.1467 26.2972 30.0868C26.3754 30.027 26.4646 29.9832 26.5597 29.9578C26.6548 29.9325 26.754 29.9261 26.8516 29.9391C26.9492 29.9521 27.0433 29.9842 27.1285 30.0335C27.2137 30.0828 27.2883 30.1485 27.3482 30.2267C27.408 30.3049 27.4518 30.3941 27.4772 30.4892C27.5025 30.5843 27.5089 30.6835 27.4959 30.7811C27.4829 30.8787 27.4508 30.9728 27.4015 31.058C26.9275 31.8809 26.7264 32.8329 26.8272 33.7772C26.928 34.7216 27.3254 35.6097 27.9625 36.314C28.0597 36.4217 28.1236 36.5552 28.1464 36.6985C28.1692 36.8417 28.15 36.9885 28.0911 37.121C28.0322 37.2536 27.9362 37.3662 27.8146 37.4453C27.693 37.5243 27.551 37.5664 27.406 37.5665ZM23.5 36.5H10.75C9.7558 36.4988 8.80267 36.1033 8.09966 35.4003C7.39666 34.6973 7.00119 33.7442 7 32.75V31.25C7 31.0511 7.07902 30.8603 7.21967 30.7197C7.36032 30.579 7.55109 30.5 7.75 30.5C7.94891 30.5 8.13968 30.579 8.28033 30.7197C8.42098 30.8603 8.5 31.0511 8.5 31.25V32.75C8.5 33.9905 9.5095 35 10.75 35H23.5C23.6989 35 23.8897 35.079 24.0303 35.2197C24.171 35.3603 24.25 35.5511 24.25 35.75C24.25 35.9489 24.171 36.1397 24.0303 36.2803C23.8897 36.421 23.6989 36.5 23.5 36.5ZM27.25 21.5C27.0511 21.5 26.8603 21.421 26.7197 21.2803C26.579 21.1397 26.5 20.9489 26.5 20.75V4.25C26.5 3.0095 25.4905 2 24.25 2H10.75C9.5095 2 8.5 3.0095 8.5 4.25V5.75C8.5 5.94891 8.42098 6.13968 8.28033 6.28033C8.13968 6.42098 7.94891 6.5 7.75 6.5C7.55109 6.5 7.36032 6.42098 7.21967 6.28033C7.07902 6.13968 7 5.94891 7 5.75V4.25C7 2.183 8.683 0.5 10.75 0.5H24.25C26.317 0.5 28 2.183 28 4.25V20.75C28 20.9489 27.921 21.1397 27.7803 21.2803C27.6397 21.421 27.4489 21.5 27.25 21.5ZM24.25 45.5C24.0511 45.5 23.8603 45.421 23.7197 45.2803C23.579 45.1397 23.5 44.9489 23.5 44.75V39.9725C22.8005 39.6075 22.1607 39.1381 21.6025 38.5805C21.4652 38.4397 21.3887 38.2505 21.3895 38.0538C21.3903 37.857 21.4684 37.6685 21.6069 37.5288C21.7454 37.3891 21.9333 37.3095 22.13 37.307C22.3267 37.3045 22.5165 37.3794 22.6585 37.5155C23.221 38.075 23.8585 38.51 24.55 38.8115C24.823 38.9315 25 39.2015 25 39.4985V44.7485C25.0002 44.8471 24.9809 44.9448 24.9433 45.036C24.9057 45.1271 24.8505 45.21 24.7809 45.2798C24.7112 45.3496 24.6285 45.405 24.5374 45.4428C24.4463 45.4805 24.3486 45.5 24.25 45.5Z" fill="white"/>
<path d="M37.75 45.5C37.5511 45.5 37.3603 45.421 37.2197 45.2803C37.079 45.1397 37 44.9489 37 44.75V28.157C37 27.521 36.61 26.564 36.1645 26.1125L26.875 16.7795C26.8036 16.7101 26.7467 16.6272 26.7077 16.5356C26.6687 16.444 26.6483 16.3455 26.6477 16.2459C26.6471 16.1464 26.6664 16.0477 26.7044 15.9556C26.7423 15.8636 26.7982 15.78 26.8689 15.7098C26.9395 15.6396 27.0233 15.5841 27.1156 15.5467C27.2079 15.5092 27.3067 15.4905 27.4062 15.4917C27.5058 15.4928 27.6041 15.5138 27.6955 15.5533C27.7869 15.5929 27.8695 15.6502 27.9385 15.722L37.231 25.058C37.9555 25.7945 38.5 27.125 38.5 28.157V44.75C38.5 44.9489 38.421 45.1397 38.2803 45.2803C38.1397 45.421 37.9489 45.5 37.75 45.5ZM18.25 33.5H16.75C16.5511 33.5 16.3603 33.421 16.2197 33.2803C16.079 33.1397 16 32.9489 16 32.75C16 32.5511 16.079 32.3603 16.2197 32.2197C16.3603 32.079 16.5511 32 16.75 32H18.25C18.4489 32 18.6397 32.079 18.7803 32.2197C18.921 32.3603 19 32.5511 19 32.75C19 32.9489 18.921 33.1397 18.7803 33.2803C18.6397 33.421 18.4489 33.5 18.25 33.5ZM19.75 5H15.25C15.0511 5 14.8603 4.92098 14.7197 4.78033C14.579 4.63968 14.5 4.44891 14.5 4.25C14.5 4.05109 14.579 3.86032 14.7197 3.71967C14.8603 3.57902 15.0511 3.5 15.25 3.5H19.75C19.9489 3.5 20.1397 3.57902 20.2803 3.71967C20.421 3.86032 20.5 4.05109 20.5 4.25C20.5 4.44891 20.421 4.63968 20.2803 4.78033C20.1397 4.92098 19.9489 5 19.75 5ZM7.75 29C7.64471 29.0001 7.54059 28.9779 7.44443 28.935C7.34828 28.8921 7.26226 28.8294 7.192 28.751C6.9085 28.4375 0.25 20.972 0.25 15.242C0.25 11.249 3.6145 8 7.75 8C11.8855 8 15.25 11.249 15.25 15.242C15.25 20.972 8.5915 28.436 8.308 28.751C8.23774 28.8294 8.15172 28.8921 8.05557 28.935C7.95941 28.9779 7.85529 29.0001 7.75 29ZM7.75 9.5C4.441 9.5 1.75 12.0755 1.75 15.242C1.75 19.4975 6.1645 25.19 7.75 27.095C9.334 25.1885 13.75 19.493 13.75 15.242C13.75 12.0755 11.059 9.5 7.75 9.5Z" fill="white"/>
<path d="M7.75 19.25C5.683 19.25 4 17.567 4 15.5C4 13.433 5.683 11.75 7.75 11.75C9.817 11.75 11.5 13.433 11.5 15.5C11.5 17.567 9.817 19.25 7.75 19.25ZM7.75 13.25C6.5095 13.25 5.5 14.2595 5.5 15.5C5.5 16.7405 6.5095 17.75 7.75 17.75C8.9905 17.75 10 16.7405 10 15.5C10 14.2595 8.9905 13.25 7.75 13.25Z" fill="white"/>
</svg>
