<svg width="60" height="60" viewBox="0 0 60 60" fill="none" xmlns="http://www.w3.org/2000/svg">
<g clip-path="url(#clip0_99_2480)">
<path d="M22.4568 13.0379H16.7893C15.983 13.0379 15.327 13.6939 15.327 14.5002V17.1935C15.327 17.9997 15.983 18.6558 16.7893 18.6558H22.4568C23.2631 18.6558 23.9191 17.9997 23.9191 17.1935V14.5002C23.9191 13.6939 23.2631 13.0379 22.4568 13.0379ZM22.1592 16.8956H17.0871V14.7978H22.1592V16.8956ZM32.8339 13.0379H27.1663C26.3601 13.0379 25.7041 13.6939 25.7041 14.5002V17.1935C25.7041 17.9997 26.3601 18.6558 27.1663 18.6558H32.8339C33.6401 18.6558 34.2962 17.9997 34.2962 17.1935V14.5002C34.2962 13.6939 33.6401 13.0379 32.8339 13.0379ZM32.5361 16.8956H27.4641V14.7978H32.5361V16.8956ZM43.2107 13.0379H37.5432C36.7369 13.0379 36.0809 13.6939 36.0809 14.5002V17.1935C36.0809 17.9997 36.7369 18.6558 37.5432 18.6558H43.2107C44.017 18.6558 44.673 17.9997 44.673 17.1935V14.5002C44.673 13.6939 44.017 13.0379 43.2107 13.0379ZM42.9131 16.8956H37.841V14.7978H42.9131V16.8956ZM58.6792 56.6048C56.9494 56.6668 55.9728 57.1077 55.1112 57.4965C54.2275 57.8954 53.4643 58.2399 51.834 58.2399C50.2037 58.2399 49.4405 57.8954 48.5567 57.4965C47.6228 57.075 46.5645 56.5972 44.5553 56.5972C42.5463 56.5972 41.488 57.0749 40.5541 57.4965C39.6704 57.8954 38.9071 58.2399 37.2769 58.2399C35.6469 58.2399 34.8837 57.8954 34 57.4965C33.0662 57.075 32.0078 56.5972 29.9989 56.5972C27.9901 56.5972 26.9317 57.0749 25.998 57.4965C25.1144 57.8954 24.3513 58.2399 22.7212 58.2399C21.0911 58.2399 20.328 57.8954 19.4443 57.4965C18.5104 57.075 17.4521 56.5972 15.4431 56.5972C13.4342 56.5972 12.3758 57.0749 11.442 57.4965C10.5583 57.8954 9.79518 58.2399 8.1651 58.2399C6.53502 58.2399 5.7719 57.8954 4.8883 57.4965C4.02674 57.1076 3.05033 56.6668 1.32065 56.6048C0.835138 56.5908 0.427092 56.9672 0.409748 57.4528C0.405596 57.5683 0.424237 57.6835 0.464608 57.7917C0.504979 57.9 0.566288 57.9993 0.645033 58.0839C0.723778 58.1685 0.818416 58.2367 0.923542 58.2847C1.02867 58.3327 1.14222 58.3596 1.25772 58.3637C2.64158 58.4132 3.34717 58.7319 4.1642 59.1007C5.09807 59.5222 6.15639 60 8.16533 60C10.1743 60 11.2326 59.5223 12.1665 59.1007C13.0502 58.7018 13.8133 58.3572 15.4435 58.3572C17.0737 58.3572 17.8367 58.7018 18.7204 59.1007C19.6543 59.5222 20.7125 60 22.7214 60C24.7304 60 25.7887 59.5222 26.7224 59.1007C27.606 58.7018 28.3692 58.3572 29.9992 58.3572C31.6293 58.3572 32.3924 58.7018 33.2762 59.1007C34.21 59.5222 35.2683 60 37.2773 60C39.2862 60 40.3447 59.5223 41.2784 59.1007C42.1621 58.7018 42.9254 58.3572 44.5556 58.3572C46.1859 58.3572 46.949 58.7018 47.8328 59.1007C48.7667 59.5222 49.8251 60 51.8342 60C53.8433 60 54.9017 59.5223 55.8356 59.1007C56.6527 58.7318 57.3584 58.4132 58.7425 58.3637C58.9758 58.3553 59.1961 58.2547 59.3551 58.0838C59.5142 57.913 59.5988 57.686 59.5905 57.4528C59.5728 56.967 59.1626 56.5858 58.6792 56.6048Z" fill="#FFFFFF"/>
<path d="M58.6412 52.8022C56.9355 52.8691 55.9666 53.3065 55.1116 53.6924C54.2279 54.0913 53.4647 54.4358 51.8345 54.4358C50.4847 54.4358 49.7293 54.1993 49.0077 53.8917L57.6504 33.4302C57.7717 33.1453 57.8349 32.839 57.8363 32.5294C57.8377 32.2197 57.7774 31.9129 57.6587 31.6269C57.5417 31.3402 57.3686 31.0798 57.1497 30.8608C56.9307 30.6419 56.6702 30.4688 56.3836 30.3518L49.8243 27.653L49.0801 21.2728C49.0237 20.7901 48.5872 20.4427 48.104 20.5008C47.8722 20.5278 47.6606 20.6459 47.5158 20.8289C47.371 21.0119 47.3049 21.245 47.3319 21.4768L47.9631 26.8873L30.3355 19.6343C30.121 19.5461 29.8803 19.5461 29.6657 19.6343L12.0375 26.8873L13.6774 12.8284C13.7218 12.4471 13.9048 12.0954 14.1916 11.8402C14.4783 11.5849 14.8488 11.4439 15.2327 11.4439H44.7675C45.1513 11.4439 45.5218 11.585 45.8086 11.8402C46.0953 12.0954 46.2783 12.4471 46.3228 12.8284L46.8637 17.4661C46.9201 17.9488 47.3566 18.2954 47.8398 18.2381C48.0716 18.2111 48.2832 18.093 48.428 17.91C48.5728 17.727 48.6389 17.4939 48.6119 17.2621L48.071 12.6244C47.8754 10.948 46.4552 9.68391 44.7675 9.68391H41.5732V6.67605C41.5732 5.42508 40.5555 4.40754 39.3046 4.40754H33.8089V1.81711C33.8089 0.815156 32.9938 0 31.9918 0H28.0087C27.0068 0 26.1916 0.815156 26.1916 1.81711V4.40754H20.6959C19.445 4.40754 18.4273 5.4252 18.4273 6.67605V9.68391H15.2331C13.5453 9.68391 12.1251 10.948 11.9295 12.6244L10.1762 27.6531L3.61696 30.3519C3.03442 30.5917 2.58161 31.0445 2.34184 31.627C2.10207 32.2096 2.105 32.85 2.35016 33.4303L10.9926 53.8914C10.2709 54.1992 9.51547 54.4359 8.16524 54.4359C6.53528 54.4359 5.77215 54.0914 4.88844 53.6925C4.03356 53.3066 3.06465 52.8693 1.35934 52.8023C0.871254 52.7807 0.464379 53.1614 0.445512 53.6471C0.440944 53.7626 0.459172 53.8779 0.499154 53.9863C0.539136 54.0947 0.60009 54.1942 0.678531 54.2791C0.756973 54.3639 0.851366 54.4325 0.956318 54.4809C1.06127 54.5292 1.17472 54.5565 1.2902 54.561C2.65297 54.6145 3.35329 54.9306 4.16422 55.2967C5.09797 55.7182 6.15629 56.196 8.16512 56.196C10.1741 56.196 11.2324 55.7183 12.1663 55.2967C12.2757 55.2472 12.3834 55.1987 12.4911 55.1515L12.4926 55.1509L12.5462 55.1277C12.5781 55.1139 12.6099 55.1 12.6419 55.0864L12.6853 55.0683C12.7264 55.0511 12.7675 55.0341 12.8091 55.0174L12.8352 55.0071C12.8841 54.9876 12.9332 54.9686 12.9826 54.9502L12.9942 54.9458C13.2268 54.8588 13.4648 54.7867 13.7066 54.7298C13.7277 54.7249 13.7498 54.7204 13.7713 54.7155C13.8114 54.7066 13.8519 54.6978 13.8934 54.6895C13.925 54.6832 13.9576 54.6773 13.9902 54.6714C14.0934 54.6522 14.1971 54.6359 14.3012 54.6225C14.4195 54.6068 14.5383 54.594 14.6573 54.5843C14.6955 54.5811 14.735 54.5786 14.7744 54.5757C14.8166 54.5728 14.8585 54.5698 14.9021 54.5674C14.9516 54.5647 15.0031 54.563 15.0545 54.561C15.0907 54.5596 15.1259 54.5578 15.1631 54.5569C15.2537 54.5545 15.3467 54.5531 15.4432 54.5531C17.0732 54.5531 17.8364 54.8977 18.7201 55.2966C18.7914 55.3288 18.8639 55.3613 18.937 55.3939C19.8215 55.7884 20.8657 56.1959 22.7212 56.1959C24.3534 56.1959 25.3582 55.8804 26.1784 55.5361C26.3607 55.4587 26.542 55.3789 26.7222 55.2966C27.6058 54.8977 28.3689 54.5531 29.999 54.5531C31.6291 54.5531 32.3922 54.8977 33.2759 55.2966C34.2098 55.7181 35.2681 56.1959 37.2771 56.1959C39.1264 56.1959 40.1698 55.7911 41.0525 55.3979C41.1287 55.3639 41.2041 55.3301 41.2783 55.2967C42.162 54.8978 42.9253 54.5532 44.5555 54.5532C44.652 54.5532 44.745 54.5546 44.8357 54.557C44.8729 54.5579 44.9081 54.5598 44.9444 54.5611C44.9956 54.563 45.0471 54.5648 45.0965 54.5674C45.1405 54.5698 45.1828 54.5728 45.2254 54.5759C45.2642 54.5786 45.3032 54.5811 45.341 54.5843C45.4606 54.5945 45.58 54.6073 45.699 54.6228C45.7694 54.6321 45.8396 54.6426 45.9097 54.6541C45.9425 54.6595 45.9746 54.6654 46.0065 54.6711C46.0402 54.6772 46.074 54.6833 46.1068 54.6899C46.1465 54.6979 46.1852 54.7063 46.2236 54.7147C46.247 54.7199 46.2709 54.7248 46.2937 54.7302C46.4872 54.7755 46.6665 54.828 46.8372 54.8861L46.8381 54.8863C46.9477 54.9238 47.0564 54.964 47.1639 55.0071L47.1902 55.0175C47.2323 55.0344 47.274 55.0516 47.3156 55.0691L47.3566 55.0862C47.3919 55.1011 47.4269 55.1163 47.4621 55.1316C47.4772 55.1381 47.4924 55.1446 47.5075 55.1512L47.5086 55.1516C47.6162 55.1987 47.7236 55.2472 47.833 55.2966C48.7668 55.7181 49.8253 56.1959 51.8343 56.1959C53.8434 56.1959 54.9018 55.7182 55.8357 55.2966C56.6468 54.9305 57.3472 54.6143 58.7102 54.5609C58.8257 54.5563 58.9391 54.5291 59.0441 54.4807C59.149 54.4324 59.2434 54.3638 59.3219 54.2789C59.4003 54.1941 59.4613 54.0946 59.5013 53.9862C59.5413 53.8777 59.5595 53.7625 59.555 53.647C59.536 53.1613 59.1257 52.785 58.6412 52.8022ZM27.9512 1.81711C27.9513 1.80198 27.9573 1.7875 27.968 1.77682C27.9787 1.76613 27.9932 1.7601 28.0084 1.76004H31.9914C32.023 1.76004 32.0485 1.78559 32.0485 1.81711V4.40754H27.9512V1.81711ZM20.1869 6.67605C20.1871 6.54125 20.2407 6.412 20.336 6.31668C20.4313 6.22135 20.5606 6.16773 20.6954 6.16758H39.3044C39.4392 6.16773 39.5685 6.22135 39.6638 6.31668C39.7591 6.412 39.8127 6.54125 39.8129 6.67605V9.68391H20.1869V6.67605ZM47.3833 53.213C46.9708 53.0742 46.493 52.9528 45.9123 52.8768L45.8831 52.8729C45.7883 52.8607 45.6933 52.8501 45.5982 52.8409L45.5723 52.8386C45.4798 52.8299 45.3871 52.8227 45.2943 52.8168L45.2519 52.8138C45.1512 52.8078 45.0505 52.8031 44.9497 52.7999L44.8832 52.798C44.7765 52.7951 44.668 52.7931 44.5554 52.7931C42.5463 52.7931 41.488 53.2707 40.5541 53.6924C39.6704 54.0913 38.9072 54.4358 37.277 54.4358C35.6469 54.4358 34.8838 54.0913 34 53.6924C33.0662 53.2709 32.0079 52.7931 29.9989 52.7931C27.9901 52.7931 26.9318 53.2707 25.998 53.6924C25.1144 54.0913 24.3513 54.4358 22.7212 54.4358C21.0911 54.4358 20.328 54.0913 19.4443 53.6924C18.5689 53.2972 17.584 52.8526 15.8089 52.7986C15.6906 52.795 15.5687 52.7931 15.4432 52.7931C15.3304 52.7931 15.2218 52.7951 15.115 52.798L15.0493 52.7999C14.9457 52.8033 14.8446 52.8079 14.7464 52.8138C14.7325 52.8146 14.7191 52.8157 14.7054 52.8166C14.6091 52.8228 14.5153 52.8302 14.4241 52.8388L14.4015 52.8408C14.3026 52.8503 14.2068 52.8612 14.1134 52.8731L14.0889 52.8763C13.5075 52.9523 13.0293 53.0736 12.6165 53.2124L5.30575 35.9046L8.62297 34.6035C8.83962 34.5178 9.01345 34.3497 9.10636 34.1361C9.19927 33.9224 9.20368 33.6806 9.11861 33.4638C9.03355 33.2469 8.86596 33.0725 8.65258 32.979C8.4392 32.8855 8.19745 32.8804 7.98032 32.9648L4.62067 34.2827L3.97133 32.7456C3.94112 32.6747 3.92538 32.5985 3.92501 32.5214C3.92465 32.4444 3.93968 32.368 3.96922 32.2969C3.99834 32.2255 4.04139 32.1607 4.09586 32.1062C4.15033 32.0517 4.21512 32.0087 4.28645 31.9795L30 21.3996L55.7134 31.9795C55.7847 32.0087 55.8495 32.0517 55.904 32.1062C55.9584 32.1607 56.0015 32.2255 56.0306 32.2969C56.0601 32.368 56.0752 32.4444 56.0748 32.5214C56.0745 32.5985 56.0588 32.6747 56.0286 32.7456L55.3793 34.2827L30.3213 24.4539C30.1147 24.373 29.8852 24.373 29.6786 24.4539L11.7922 31.4698C11.5775 31.5568 11.4058 31.725 11.3144 31.9379C11.2229 32.1507 11.219 32.391 11.3036 32.6067C11.3882 32.8223 11.5544 32.996 11.7662 33.0899C11.978 33.1838 12.2182 33.1904 12.4348 33.1083L30 26.2185L54.6942 35.9046L47.3833 53.213Z" fill="#FFFFFF"/>
</g>
<defs>
<clipPath id="clip0_99_2480">
<rect width="60" height="60" fill="white"/>
</clipPath>
</defs>
</svg>
