<svg width="48" height="46" viewBox="0 0 48 46" fill="none" xmlns="http://www.w3.org/2000/svg">
<path d="M0.304206 37.8254L3.29549 39.8834C4.66793 40.8277 6.26506 41.3113 7.87633 41.3113C8.92255 41.3108 9.95877 41.1076 10.9276 40.7127L14.751 39.1583C15.6328 38.7998 16.581 38.6337 17.5322 38.6712C18.4834 38.7087 19.4156 38.9489 20.2664 39.3758L20.3726 39.4291C22.6439 40.5686 25.3561 40.5686 27.6273 39.4291L27.7335 39.3758C28.5844 38.949 29.5166 38.7088 30.4678 38.6712C31.4189 38.6337 32.3672 38.7998 33.249 39.1583L37.0722 40.7127C39.602 41.7412 42.4549 41.4311 44.7045 39.8833L47.6957 37.8253C47.8492 37.7197 47.9544 37.5576 47.9882 37.3744C48.0221 37.1913 47.9818 37.0022 47.8763 36.8488C47.7707 36.6954 47.6085 36.5901 47.4254 36.5563C47.2423 36.5224 47.0532 36.5627 46.8998 36.6683L43.9085 38.7263C42.0494 40.0055 39.6915 40.2617 37.6012 39.4118L37.2975 39.2883C39.2402 35.9716 40.5274 32.6851 41.126 29.5082C41.1589 29.3312 41.1499 29.149 41.0996 28.9761C41.0492 28.8033 40.9591 28.6446 40.8363 28.513C40.6472 28.3113 40.4559 28.1117 40.2623 27.9143L39.719 22.9913C39.6875 22.7035 39.5508 22.4375 39.3352 22.2444C39.1195 22.0513 38.8401 21.9446 38.5506 21.9449H38.1983L37.0308 15.8736C36.9807 15.6142 36.8419 15.3803 36.6382 15.212C36.4345 15.0437 36.1787 14.9515 35.9145 14.9513H35.3385L34.9867 12.6768C34.9566 12.4942 34.8556 12.3308 34.7058 12.2222C34.5559 12.1136 34.3693 12.0686 34.1864 12.0969C34.0035 12.1252 33.8392 12.2245 33.7291 12.3733C33.6191 12.5221 33.5722 12.7083 33.5987 12.8914L33.9173 14.9513H30.182L29.2131 8.68791H32.9485L33.1358 9.89903C33.1643 10.083 33.2648 10.2482 33.415 10.3582C33.5652 10.4682 33.753 10.514 33.937 10.4856C34.0282 10.4715 34.1156 10.4396 34.1944 10.3917C34.2732 10.3438 34.3418 10.2809 34.3963 10.2065C34.4508 10.1321 34.4901 10.0477 34.5119 9.95808C34.5338 9.86849 34.5378 9.77548 34.5237 9.68435L33.6418 3.98358C33.5329 3.2786 32.936 2.76694 32.2227 2.76694H28.2973L28.0618 1.24387C27.9528 0.538877 27.3558 0.0272217 26.6425 0.0272217H21.3573C20.644 0.0272217 20.0471 0.538877 19.9381 1.24387L19.7025 2.76694H15.7772C15.0638 2.76694 14.467 3.2786 14.358 3.98358L12.6615 14.9514H12.0854C11.8212 14.9517 11.5654 15.0438 11.3617 15.2121C11.1581 15.3803 11.0193 15.6142 10.9691 15.8736L9.80161 21.945H9.68514C9.39564 21.9447 9.11623 22.0514 8.90058 22.2446C8.68493 22.4377 8.54822 22.7037 8.51672 22.9915L8.00328 27.6444C7.71871 27.9293 7.4388 28.2189 7.16366 28.5129C7.04087 28.6446 6.9507 28.8033 6.90039 28.9762C6.85008 29.1491 6.84104 29.3314 6.87399 29.5084C7.18538 31.161 7.68796 32.8608 8.36767 34.5602C8.4384 34.7308 8.57354 34.8667 8.74379 34.9385C8.91405 35.0102 9.1057 35.0119 9.27723 34.9433C9.44876 34.8747 9.58635 34.7413 9.66018 34.5719C9.73401 34.4026 9.73814 34.2109 9.67166 34.0386C9.49651 33.5998 9.33236 33.1568 9.17939 32.7099C12.9009 29.0375 17.532 26.0782 23.2978 23.6892V38.8428C22.5063 38.76 21.7272 38.5375 21.0023 38.1739L20.8962 38.1206C19.8666 37.6041 18.7385 37.3134 17.5875 37.268C16.4366 37.2226 15.2891 37.4236 14.2221 37.8574L12.018 38.7535C11.6158 38.0751 11.2387 37.3953 10.8961 36.7261C10.8544 36.6434 10.7967 36.5699 10.7265 36.5096C10.6563 36.4494 10.5748 36.4036 10.4868 36.3749C10.3989 36.3463 10.3061 36.3353 10.2138 36.3426C10.1216 36.3499 10.0317 36.3753 9.94931 36.4175C9.86694 36.4597 9.79371 36.5177 9.73384 36.5883C9.67398 36.6588 9.62865 36.7405 9.60046 36.8287C9.57228 36.9168 9.56179 37.0097 9.56961 37.1019C9.57742 37.1941 9.60339 37.2838 9.64601 37.366C9.97985 38.0166 10.3321 38.6577 10.7024 39.2884L10.3986 39.4118C8.3085 40.2617 5.95048 40.0056 4.09139 38.7264L1.1001 36.6684C1.02416 36.6153 0.938465 36.5778 0.847951 36.5579C0.757437 36.5381 0.663896 36.5364 0.572719 36.5529C0.481543 36.5694 0.394535 36.6038 0.316709 36.6541C0.238884 36.7044 0.17178 36.7696 0.119266 36.8459C0.0667525 36.9223 0.0298669 37.0082 0.0107357 37.0989C-0.00839557 37.1896 -0.00939419 37.2831 0.00779737 37.3742C0.0249889 37.4652 0.0600307 37.552 0.110903 37.6294C0.161775 37.7068 0.227472 37.7735 0.304206 37.8254ZM33.7779 37.8575C32.7108 37.4237 31.5634 37.2227 30.4124 37.2681C29.2614 37.3135 28.1333 37.6042 27.1037 38.1207L26.9975 38.1739C26.2727 38.5376 25.4936 38.7601 24.7021 38.8429V23.6897C25.5248 24.0301 26.3395 24.3897 27.1455 24.7682C27.3137 24.8454 27.5056 24.8531 27.6794 24.7896C27.8533 24.7261 27.995 24.5965 28.0738 24.429C28.1526 24.2615 28.1621 24.0697 28.1002 23.8953C28.0383 23.7209 27.9101 23.5779 27.7433 23.4975C26.7705 23.0396 25.748 22.5955 24.7021 22.1731V19.4355C30.9398 22.0202 35.8607 25.2783 39.7211 29.3772C39.6006 29.9942 39.4558 30.6062 39.287 31.2118C36.7624 28.8194 33.7965 26.6875 30.45 24.8675C30.2864 24.7786 30.0942 24.7582 29.9156 24.811C29.737 24.8638 29.5866 24.9854 29.4977 25.149C29.4087 25.3126 29.3884 25.5048 29.4412 25.6834C29.4939 25.862 29.6155 26.0124 29.7791 26.1013C33.2413 27.9842 36.2796 30.207 38.8193 32.7107C38.1376 34.6953 37.1896 36.7161 35.9819 38.7537L33.7779 37.8575ZM38.6811 26.3904C37.4976 25.3153 36.231 24.3029 34.8767 23.3495H38.3454L38.6811 26.3904ZM20.5808 6.27597H27.419L28.7609 14.9515H19.2388L20.5808 6.27597ZM32.2228 4.17149C32.2385 4.17149 32.2517 4.18282 32.2541 4.19845L32.7313 7.28383H28.996L28.5146 4.17158L32.2228 4.17149ZM21.3573 1.43186H26.6425C26.6581 1.43186 26.6715 1.44347 26.6739 1.45883L27.2017 4.8717H20.798L21.326 1.45873C21.3271 1.45122 21.3309 1.44437 21.3366 1.43943C21.3424 1.43449 21.3498 1.4318 21.3573 1.43186ZM15.7771 4.17149H19.4852L19.0038 7.28374H15.2686L15.7459 4.19836C15.747 4.19087 15.7507 4.18403 15.7565 4.17909C15.7622 4.17416 15.7695 4.17146 15.7771 4.17149ZM15.0513 8.68819H18.7865L17.8177 14.9515H14.0825L15.0513 8.68819ZM12.3064 16.3559H35.6934L36.7681 21.9451H32.7496C30.2602 20.4043 27.5024 19.0333 24.447 17.8154C24.1596 17.7007 23.839 17.7009 23.5517 17.8159C20.4969 19.0336 17.7393 20.4045 15.2503 21.9451H11.2317L12.3064 16.3559ZM9.89009 23.3494H13.123C11.8682 24.2328 10.6884 25.1666 9.58057 26.1543L9.89009 23.3494ZM8.71249 31.2075C8.54392 30.6033 8.39916 29.9927 8.27854 29.3771C12.139 25.2783 17.0603 22.0202 23.2977 19.4354V22.1722C17.3784 24.5611 12.591 27.5256 8.71249 31.2075Z" fill="#FFFFFF"/>
<path d="M46.8996 41.3295L43.9084 43.3876C42.0494 44.6667 39.6917 44.9229 37.6011 44.073L33.7779 42.5186C32.7108 42.0848 31.5634 41.8838 30.4123 41.9292C29.2613 41.9746 28.1333 42.2653 27.1037 42.7818L26.9975 42.835C25.1205 43.7766 22.8792 43.7766 21.0023 42.835L20.8961 42.7818C19.8665 42.2652 18.7385 41.9746 17.5875 41.9292C16.4365 41.8838 15.2891 42.0847 14.2221 42.5186L10.3986 44.073C8.30848 44.9229 5.95056 44.6667 4.09147 43.3876L1.10018 41.3295C1.02421 41.2772 0.938694 41.2404 0.848506 41.2212C0.758317 41.202 0.665227 41.2007 0.574551 41.2175C0.483874 41.2342 0.397387 41.2687 0.320028 41.3189C0.242668 41.3691 0.175951 41.434 0.123686 41.51C0.07142 41.5859 0.0346289 41.6715 0.0154139 41.7617C-0.00380113 41.8518 -0.00506386 41.9449 0.0116978 42.0356C0.0284595 42.1263 0.0629173 42.2128 0.113104 42.2901C0.16329 42.3675 0.228223 42.4342 0.304193 42.4865L3.29548 44.5446C4.66791 45.4889 6.26505 45.9725 7.87632 45.9725C8.92254 45.972 9.95875 45.7688 10.9276 45.3739L14.751 43.8195C15.6328 43.461 16.5811 43.2949 17.5322 43.3324C18.4834 43.37 19.4156 43.6102 20.2664 44.037L20.3726 44.0903C22.6441 45.2297 25.3561 45.2297 27.6273 44.0903L27.7335 44.037C28.5844 43.6101 29.5166 43.3699 30.4677 43.3324C31.4189 43.2949 32.3672 43.461 33.249 43.8195L37.0722 45.3739C39.602 46.4023 42.4549 46.0922 44.7044 44.5445L47.6957 42.4864C47.7721 42.4343 47.8374 42.3676 47.888 42.2902C47.9385 42.2128 47.9732 42.1262 47.9902 42.0353C48.0072 41.9444 48.0061 41.8511 47.9869 41.7606C47.9677 41.6702 47.9308 41.5845 47.8784 41.5083C47.826 41.4321 47.7591 41.3671 47.6815 41.3169C47.6039 41.2666 47.5171 41.2322 47.4262 41.2156C47.3352 41.199 47.2419 41.2005 47.1516 41.22C47.0612 41.2396 46.9756 41.2768 46.8996 41.3295ZM32.5433 19.5496H33.1312C33.5191 19.5496 33.8334 19.2352 33.8334 18.8474C33.8334 18.4597 33.5191 18.1453 33.1312 18.1453H32.5433C32.3571 18.1453 32.1785 18.2192 32.0468 18.3509C31.9151 18.4826 31.8412 18.6612 31.8412 18.8474C31.8412 19.0337 31.9151 19.2123 32.0468 19.344C32.1785 19.4756 32.3571 19.5496 32.5433 19.5496ZM15.4564 19.5496C15.8443 19.5496 16.1586 19.2352 16.1586 18.8474C16.1586 18.4597 15.8443 18.1453 15.4564 18.1453H14.8685C14.4806 18.1453 14.1664 18.4597 14.1664 18.8474C14.1664 19.2352 14.4806 19.5496 14.8685 19.5496H15.4564Z" fill="#FFFFFF"/>
</svg>
