<svg width="48" height="48" viewBox="0 0 48 48" fill="none" xmlns="http://www.w3.org/2000/svg">
<g clip-path="url(#clip0_30_501)">
<path d="M0.304206 38.8254L3.29549 40.8834C4.66793 41.8277 6.26506 42.3113 7.87633 42.3113C8.92255 42.3108 9.95877 42.1076 10.9276 41.7127L14.751 40.1583C15.6328 39.7998 16.581 39.6337 17.5322 39.6712C18.4834 39.7087 19.4156 39.9489 20.2664 40.3758L20.3726 40.4291C22.6439 41.5686 25.3561 41.5686 27.6273 40.4291L27.7335 40.3758C28.5844 39.949 29.5166 39.7088 30.4678 39.6712C31.4189 39.6337 32.3672 39.7998 33.249 40.1583L37.0722 41.7127C39.602 42.7412 42.4549 42.4311 44.7045 40.8833L47.6957 38.8253C47.8492 38.7197 47.9544 38.5576 47.9882 38.3744C48.0221 38.1913 47.9818 38.0022 47.8763 37.8488C47.7707 37.6954 47.6085 37.5901 47.4254 37.5563C47.2423 37.5224 47.0532 37.5627 46.8998 37.6683L43.9085 39.7263C42.0494 41.0055 39.6915 41.2617 37.6012 40.4118L37.2975 40.2883C39.2402 36.9716 40.5274 33.6851 41.126 30.5082C41.1589 30.3312 41.1499 30.149 41.0996 29.9761C41.0492 29.8033 40.9591 29.6446 40.8363 29.513C40.6472 29.3113 40.4559 29.1117 40.2623 28.9143L39.719 23.9913C39.6875 23.7035 39.5508 23.4375 39.3352 23.2444C39.1195 23.0513 38.8401 22.9446 38.5506 22.9449H38.1983L37.0308 16.8736C36.9807 16.6142 36.8419 16.3803 36.6382 16.212C36.4345 16.0437 36.1787 15.9515 35.9145 15.9513H35.3385L34.9867 13.6768C34.9566 13.4942 34.8556 13.3308 34.7058 13.2222C34.5559 13.1136 34.3693 13.0686 34.1864 13.0969C34.0035 13.1252 33.8392 13.2245 33.7291 13.3733C33.6191 13.5221 33.5722 13.7083 33.5987 13.8914L33.9173 15.9513H30.182L29.2131 9.68791H32.9485L33.1358 10.899C33.1643 11.083 33.2648 11.2482 33.415 11.3582C33.5652 11.4682 33.753 11.514 33.937 11.4856C34.0282 11.4715 34.1156 11.4396 34.1944 11.3917C34.2732 11.3438 34.3418 11.2809 34.3963 11.2065C34.4508 11.1321 34.4901 11.0477 34.5119 10.9581C34.5338 10.8685 34.5378 10.7755 34.5237 10.6844L33.6418 4.98358C33.5329 4.2786 32.936 3.76694 32.2227 3.76694H28.2973L28.0618 2.24387C27.9528 1.53888 27.3558 1.02722 26.6425 1.02722H21.3573C20.644 1.02722 20.0471 1.53888 19.9381 2.24387L19.7025 3.76694H15.7772C15.0638 3.76694 14.467 4.2786 14.358 4.98358L12.6615 15.9514H12.0854C11.8212 15.9517 11.5654 16.0438 11.3617 16.2121C11.1581 16.3803 11.0193 16.6142 10.9691 16.8736L9.80161 22.945H9.68514C9.39564 22.9447 9.11623 23.0514 8.90058 23.2446C8.68493 23.4377 8.54822 23.7037 8.51672 23.9915L8.00328 28.6444C7.71871 28.9293 7.4388 29.2189 7.16366 29.5129C7.04087 29.6446 6.9507 29.8033 6.90039 29.9762C6.85008 30.1491 6.84104 30.3314 6.87399 30.5084C7.18538 32.161 7.68796 33.8608 8.36767 35.5602C8.4384 35.7308 8.57354 35.8667 8.74379 35.9385C8.91405 36.0102 9.1057 36.0119 9.27723 35.9433C9.44876 35.8747 9.58635 35.7413 9.66018 35.5719C9.73401 35.4026 9.73814 35.2109 9.67166 35.0386C9.49651 34.5998 9.33236 34.1568 9.17939 33.7099C12.9009 30.0375 17.532 27.0782 23.2978 24.6892V39.8428C22.5063 39.76 21.7272 39.5375 21.0023 39.1739L20.8962 39.1206C19.8666 38.6041 18.7385 38.3134 17.5875 38.268C16.4366 38.2226 15.2891 38.4236 14.2221 38.8574L12.018 39.7535C11.6158 39.0751 11.2387 38.3953 10.8961 37.7261C10.8544 37.6434 10.7967 37.5699 10.7265 37.5096C10.6563 37.4494 10.5748 37.4036 10.4868 37.3749C10.3989 37.3463 10.3061 37.3353 10.2138 37.3426C10.1216 37.3499 10.0317 37.3753 9.94931 37.4175C9.86694 37.4597 9.79371 37.5177 9.73384 37.5883C9.67398 37.6588 9.62865 37.7405 9.60046 37.8287C9.57228 37.9168 9.56179 38.0097 9.56961 38.1019C9.57742 38.1941 9.60339 38.2838 9.64601 38.366C9.97985 39.0166 10.3321 39.6577 10.7024 40.2884L10.3986 40.4118C8.3085 41.2617 5.95048 41.0056 4.09139 39.7264L1.1001 37.6684C1.02416 37.6153 0.938465 37.5778 0.847951 37.5579C0.757437 37.5381 0.663896 37.5364 0.572719 37.5529C0.481543 37.5694 0.394535 37.6038 0.316709 37.6541C0.238884 37.7044 0.17178 37.7696 0.119266 37.8459C0.0667525 37.9223 0.0298669 38.0082 0.0107357 38.0989C-0.00839557 38.1896 -0.00939419 38.2831 0.00779737 38.3742C0.0249889 38.4652 0.0600307 38.552 0.110903 38.6294C0.161775 38.7068 0.227472 38.7735 0.304206 38.8254ZM33.7779 38.8575C32.7108 38.4237 31.5634 38.2227 30.4124 38.2681C29.2614 38.3135 28.1333 38.6042 27.1037 39.1207L26.9975 39.1739C26.2727 39.5376 25.4936 39.7601 24.7021 39.8429V24.6897C25.5248 25.0301 26.3395 25.3897 27.1455 25.7682C27.3137 25.8454 27.5056 25.8531 27.6794 25.7896C27.8533 25.7261 27.995 25.5965 28.0738 25.429C28.1526 25.2615 28.1621 25.0697 28.1002 24.8953C28.0383 24.7209 27.9101 24.5779 27.7433 24.4975C26.7705 24.0396 25.748 23.5955 24.7021 23.1731V20.4355C30.9398 23.0202 35.8607 26.2783 39.7211 30.3772C39.6006 30.9942 39.4558 31.6062 39.287 32.2118C36.7624 29.8194 33.7965 27.6875 30.45 25.8675C30.2864 25.7786 30.0942 25.7582 29.9156 25.811C29.737 25.8638 29.5866 25.9854 29.4977 26.149C29.4087 26.3126 29.3884 26.5048 29.4412 26.6834C29.4939 26.862 29.6155 27.0124 29.7791 27.1013C33.2413 28.9842 36.2796 31.207 38.8193 33.7107C38.1376 35.6953 37.1896 37.7161 35.9819 39.7537L33.7779 38.8575ZM38.6811 27.3904C37.4976 26.3153 36.231 25.3029 34.8767 24.3495H38.3454L38.6811 27.3904ZM20.5808 7.27597H27.419L28.7609 15.9515H19.2388L20.5808 7.27597ZM32.2228 5.17149C32.2385 5.17149 32.2517 5.18282 32.2541 5.19845L32.7313 8.28383H28.996L28.5146 5.17158L32.2228 5.17149ZM21.3573 2.43186H26.6425C26.6581 2.43186 26.6715 2.44347 26.6739 2.45883L27.2017 5.8717H20.798L21.326 2.45873C21.3271 2.45122 21.3309 2.44437 21.3366 2.43943C21.3424 2.43449 21.3498 2.4318 21.3573 2.43186ZM15.7771 5.17149H19.4852L19.0038 8.28374H15.2686L15.7459 5.19836C15.747 5.19087 15.7507 5.18403 15.7565 5.17909C15.7622 5.17416 15.7695 5.17146 15.7771 5.17149ZM15.0513 9.68819H18.7865L17.8177 15.9515H14.0825L15.0513 9.68819ZM12.3064 17.3559H35.6934L36.7681 22.9451H32.7496C30.2602 21.4043 27.5024 20.0333 24.447 18.8154C24.1596 18.7007 23.839 18.7009 23.5517 18.8159C20.4969 20.0336 17.7393 21.4045 15.2503 22.9451H11.2317L12.3064 17.3559ZM9.89009 24.3494H13.123C11.8682 25.2328 10.6884 26.1666 9.58057 27.1543L9.89009 24.3494ZM8.71249 32.2075C8.54392 31.6033 8.39916 30.9927 8.27854 30.3771C12.139 26.2783 17.0603 23.0202 23.2977 20.4354V23.1722C17.3784 25.5611 12.591 28.5256 8.71249 32.2075Z" fill="#D81320"/>
<path d="M46.8996 42.3295L43.9084 44.3876C42.0494 45.6667 39.6917 45.9229 37.6011 45.073L33.7779 43.5186C32.7108 43.0848 31.5634 42.8838 30.4123 42.9292C29.2613 42.9746 28.1333 43.2653 27.1037 43.7818L26.9975 43.835C25.1205 44.7766 22.8792 44.7766 21.0023 43.835L20.8961 43.7818C19.8665 43.2652 18.7385 42.9746 17.5875 42.9292C16.4365 42.8838 15.2891 43.0847 14.2221 43.5186L10.3986 45.073C8.30848 45.9229 5.95056 45.6667 4.09147 44.3876L1.10018 42.3295C1.02421 42.2772 0.938694 42.2404 0.848506 42.2212C0.758317 42.202 0.665227 42.2007 0.574551 42.2175C0.483874 42.2342 0.397387 42.2687 0.320028 42.3189C0.242668 42.3691 0.175951 42.434 0.123686 42.51C0.07142 42.5859 0.0346289 42.6715 0.0154139 42.7617C-0.00380113 42.8518 -0.00506386 42.9449 0.0116978 43.0356C0.0284595 43.1263 0.0629173 43.2128 0.113104 43.2901C0.16329 43.3675 0.228223 43.4342 0.304193 43.4865L3.29548 45.5446C4.66791 46.4889 6.26505 46.9725 7.87632 46.9725C8.92254 46.972 9.95875 46.7688 10.9276 46.3739L14.751 44.8195C15.6328 44.461 16.5811 44.2949 17.5322 44.3324C18.4834 44.37 19.4156 44.6102 20.2664 45.037L20.3726 45.0903C22.6441 46.2297 25.3561 46.2297 27.6273 45.0903L27.7335 45.037C28.5844 44.6101 29.5166 44.3699 30.4677 44.3324C31.4189 44.2949 32.3672 44.461 33.249 44.8195L37.0722 46.3739C39.602 47.4023 42.4549 47.0922 44.7044 45.5445L47.6957 43.4864C47.7721 43.4343 47.8374 43.3676 47.888 43.2902C47.9385 43.2128 47.9732 43.1262 47.9902 43.0353C48.0072 42.9444 48.0061 42.8511 47.9869 42.7606C47.9677 42.6702 47.9308 42.5845 47.8784 42.5083C47.826 42.4321 47.7591 42.3671 47.6815 42.3169C47.6039 42.2666 47.5171 42.2322 47.4262 42.2156C47.3352 42.199 47.2419 42.2005 47.1516 42.22C47.0612 42.2396 46.9756 42.2768 46.8996 42.3295ZM32.5433 20.5496H33.1312C33.5191 20.5496 33.8334 20.2352 33.8334 19.8474C33.8334 19.4597 33.5191 19.1453 33.1312 19.1453H32.5433C32.3571 19.1453 32.1785 19.2192 32.0468 19.3509C31.9151 19.4826 31.8412 19.6612 31.8412 19.8474C31.8412 20.0337 31.9151 20.2123 32.0468 20.344C32.1785 20.4756 32.3571 20.5496 32.5433 20.5496ZM15.4564 20.5496C15.8443 20.5496 16.1586 20.2352 16.1586 19.8474C16.1586 19.4597 15.8443 19.1453 15.4564 19.1453H14.8685C14.4806 19.1453 14.1664 19.4597 14.1664 19.8474C14.1664 20.2352 14.4806 20.5496 14.8685 20.5496H15.4564Z" fill="#D81320"/>
</g>
<defs>
<clipPath id="clip0_30_501">
<rect width="48" height="48" fill="white"/>
</clipPath>
</defs>
</svg>
