<svg width="48" height="48" viewBox="0 0 48 48" fill="none" xmlns="http://www.w3.org/2000/svg">
<g clip-path="url(#clip0_121_91)">
<path d="M0.222984 46.7773L10.1523 37.088C9.87806 36.4319 9.73713 35.7277 9.73777 35.0166V11.8656C9.73777 8.88891 12.1507 6.47597 15.1274 6.47597H23.3663V5.13534C22.371 4.95619 21.6134 4.08422 21.6134 3.03816V1.42528H20.3317C19.0861 1.42528 18.0764 2.43506 18.0764 3.68062V4.02722C18.0764 4.4175 17.7757 4.75772 17.3857 4.76944C17.2903 4.77238 17.1953 4.75612 17.1063 4.72165C17.0173 4.68718 16.9362 4.63518 16.8676 4.56874C16.7991 4.50231 16.7447 4.42279 16.7075 4.33491C16.6703 4.24702 16.6511 4.15256 16.6511 4.05713V3.68053C16.6511 1.64784 18.299 0 20.3317 0H28.0649C30.0975 0 31.7455 1.64794 31.7455 3.68062V4.02722C31.7455 4.4175 31.4448 4.75772 31.0548 4.76944C30.9594 4.77238 30.8644 4.75612 30.7754 4.72165C30.6864 4.68718 30.6053 4.63518 30.5368 4.56874C30.4683 4.50231 30.4138 4.42279 30.3766 4.33491C30.3394 4.24702 30.3202 4.15256 30.3202 4.05713V3.68053C30.3202 2.43497 29.3104 1.42519 28.0649 1.42519H26.7831V3.03816C26.7831 4.16653 25.9019 5.09222 24.7917 5.16469V6.47616H26.5175C26.7065 6.47616 26.8878 6.55123 27.0214 6.68487C27.155 6.81851 27.2301 6.99976 27.2301 7.18875C27.2301 7.37774 27.155 7.55899 27.0214 7.69263C26.8878 7.82627 26.7065 7.90134 26.5175 7.90134H15.1274C12.9378 7.90134 11.163 9.67631 11.163 11.8657V35.0166C11.163 37.206 12.938 38.9809 15.1274 38.9809H18.9962V37.8731C18.9962 36.3544 20.2275 35.1233 21.7461 35.1233H26.6502C28.1689 35.1233 29.4 36.3545 29.4 37.8731V38.9809H33.269C35.4585 38.9809 37.2333 37.2059 37.2333 35.0166V11.8656C37.2333 9.67603 35.4584 7.90125 33.269 7.90125H29.843C29.654 7.90125 29.4728 7.82617 29.3391 7.69254C29.2055 7.5589 29.1304 7.37765 29.1304 7.18866C29.1304 6.99966 29.2055 6.81841 29.3391 6.68478C29.4728 6.55114 29.654 6.47606 29.843 6.47606H33.269C36.2457 6.47606 38.6586 8.889 38.6586 11.8657V35.0166C38.6591 35.7782 38.497 36.5312 38.1833 37.2252L47.7769 46.5873C47.9115 46.7195 47.9882 46.8996 47.9902 47.0882C47.9922 47.2768 47.9193 47.4585 47.7876 47.5935C47.6559 47.7285 47.476 47.8058 47.2874 47.8084C47.0987 47.811 46.9168 47.7387 46.7814 47.6074L37.41 38.462C37.0584 38.8834 36.6449 39.2491 36.1837 39.5467L41.4903 46.6716C41.5692 46.7775 41.6171 46.9033 41.6286 47.0349C41.6402 47.1664 41.615 47.2986 41.5557 47.4167C41.4965 47.5348 41.4057 47.6341 41.2933 47.7035C41.1809 47.7729 41.0515 47.8097 40.9194 47.8099C40.7019 47.8099 40.4872 47.7107 40.3473 47.5228L38.9671 45.6696H9.17574L7.6538 47.7128C7.58749 47.802 7.50121 47.8745 7.40186 47.9243C7.30252 47.9742 7.19288 48.0001 7.08173 47.9999C6.91955 47.9999 6.75586 47.9448 6.62048 47.83C6.33061 47.5843 6.29827 47.1468 6.52523 46.842L12.0437 39.4328C11.6114 39.1299 11.2256 38.7656 10.8984 38.3514L1.21851 47.7973C1.08556 47.9274 0.906891 48.0001 0.72089 47.9999C0.625809 48 0.531662 47.9811 0.444042 47.9442C0.356422 47.9072 0.277107 47.8531 0.210796 47.7849C0.145397 47.718 0.0938301 47.6388 0.0590439 47.5519C0.0242577 47.4651 0.00693512 47.3722 0.00806808 47.2786C0.00920105 47.185 0.0287628 47.0926 0.0656395 47.0066C0.102516 46.9206 0.155983 46.8427 0.222984 46.7773ZM24.6517 3.74456C25.0411 3.74447 25.3579 3.42769 25.3579 3.03825V1.42528H23.0387V3.03825C23.0387 3.42769 23.3555 3.74456 23.745 3.74456H24.6517ZM27.975 37.8731C27.975 37.1426 27.3807 36.5484 26.6503 36.5484H21.7462C21.0157 36.5484 20.4215 37.1427 20.4215 37.8731V38.9809H27.9749V37.8731H27.975ZM10.2371 44.2445H37.9055L34.8668 40.1645C34.3495 40.3251 33.8109 40.4065 33.2693 40.4062H15.1275C14.514 40.4064 13.905 40.3015 13.327 40.0958L10.2371 44.2445Z" fill="#D81320"/>
<path d="M13.3666 12.7475H20.707C21.0382 11.1233 22.4777 9.89734 24.1983 9.89734C25.9189 9.89734 27.3584 11.1232 27.6895 12.7475H35.0295C35.1231 12.7475 35.2158 12.7659 35.3022 12.8017C35.3887 12.8376 35.4672 12.89 35.5334 12.9562C35.5996 13.0224 35.6521 13.1009 35.6879 13.1874C35.7237 13.2739 35.7421 13.3665 35.7421 13.4601V27.1427C35.7421 27.2362 35.7237 27.3289 35.6879 27.4154C35.6521 27.5018 35.5996 27.5804 35.5334 27.6466C35.4672 27.7127 35.3887 27.7652 35.3022 27.801C35.2158 27.8368 35.1231 27.8553 35.0295 27.8552H21.1967C21.0077 27.8552 20.8264 27.7802 20.6928 27.6465C20.5592 27.5129 20.4841 27.3316 20.4841 27.1427C20.4841 26.9537 20.5592 26.7724 20.6928 26.6388C20.8264 26.5051 21.0077 26.4301 21.1967 26.4301H34.317V14.1728H27.6897C27.3588 15.7972 25.9191 17.0235 24.1984 17.0235C22.4777 17.0235 21.038 15.7973 20.707 14.1728H14.0793V26.4301H17.8712C18.0602 26.4301 18.2414 26.5051 18.3751 26.6388C18.5087 26.7724 18.5838 26.9537 18.5838 27.1427C18.5838 27.3316 18.5087 27.5129 18.3751 27.6465C18.2414 27.7802 18.0602 27.8552 17.8712 27.8552H13.3667C13.2731 27.8553 13.1804 27.8368 13.094 27.801C13.0075 27.7652 12.9289 27.7127 12.8628 27.6466C12.7966 27.5804 12.7441 27.5018 12.7083 27.4154C12.6725 27.3289 12.6541 27.2362 12.6541 27.1427V13.4601H12.654C12.654 13.3665 12.6724 13.2739 12.7082 13.1874C12.744 13.1009 12.7965 13.0224 12.8627 12.9562C12.9289 12.89 13.0074 12.8376 13.0939 12.8017C13.1803 12.7659 13.273 12.7475 13.3666 12.7475ZM24.1984 15.5981C25.3772 15.5981 26.3362 14.6391 26.3362 13.4603C26.3362 12.2815 25.3772 11.3225 24.1984 11.3225C23.0196 11.3225 22.0606 12.2815 22.0606 13.4603C22.0606 14.6391 23.0196 15.5981 24.1984 15.5981ZM29.4496 29.0905H35.0296C35.1232 29.0905 35.2158 29.1089 35.3023 29.1447C35.3888 29.1805 35.4673 29.233 35.5335 29.2992C35.5997 29.3654 35.6522 29.4439 35.688 29.5304C35.7238 29.6168 35.7422 29.7095 35.7422 29.8031V32.6531C35.7422 32.7467 35.7238 32.8393 35.688 32.9258C35.6522 33.0123 35.5997 33.0908 35.5335 33.157C35.4673 33.2232 35.3888 33.2757 35.3023 33.3115C35.2158 33.3473 35.1232 33.3657 35.0296 33.3657H29.4496C29.356 33.3657 29.2633 33.3473 29.1769 33.3115C29.0904 33.2757 29.0119 33.2232 28.9457 33.157C28.8795 33.0908 28.827 33.0123 28.7912 32.9258C28.7554 32.8393 28.737 32.7467 28.737 32.6531V29.8031C28.737 29.6141 28.8121 29.4329 28.9457 29.2992C29.0794 29.1656 29.2606 29.0905 29.4496 29.0905ZM30.1623 31.9405H34.317V30.5158H30.1623V31.9405ZM13.3666 29.0905H18.9467C19.0403 29.0905 19.1329 29.1089 19.2194 29.1447C19.3059 29.1805 19.3844 29.233 19.4506 29.2992C19.5168 29.3654 19.5693 29.4439 19.6051 29.5304C19.6409 29.6168 19.6593 29.7095 19.6593 29.8031V32.6531C19.6593 32.7467 19.6409 32.8393 19.6051 32.9258C19.5693 33.0123 19.5168 33.0908 19.4506 33.157C19.3844 33.2232 19.3059 33.2757 19.2194 33.3115C19.1329 33.3473 19.0403 33.3657 18.9467 33.3657H13.3666C13.273 33.3657 13.1803 33.3473 13.0939 33.3115C13.0074 33.2757 12.9289 33.2232 12.8627 33.157C12.7965 33.0908 12.744 33.0123 12.7082 32.9258C12.6724 32.8393 12.654 32.7467 12.654 32.6531V29.8031C12.654 29.7095 12.6724 29.6168 12.7082 29.5304C12.744 29.4439 12.7965 29.3654 12.8627 29.2992C12.9289 29.233 13.0074 29.1805 13.0939 29.1447C13.1803 29.1089 13.273 29.0905 13.3666 29.0905ZM14.0792 31.9405H18.234V30.5158H14.0792V31.9405Z" fill="#D81320"/>
</g>
<defs>
<clipPath id="clip0_121_91">
<rect width="48" height="48" fill="white" transform="matrix(-1 0 0 1 48 0)"/>
</clipPath>
</defs>
</svg>
