<svg width="60" height="60" viewBox="0 0 60 60" fill="none" xmlns="http://www.w3.org/2000/svg">
<g clip-path="url(#clip0_99_2469)">
<path d="M0.278973 58.4716L12.6907 46.36C12.3478 45.5398 12.1717 44.6596 12.1724 43.7707V14.832C12.1724 11.1111 15.1886 8.09496 18.9094 8.09496H29.2081V6.41918C27.9641 6.19523 27.0169 5.10527 27.0169 3.7977V1.7816H25.4149C23.8579 1.7816 22.5957 3.04383 22.5957 4.60078V5.03402C22.5957 5.52187 22.2199 5.94715 21.7324 5.9618C21.6131 5.96547 21.4944 5.94516 21.3831 5.90206C21.2719 5.85897 21.1704 5.79397 21.0848 5.71093C20.9992 5.62789 20.9311 5.52849 20.8846 5.41863C20.8381 5.30878 20.8141 5.1907 20.8141 5.07141V4.60066C20.8141 2.0598 22.874 0 25.4149 0H35.0813C37.6222 0 39.6821 2.05992 39.6821 4.60078V5.03402C39.6821 5.52187 39.3063 5.94715 38.8188 5.9618C38.6995 5.96547 38.5808 5.94516 38.4695 5.90206C38.3583 5.85897 38.2569 5.79397 38.1712 5.71093C38.0856 5.62789 38.0175 5.52849 37.971 5.41863C37.9245 5.30878 37.9005 5.1907 37.9005 5.07141V4.60066C37.9005 3.04371 36.6383 1.78148 35.0813 1.78148H33.4791V3.7977C33.4791 5.20816 32.3776 6.36527 30.9898 6.45586V8.0952H33.1471C33.3834 8.0952 33.6099 8.18904 33.777 8.35609C33.944 8.52313 34.0379 8.7497 34.0379 8.98594C34.0379 9.22218 33.944 9.44874 33.777 9.61579C33.6099 9.78283 33.3834 9.87668 33.1471 9.87668H18.9094C16.1725 9.87668 13.954 12.0954 13.954 14.8321V43.7707C13.954 46.5075 16.1728 48.7261 18.9094 48.7261H23.7455V47.3414C23.7455 45.443 25.2846 43.9041 27.1829 43.9041H33.313C35.2114 43.9041 36.7503 45.4431 36.7503 47.3414V48.7261H41.5865C44.3234 48.7261 46.5419 46.5074 46.5419 43.7707V14.832C46.5419 12.095 44.3232 9.87656 41.5865 9.87656H37.304C37.0678 9.87656 36.8412 9.78272 36.6742 9.61567C36.5071 9.44862 36.4133 9.22206 36.4133 8.98582C36.4133 8.74958 36.5071 8.52302 36.6742 8.35597C36.8412 8.18892 37.0678 8.09508 37.304 8.09508H41.5865C45.3073 8.09508 48.3235 11.1112 48.3235 14.8321V43.7707C48.3241 44.7228 48.1215 45.664 47.7294 46.5315L59.7214 58.2341C59.8896 58.3993 59.9855 58.6245 59.988 58.8602C59.9905 59.096 59.8994 59.3232 59.7347 59.4919C59.5701 59.6607 59.3452 59.7572 59.1094 59.7605C58.8737 59.7637 58.6462 59.6734 58.477 59.5092L46.7628 48.0775C46.3233 48.6043 45.8064 49.0614 45.2299 49.4333L51.8632 58.3395C51.9618 58.4719 52.0216 58.6291 52.0361 58.7936C52.0505 58.9581 52.0189 59.1233 51.9449 59.2709C51.8709 59.4185 51.7573 59.5426 51.6169 59.6294C51.4764 59.7161 51.3146 59.7622 51.1495 59.7623C50.8776 59.7623 50.6092 59.6384 50.4344 59.4035L48.7092 57.087H11.4699L9.56749 59.6411C9.4846 59.7526 9.37675 59.8431 9.25257 59.9054C9.12839 59.9677 8.99134 60.0001 8.85241 59.9999C8.64967 59.9999 8.44506 59.931 8.27584 59.7875C7.9135 59.4804 7.87307 58.9335 8.15678 58.5525L15.0549 49.2909C14.5145 48.9123 14.0323 48.457 13.6232 47.9393L1.52338 59.7466C1.35719 59.9092 1.13385 60.0001 0.901356 59.9999C0.782497 60 0.664818 59.9763 0.55529 59.9302C0.445766 59.884 0.346622 59.8164 0.263737 59.7312C0.181984 59.6475 0.117523 59.5485 0.0740433 59.4399C0.0305595 59.3313 0.00891113 59.2152 0.0103226 59.0982C0.0117378 58.9813 0.0361938 58.8657 0.0822906 58.7582C0.128387 58.6507 0.195221 58.5533 0.278973 58.4716ZM30.8149 4.6807C31.3017 4.68059 31.6976 4.28461 31.6976 3.79781V1.7816H28.7987V3.79781C28.7987 4.28461 29.1946 4.6807 29.6815 4.6807H30.8149ZM34.9689 47.3414C34.9689 46.4283 34.2261 45.6855 33.3131 45.6855H27.183C26.2699 45.6855 25.5271 46.4284 25.5271 47.3414V48.7261H34.9688V47.3414H34.9689ZM12.7966 55.3056H47.3821L43.5837 50.2056C42.9371 50.4063 42.2639 50.5082 41.5869 50.5077H18.9096C18.1427 50.508 17.3815 50.3768 16.659 50.1198L12.7966 55.3056Z" fill="#D81320"/>
<path d="M16.7085 15.9344H25.884C26.2979 13.9041 28.0974 12.3716 30.2481 12.3716C32.3988 12.3716 34.1983 13.904 34.6122 15.9344H43.7871C43.9041 15.9344 44.0199 15.9574 44.128 16.0022C44.2361 16.0469 44.3343 16.1125 44.417 16.1952C44.4997 16.278 44.5653 16.3762 44.6101 16.4842C44.6548 16.5923 44.6779 16.7081 44.6779 16.8251V33.9283C44.6779 34.0453 44.6548 34.1611 44.6101 34.2692C44.5653 34.3773 44.4997 34.4755 44.417 34.5582C44.3343 34.6409 44.2361 34.7065 44.128 34.7513C44.0199 34.796 43.9041 34.819 43.7871 34.819H26.4961C26.2599 34.819 26.0333 34.7252 25.8663 34.5581C25.6992 34.3911 25.6054 34.1645 25.6054 33.9283C25.6054 33.692 25.6992 33.4655 25.8663 33.2984C26.0333 33.1314 26.2599 33.0375 26.4961 33.0375H42.8965V17.716H34.6124C34.1987 19.7465 32.3991 21.2793 30.2482 21.2793C28.0974 21.2793 26.2977 19.7466 25.884 17.716H17.5993V33.0375H22.3392C22.5755 33.0375 22.802 33.1314 22.9691 33.2984C23.1361 33.4655 23.23 33.692 23.23 33.9283C23.23 34.1645 23.1361 34.3911 22.9691 34.5581C22.802 34.7252 22.5755 34.819 22.3392 34.819H16.7086C16.5916 34.819 16.4758 34.796 16.3677 34.7513C16.2596 34.7065 16.1614 34.6409 16.0787 34.5582C15.996 34.4755 15.9304 34.3773 15.8856 34.2692C15.8409 34.1611 15.8178 34.0453 15.8179 33.9283V16.8251H15.8177C15.8177 16.7081 15.8408 16.5923 15.8855 16.4842C15.9303 16.3762 15.9959 16.278 16.0786 16.1952C16.1613 16.1125 16.2595 16.0469 16.3676 16.0022C16.4757 15.9574 16.5915 15.9344 16.7085 15.9344ZM30.2482 19.4976C31.7217 19.4976 32.9204 18.2989 32.9204 16.8254C32.9204 15.3518 31.7217 14.1531 30.2482 14.1531C28.7747 14.1531 27.576 15.3518 27.576 16.8254C27.576 18.2989 28.7747 19.4976 30.2482 19.4976ZM36.8122 36.3631H43.7872C43.9042 36.3631 44.02 36.3861 44.1281 36.4309C44.2362 36.4756 44.3344 36.5412 44.4171 36.6239C44.4998 36.7067 44.5654 36.8049 44.6102 36.9129C44.655 37.021 44.678 37.1369 44.678 37.2538V40.8163C44.678 40.9333 44.655 41.0491 44.6102 41.1572C44.5654 41.2653 44.4998 41.3635 44.4171 41.4462C44.3344 41.5289 44.2362 41.5945 44.1281 41.6393C44.02 41.6841 43.9042 41.7071 43.7872 41.7071H36.8122C36.6953 41.7071 36.5794 41.6841 36.4713 41.6393C36.3633 41.5945 36.2651 41.5289 36.1824 41.4462C36.0996 41.3635 36.034 41.2653 35.9893 41.1572C35.9445 41.0491 35.9215 40.9333 35.9215 40.8163V37.2538C35.9215 37.0176 36.0154 36.7911 36.1824 36.624C36.3495 36.457 36.576 36.3631 36.8122 36.3631ZM37.7031 39.9256H42.8965V38.1447H37.7031V39.9256ZM16.7085 36.3631H23.6836C23.8006 36.3631 23.9164 36.3861 24.0245 36.4309C24.1326 36.4756 24.2308 36.5412 24.3135 36.6239C24.3962 36.7067 24.4618 36.8049 24.5066 36.9129C24.5513 37.021 24.5744 37.1369 24.5743 37.2538V40.8163C24.5744 40.9333 24.5513 41.0491 24.5066 41.1572C24.4618 41.2653 24.3962 41.3635 24.3135 41.4462C24.2308 41.5289 24.1326 41.5945 24.0245 41.6393C23.9164 41.6841 23.8006 41.7071 23.6836 41.7071H16.7085C16.5915 41.7071 16.4757 41.6841 16.3676 41.6393C16.2595 41.5945 16.1613 41.5289 16.0786 41.4462C15.9959 41.3635 15.9303 41.2653 15.8855 41.1572C15.8408 41.0491 15.8177 40.9333 15.8177 40.8163V37.2538C15.8177 37.1369 15.8408 37.021 15.8855 36.9129C15.9303 36.8049 15.9959 36.7067 16.0786 36.6239C16.1613 36.5412 16.2595 36.4756 16.3676 36.4309C16.4757 36.3861 16.5915 36.3631 16.7085 36.3631ZM17.5992 39.9256H22.7927V38.1447H17.5992V39.9256Z" fill="#D81320"/>
</g>
<defs>
<clipPath id="clip0_99_2469">
<rect width="60" height="60" fill="white" transform="matrix(-1 0 0 1 60 0)"/>
</clipPath>
</defs>
</svg>
