<svg width="48" height="48" viewBox="0 0 48 48" fill="none" xmlns="http://www.w3.org/2000/svg">
<g clip-path="url(#clip0_64_48307)">
<path d="M37.8283 10.9407H10.1721V24.7688H37.8283V10.9407ZM23.2314 23.2313H11.7096V12.4782H23.2314V23.2313ZM36.2908 23.2313H24.7689V12.4782H36.2908V23.2313ZM13.2471 30.9094C11.1283 30.9094 9.40332 32.6344 9.40332 34.7532C9.40332 36.8719 11.1283 38.5969 13.2471 38.5969C15.3658 38.5969 17.0908 36.8719 17.0908 34.7532C17.0908 32.6344 15.3658 30.9094 13.2471 30.9094ZM13.2471 37.0594C11.9721 37.0594 10.9408 36.0282 10.9408 34.7532C10.9408 33.4782 11.9721 32.4469 13.2471 32.4469C14.5221 32.4469 15.5533 33.4782 15.5533 34.7532C15.5533 36.0282 14.5127 37.0594 13.2471 37.0594ZM34.7533 30.9094C32.6346 30.9094 30.9096 32.6344 30.9096 34.7532C30.9096 36.8719 32.6346 38.5969 34.7533 38.5969C36.8721 38.5969 38.5971 36.8719 38.5971 34.7532C38.5971 32.6344 36.8721 30.9094 34.7533 30.9094ZM34.7533 37.0594C33.4783 37.0594 32.4471 36.0282 32.4471 34.7532C32.4471 33.4782 33.4783 32.4469 34.7533 32.4469C36.0283 32.4469 37.0596 33.4782 37.0596 34.7532C37.0596 36.0282 36.0283 37.0594 34.7533 37.0594ZM18.6189 37.8282H29.3721V31.6875H18.6189V37.8282ZM20.1564 33.2157H27.8439V36.2907H20.1564V33.2157Z" fill="#ffffff"/>
<path d="M47.0436 24.7688V14.0156H42.4311V12.8156C42.4311 8.82187 39.6842 5.41875 35.7467 4.54688C34.4061 4.24687 33.0467 4.02188 31.6779 3.83438V2.49375C31.6779 1.21875 30.6467 0.1875 29.3717 0.1875H18.6186C17.3436 0.1875 16.3123 1.21875 16.3123 2.49375V3.825C14.9529 4.02187 13.5936 4.24688 12.2436 4.5375C8.30606 5.40938 5.55918 8.8125 5.55918 12.8063V14.0062H0.956055V24.7594H5.56855V31.0594C5.56855 31.6687 5.26855 32.2313 4.7623 32.5687C3.8248 33.1969 3.27168 34.2375 3.27168 35.3625V40.125C3.27168 42.2438 4.99668 43.9688 7.11543 43.9688H7.88418V45.5062C7.88418 46.7812 8.91543 47.8125 10.1904 47.8125H13.2654C14.5404 47.8125 15.5717 46.7812 15.5717 45.5062V43.9688H32.4748V45.5062C32.4748 46.7812 33.5061 47.8125 34.7811 47.8125H37.8561C39.1311 47.8125 40.1623 46.7812 40.1623 45.5062V43.9688H40.9311C43.0498 43.9688 44.7748 42.2438 44.7748 40.125V35.3625C44.7748 34.2375 44.2123 33.1969 43.2842 32.5687C42.7779 32.2313 42.4779 31.6687 42.4779 31.0594V24.7594H47.0436V24.7688ZM42.4311 15.5531H45.5061V23.2313H42.4311V15.5531ZM17.8592 2.49375C17.8592 2.07188 18.2061 1.725 18.6279 1.725H29.3811C29.8029 1.725 30.1498 2.07188 30.1498 2.49375V3.61875C26.0717 3.15937 21.9373 3.15937 17.8592 3.61875V2.49375ZM2.49355 23.2313V15.5531H5.56855V23.2313H2.49355ZM14.0154 45.5062C14.0154 45.9281 13.6686 46.275 13.2467 46.275H10.1717C9.74981 46.275 9.40293 45.9281 9.40293 45.5062V43.9688H14.0154V45.5062ZM38.5967 45.5062C38.5967 45.9281 38.2498 46.275 37.8279 46.275H34.7529C34.3311 46.275 33.9842 45.9281 33.9842 45.5062V43.9688H38.5967V45.5062ZM43.1998 35.3719V40.1344C43.1998 41.4094 42.1686 42.4406 40.8936 42.4406H7.09668C5.82168 42.4406 4.79043 41.4094 4.79043 40.1344V35.3719C4.79043 34.7625 5.09043 34.2 5.59668 33.8625C6.53418 33.2344 7.08731 32.1937 7.08731 31.0687V12.8063C7.08731 9.53438 9.34668 6.75 12.5717 6.0375C16.3123 5.2125 20.1561 4.79062 23.9904 4.79062C27.8248 4.79062 31.6686 5.2125 35.4092 6.0375C38.6342 6.75 40.8936 9.53438 40.8936 12.8063V31.0594C40.8936 32.1844 41.4561 33.225 42.3842 33.8531C42.8998 34.1906 43.1998 34.7625 43.1998 35.3719Z" fill="#ffffff"/>
</g>
<defs>
<clipPath id="clip0_64_48307">
<rect width="48" height="48" fill="white"/>
</clipPath>
</defs>
</svg>
