<svg width="60" height="60" viewBox="0 0 60 60" fill="none" xmlns="http://www.w3.org/2000/svg">
<path d="M47.2852 13.6758H12.7148V30.9609H47.2852V13.6758ZM29.0391 29.0391H14.6367V15.5977H29.0391V29.0391ZM45.3633 29.0391H30.9609V15.5977H45.3633V29.0391ZM16.5586 38.6367C13.9102 38.6367 11.7539 40.793 11.7539 43.4414C11.7539 46.0898 13.9102 48.2461 16.5586 48.2461C19.207 48.2461 21.3633 46.0898 21.3633 43.4414C21.3633 40.793 19.207 38.6367 16.5586 38.6367ZM16.5586 46.3242C14.9648 46.3242 13.6758 45.0352 13.6758 43.4414C13.6758 41.8477 14.9648 40.5586 16.5586 40.5586C18.1523 40.5586 19.4414 41.8477 19.4414 43.4414C19.4414 45.0352 18.1406 46.3242 16.5586 46.3242ZM43.4414 38.6367C40.793 38.6367 38.6367 40.793 38.6367 43.4414C38.6367 46.0898 40.793 48.2461 43.4414 48.2461C46.0898 48.2461 48.2461 46.0898 48.2461 43.4414C48.2461 40.793 46.0898 38.6367 43.4414 38.6367ZM43.4414 46.3242C41.8477 46.3242 40.5586 45.0352 40.5586 43.4414C40.5586 41.8477 41.8477 40.5586 43.4414 40.5586C45.0352 40.5586 46.3242 41.8477 46.3242 43.4414C46.3242 45.0352 45.0352 46.3242 43.4414 46.3242ZM23.2734 47.2852H36.7148V39.6094H23.2734V47.2852ZM25.1953 41.5195H34.8047V45.3633H25.1953V41.5195Z" fill="#FFFFFF"/>
<path d="M58.8047 30.9609V17.5195H53.0391V16.0195C53.0391 11.0273 49.6055 6.77344 44.6836 5.68359C43.0078 5.30859 41.3086 5.02734 39.5977 4.79297V3.11719C39.5977 1.52344 38.3086 0.234375 36.7148 0.234375H23.2734C21.6797 0.234375 20.3906 1.52344 20.3906 3.11719V4.78125C18.6914 5.02734 16.9922 5.30859 15.3047 5.67188C10.3828 6.76172 6.94922 11.0156 6.94922 16.0078V17.5078H1.19531V30.9492H6.96094V38.8242C6.96094 39.5859 6.58594 40.2891 5.95312 40.7109C4.78125 41.4961 4.08984 42.7969 4.08984 44.2031V50.1562C4.08984 52.8047 6.24609 54.9609 8.89453 54.9609H9.85547V56.8828C9.85547 58.4766 11.1445 59.7656 12.7383 59.7656H16.582C18.1758 59.7656 19.4648 58.4766 19.4648 56.8828V54.9609H40.5937V56.8828C40.5937 58.4766 41.8828 59.7656 43.4766 59.7656H47.3203C48.9141 59.7656 50.2031 58.4766 50.2031 56.8828V54.9609H51.1641C53.8125 54.9609 55.9688 52.8047 55.9688 50.1562V44.2031C55.9688 42.7969 55.2656 41.4961 54.1055 40.7109C53.4727 40.2891 53.0977 39.5859 53.0977 38.8242V30.9492H58.8047V30.9609ZM53.0391 19.4414H56.8828V29.0391H53.0391V19.4414ZM22.3242 3.11719C22.3242 2.58984 22.7578 2.15625 23.2852 2.15625H36.7266C37.2539 2.15625 37.6875 2.58984 37.6875 3.11719V4.52344C32.5898 3.94922 27.4219 3.94922 22.3242 4.52344V3.11719ZM3.11719 29.0391V19.4414H6.96094V29.0391H3.11719ZM17.5195 56.8828C17.5195 57.4102 17.0859 57.8438 16.5586 57.8438H12.7148C12.1875 57.8438 11.7539 57.4102 11.7539 56.8828V54.9609H17.5195V56.8828ZM48.2461 56.8828C48.2461 57.4102 47.8125 57.8438 47.2852 57.8438H43.4414C42.9141 57.8438 42.4805 57.4102 42.4805 56.8828V54.9609H48.2461V56.8828ZM54 44.2148V50.168C54 51.7617 52.7109 53.0508 51.1172 53.0508H8.87109C7.27734 53.0508 5.98828 51.7617 5.98828 50.168V44.2148C5.98828 43.4531 6.36328 42.75 6.99609 42.3281C8.16797 41.543 8.85938 40.2422 8.85938 38.8359V16.0078C8.85938 11.918 11.6836 8.4375 15.7148 7.54688C20.3906 6.51562 25.1953 5.98828 29.9883 5.98828C34.7812 5.98828 39.5859 6.51562 44.2617 7.54688C48.293 8.4375 51.1172 11.918 51.1172 16.0078V38.8242C51.1172 40.2305 51.8203 41.5312 52.9805 42.3164C53.625 42.7383 54 43.4531 54 44.2148Z" fill="#FFFFFF"/>
</svg>
