<svg width="80" height="80" viewBox="0 0 80 80" fill="none" xmlns="http://www.w3.org/2000/svg">
<g clip-path="url(#clip0_53_43859)">
<path d="M10 23.3333C10 21.5652 10.7024 19.8695 11.9526 18.6193C13.2029 17.369 14.8986 16.6667 16.6667 16.6667H63.3333C65.1014 16.6667 66.7971 17.369 68.0474 18.6193C69.2976 19.8695 70 21.5652 70 23.3333V56.6667C70 58.4348 69.2976 60.1305 68.0474 61.3807C66.7971 62.6309 65.1014 63.3333 63.3333 63.3333H16.6667C14.8986 63.3333 13.2029 62.6309 11.9526 61.3807C10.7024 60.1305 10 58.4348 10 56.6667V23.3333Z" stroke="#CA1F26" stroke-width="5" stroke-linecap="round" stroke-linejoin="round"/>
<path d="M10 23.3333L40 43.3333L70 23.3333" stroke="#CA1F26" stroke-width="5" stroke-linecap="round" stroke-linejoin="round"/>
</g>
<defs>
<clipPath id="clip0_53_43859">
<rect width="80" height="80" fill="white"/>
</clipPath>
</defs>
</svg>
