<svg width="80" height="80" viewBox="0 0 80 80" fill="none" xmlns="http://www.w3.org/2000/svg">
<g clip-path="url(#clip0_53_43855)">
<path d="M30 36.6667C30 39.3188 31.0536 41.8624 32.9289 43.7377C34.8043 45.6131 37.3478 46.6667 40 46.6667C42.6522 46.6667 45.1957 45.6131 47.0711 43.7377C48.9464 41.8624 50 39.3188 50 36.6667C50 34.0145 48.9464 31.471 47.0711 29.5956C45.1957 27.7202 42.6522 26.6667 40 26.6667C37.3478 26.6667 34.8043 27.7202 32.9289 29.5956C31.0536 31.471 30 34.0145 30 36.6667Z" stroke="#CA1F26" stroke-width="5" stroke-linecap="round" stroke-linejoin="round"/>
<path d="M58.8573 55.5233L44.714 69.6667C43.4639 70.9155 41.7693 71.6169 40.0023 71.6169C38.2354 71.6169 36.5407 70.9155 35.2907 69.6667L21.144 55.5233C17.4147 51.7939 14.8751 47.0423 13.8463 41.8695C12.8175 36.6968 13.3456 31.3351 15.364 26.4624C17.3824 21.5898 20.8003 17.4251 25.1856 14.495C29.5709 11.5649 34.7266 10.001 40.0007 10.001C45.2748 10.001 50.4304 11.5649 54.8157 14.495C59.201 17.4251 62.6189 21.5898 64.6373 26.4624C66.6557 31.3351 67.1839 36.6968 66.155 41.8695C65.1262 47.0423 62.5866 51.7939 58.8573 55.5233Z" stroke="#CA1F26" stroke-width="5" stroke-linecap="round" stroke-linejoin="round"/>
</g>
<defs>
<clipPath id="clip0_53_43855">
<rect width="80" height="80" fill="white"/>
</clipPath>
</defs>
</svg>
