<svg width="20" height="20" viewBox="0 0 20 20" fill="none" xmlns="http://www.w3.org/2000/svg">
<g clip-path="url(#clip0_61_44511)">
<path d="M3.33398 6.66659C3.33398 5.78253 3.68517 4.93468 4.31029 4.30956C4.93542 3.68444 5.78326 3.33325 6.66732 3.33325H13.334C14.218 3.33325 15.0659 3.68444 15.691 4.30956C16.3161 4.93468 16.6673 5.78253 16.6673 6.66659V13.3333C16.6673 14.2173 16.3161 15.0652 15.691 15.6903C15.0659 16.3154 14.218 16.6666 13.334 16.6666H6.66732C5.78326 16.6666 4.93542 16.3154 4.31029 15.6903C3.68517 15.0652 3.33398 14.2173 3.33398 13.3333V6.66659Z" stroke="#444444" stroke-width="2" stroke-linecap="round" stroke-linejoin="round"/>
<path d="M7.5 10C7.5 10.663 7.76339 11.2989 8.23223 11.7678C8.70107 12.2366 9.33696 12.5 10 12.5C10.663 12.5 11.2989 12.2366 11.7678 11.7678C12.2366 11.2989 12.5 10.663 12.5 10C12.5 9.33696 12.2366 8.70107 11.7678 8.23223C11.2989 7.76339 10.663 7.5 10 7.5C9.33696 7.5 8.70107 7.76339 8.23223 8.23223C7.76339 8.70107 7.5 9.33696 7.5 10Z" stroke="#444444" stroke-width="2" stroke-linecap="round" stroke-linejoin="round"/>
<path d="M13.75 6.25V6.25833" stroke="#444444" stroke-width="2" stroke-linecap="round" stroke-linejoin="round"/>
</g>
<defs>
<clipPath id="clip0_61_44511">
<rect width="20" height="20" fill="white"/>
</clipPath>
</defs>
</svg>
