<svg width="20" height="20" viewBox="0 0 20 20" fill="none" xmlns="http://www.w3.org/2000/svg">
<g clip-path="url(#clip0_61_44508)">
<path d="M15.834 6.25C14.7232 3.75 12.7782 2.5 10.0007 2.5C5.83398 2.5 3.33398 4.58333 3.33398 10C3.33398 15.4167 6.25065 17.5 10.0007 17.5C13.7507 17.5 15.834 15 15.834 13.3333C15.834 11.6667 15.0007 9.16667 10.0007 9.16667C7.91732 9.16667 7.50065 10.2083 7.50065 11.25C7.50065 12.5 8.33398 13.3333 9.58398 13.3333C11.6673 13.3333 12.5007 12.0833 12.5007 9.16667C12.5007 6.25 10.834 5.83333 10.0007 5.83333C9.16732 5.83333 8.47315 6.11083 7.91732 6.66667" stroke="#444444" stroke-width="2" stroke-linecap="round" stroke-linejoin="round"/>
</g>
<defs>
<clipPath id="clip0_61_44508">
<rect width="20" height="20" fill="white"/>
</clipPath>
</defs>
</svg>
