<svg width="15" height="18" viewBox="0 0 15 18" fill="none" xmlns="http://www.w3.org/2000/svg">
<path d="M13.8333 5.25C12.7224 2.75 10.7774 1.5 7.99992 1.5C3.83325 1.5 1.33325 3.58333 1.33325 9C1.33325 14.4167 4.24992 16.5 7.99992 16.5C11.7499 16.5 13.8333 14 13.8333 12.3333C13.8333 10.6667 12.9999 8.16667 7.99992 8.16667C5.91659 8.16667 5.49992 9.20833 5.49992 10.25C5.49992 11.5 6.33325 12.3333 7.58325 12.3333C9.66659 12.3333 10.4999 11.0833 10.4999 8.16667C10.4999 5.25 8.83325 4.83333 7.99992 4.83333C7.16659 4.83333 6.47242 5.11083 5.91659 5.66667" stroke="white" stroke-width="2" stroke-linecap="round" stroke-linejoin="round"/>
</svg>
