<svg width="40" height="40" viewBox="0 0 40 40" fill="none" xmlns="http://www.w3.org/2000/svg">
<mask id="path-1-inside-1_220_1063" fill="white">
<path d="M16.4103 0H2.05128C0.920205 0 0 1.10425 0 2.46154V18.4615C0 19.8188 0.920205 20.9231 2.05128 20.9231H10.5503C9.58903 26.5838 5.37508 30.7692 0.512821 30.7692C0.376812 30.7692 0.246374 30.8341 0.150202 30.9495C0.0540291 31.0649 0 31.2214 0 31.3846V39.3846C0 39.5478 0.0540291 39.7043 0.150202 39.8198C0.246374 39.9352 0.376812 40 0.512821 40C10.4097 40 18.4615 30.3378 18.4615 18.4615V2.46154C18.4615 1.10425 17.5413 0 16.4103 0ZM17.4359 18.4615C17.4359 29.4535 10.1209 38.4337 1.02564 38.7601V31.9861C3.57436 31.8478 6.00817 30.6737 7.92749 28.6566C9.95744 26.5231 11.2854 23.589 11.6671 20.3951C11.6776 20.3078 11.6723 20.2188 11.6516 20.1341C11.6309 20.0495 11.5952 19.9712 11.5471 19.9045C11.499 19.8379 11.4394 19.7844 11.3725 19.7478C11.3057 19.7112 11.233 19.6923 11.1595 19.6923H2.05128C1.48574 19.6923 1.02564 19.1402 1.02564 18.4615V2.46154C1.02564 1.78289 1.48574 1.23077 2.05128 1.23077H16.4103C16.9758 1.23077 17.4359 1.78289 17.4359 2.46154V18.4615ZM37.9487 0H23.5897C22.4587 0 21.5385 1.10425 21.5385 2.46154V18.4615C21.5385 19.8188 22.4587 20.9231 23.5897 20.9231H32.0891C31.1279 26.5838 26.9138 30.7692 22.0513 30.7692C21.9153 30.7692 21.7848 30.8341 21.6887 30.9495C21.5925 31.0649 21.5385 31.2214 21.5385 31.3846V39.3846C21.5385 39.5478 21.5925 39.7043 21.6887 39.8198C21.7848 39.9352 21.9153 40 22.0513 40C31.9482 40 40 30.3378 40 18.4615V2.46154C40 1.10425 39.0799 0 37.9487 0ZM38.9744 18.4615C38.9744 29.4535 31.6594 38.4337 22.5641 38.7601V31.9861C25.1129 31.8478 27.5468 30.6737 29.4662 28.6566C31.4962 26.5231 32.8243 23.589 33.2059 20.3951C33.2164 20.3078 33.2111 20.2188 33.1903 20.1342C33.1696 20.0496 33.134 19.9713 33.0858 19.9046C33.0377 19.838 32.9782 19.7845 32.9113 19.7479C32.8445 19.7113 32.7719 19.6923 32.6984 19.6923H23.5897C23.0242 19.6923 22.5641 19.1402 22.5641 18.4615V2.46154C22.5641 1.78289 23.0242 1.23077 23.5897 1.23077H37.9487C38.5143 1.23077 38.9744 1.78289 38.9744 2.46154V18.4615Z"/>
</mask>
<path d="M10.5503 20.9231L11.5361 21.0905L11.7344 19.9231H10.5503V20.9231ZM1.02564 38.7601H0.025641V39.7967L1.0615 39.7595L1.02564 38.7601ZM1.02564 31.9861L0.971458 30.9876L0.025641 31.0389V31.9861H1.02564ZM7.92749 28.6566L8.65194 29.3459L8.65196 29.3459L7.92749 28.6566ZM11.6671 20.3951L10.6742 20.2758L10.6741 20.2764L11.6671 20.3951ZM11.1595 19.6923V20.6923L11.1602 20.6923L11.1595 19.6923ZM32.0891 20.9231L33.075 21.0905L33.2733 19.9231H32.0891V20.9231ZM22.5641 38.7601H21.5641V39.7967L22.6 39.7595L22.5641 38.7601ZM22.5641 31.9861L22.5099 30.9876L21.5641 31.0389V31.9861H22.5641ZM29.4662 28.6566L30.1906 29.346L30.1906 29.3459L29.4662 28.6566ZM33.2059 20.3951L32.213 20.2764L32.213 20.2764L33.2059 20.3951ZM32.6984 19.6923L32.6984 18.6923H32.6984V19.6923ZM16.4103 -1H2.05128V1H16.4103V-1ZM2.05128 -1C0.204948 -1 -1 0.730421 -1 2.46154H1C1 1.47807 1.63546 1 2.05128 1V-1ZM-1 2.46154V18.4615H1V2.46154H-1ZM-1 18.4615C-1 20.1927 0.204948 21.9231 2.05128 21.9231V19.9231C1.63546 19.9231 1 19.445 1 18.4615H-1ZM2.05128 21.9231H10.5503V19.9231H2.05128V21.9231ZM9.56437 20.7557C8.6615 26.0727 4.76033 29.7692 0.512821 29.7692V31.7692C5.98983 31.7692 10.5166 27.0948 11.5361 21.0905L9.56437 20.7557ZM0.512821 29.7692C0.0466315 29.7692 -0.354325 29.9929 -0.61802 30.3093L0.918423 31.5897C0.847073 31.6753 0.706993 31.7692 0.512821 31.7692V29.7692ZM-0.61802 30.3093C-0.877285 30.6204 -1 31.0092 -1 31.3846H1C1 31.4336 0.985343 31.5094 0.918423 31.5897L-0.61802 30.3093ZM-1 31.3846V39.3846H1V31.3846H-1ZM-1 39.3846C-1 39.7601 -0.877285 40.1488 -0.61802 40.4599L0.918423 39.1796C0.985343 39.2599 1 39.3356 1 39.3846H-1ZM-0.61802 40.4599C-0.354325 40.7764 0.0466315 41 0.512821 41V39C0.706993 39 0.847073 39.094 0.918423 39.1796L-0.61802 40.4599ZM0.512821 41C11.125 41 19.4615 30.7117 19.4615 18.4615H17.4615C17.4615 29.964 9.69449 39 0.512821 39V41ZM19.4615 18.4615V2.46154H17.4615V18.4615H19.4615ZM19.4615 2.46154C19.4615 0.730421 18.2566 -1 16.4103 -1V1C16.8261 1 17.4615 1.47807 17.4615 2.46154H19.4615ZM16.4359 18.4615C16.4359 29.0824 9.39437 37.4592 0.989777 37.7608L1.0615 39.7595C10.8475 39.4083 18.4359 29.8247 18.4359 18.4615H16.4359ZM2.02564 38.7601V31.9861H0.025641V38.7601H2.02564ZM1.07982 32.9846C3.9074 32.8312 6.57423 31.5295 8.65194 29.3459L7.20304 27.9673C5.44211 29.8179 3.24133 30.8644 0.971458 30.9876L1.07982 32.9846ZM8.65196 29.3459C10.8445 27.0415 12.2553 23.901 12.66 20.5137L10.6741 20.2764C10.3156 23.2771 9.07037 26.0047 7.20301 27.9673L8.65196 29.3459ZM12.6599 20.5144C12.6846 20.3089 12.6725 20.099 12.6229 19.8966L10.6802 20.3717C10.6721 20.3386 10.6705 20.3066 10.6742 20.2758L12.6599 20.5144ZM12.6229 19.8966C12.5735 19.6942 12.4858 19.4963 12.3578 19.319L10.7364 20.49C10.7046 20.446 10.6883 20.4047 10.6802 20.3717L12.6229 19.8966ZM12.3578 19.319C12.2295 19.1414 12.0601 18.9842 11.8528 18.8706L10.8923 20.6249C10.8187 20.5846 10.7684 20.5343 10.7364 20.49L12.3578 19.319ZM11.8528 18.8706C11.6441 18.7564 11.4067 18.6921 11.1587 18.6923L11.1602 20.6923C11.0593 20.6924 10.9672 20.6659 10.8923 20.6249L11.8528 18.8706ZM11.1595 18.6923H2.05128V20.6923H11.1595V18.6923ZM2.05128 18.6923C2.11125 18.6923 2.12186 18.7239 2.09461 18.6912C2.0658 18.6567 2.02564 18.5783 2.02564 18.4615H0.025641C0.025641 19.514 0.770487 20.6923 2.05128 20.6923V18.6923ZM2.02564 18.4615V2.46154H0.025641V18.4615H2.02564ZM2.02564 2.46154C2.02564 2.34474 2.0658 2.26642 2.09461 2.23185C2.12186 2.19914 2.11125 2.23077 2.05128 2.23077V0.230769C0.770487 0.230769 0.025641 1.40907 0.025641 2.46154H2.02564ZM2.05128 2.23077H16.4103V0.230769H2.05128V2.23077ZM16.4103 2.23077C16.3503 2.23077 16.3397 2.19914 16.3669 2.23185C16.3957 2.26642 16.4359 2.34474 16.4359 2.46154H18.4359C18.4359 1.40907 17.6911 0.230769 16.4103 0.230769V2.23077ZM16.4359 2.46154V18.4615H18.4359V2.46154H16.4359ZM37.9487 -1H23.5897V1H37.9487V-1ZM23.5897 -1C21.7434 -1 20.5385 0.730421 20.5385 2.46154H22.5385C22.5385 1.47807 23.1739 1 23.5897 1V-1ZM20.5385 2.46154V18.4615H22.5385V2.46154H20.5385ZM20.5385 18.4615C20.5385 20.1927 21.7434 21.9231 23.5897 21.9231V19.9231C23.1739 19.9231 22.5385 19.445 22.5385 18.4615H20.5385ZM23.5897 21.9231H32.0891V19.9231H23.5897V21.9231ZM31.1032 20.7557C30.2004 26.0726 26.2991 29.7692 22.0513 29.7692V31.7692C27.5286 31.7692 32.0554 27.0949 33.075 21.0905L31.1032 20.7557ZM22.0513 29.7692C21.5851 29.7692 21.1841 29.9929 20.9204 30.3093L22.4569 31.5897C22.3855 31.6753 22.2455 31.7692 22.0513 31.7692V29.7692ZM20.9204 30.3093C20.6612 30.6204 20.5385 31.0092 20.5385 31.3846H22.5385C22.5385 31.4336 22.5238 31.5094 22.4569 31.5897L20.9204 30.3093ZM20.5385 31.3846V39.3846H22.5385V31.3846H20.5385ZM20.5385 39.3846C20.5385 39.7601 20.6612 40.1488 20.9204 40.4599L22.4569 39.1796C22.5238 39.2599 22.5385 39.3356 22.5385 39.3846H20.5385ZM20.9204 40.4599C21.1841 40.7764 21.5851 41 22.0513 41V39C22.2455 39 22.3855 39.094 22.4569 39.1796L20.9204 40.4599ZM22.0513 41C32.6635 41 41 30.7117 41 18.4615H39C39 29.964 31.2329 39 22.0513 39V41ZM41 18.4615V2.46154H39V18.4615H41ZM41 2.46154C41 0.730456 39.7952 -1 37.9487 -1V1C38.3646 1 39 1.47804 39 2.46154H41ZM37.9744 18.4615C37.9744 29.0824 30.9328 37.4592 22.5282 37.7608L22.6 39.7595C32.3859 39.4083 39.9744 29.8247 39.9744 18.4615H37.9744ZM23.5641 38.7601V31.9861H21.5641V38.7601H23.5641ZM22.6183 32.9846C25.4459 32.8312 28.1128 31.5295 30.1906 29.346L28.7417 27.9673C26.9807 29.818 24.7799 30.8644 22.5099 30.9876L22.6183 32.9846ZM30.1906 29.3459C32.3833 27.0415 33.7941 23.901 34.1989 20.5137L32.213 20.2764C31.8545 23.2771 30.6092 26.0046 28.7417 27.9673L30.1906 29.3459ZM34.1989 20.5138C34.2234 20.3084 34.2112 20.0986 34.1616 19.8963L32.219 20.372C32.2109 20.339 32.2093 20.3071 32.213 20.2764L34.1989 20.5138ZM34.1616 19.8963C34.1121 19.6941 34.0245 19.4964 33.8965 19.3191L32.2752 20.4902C32.2434 20.4462 32.2271 20.405 32.219 20.372L34.1616 19.8963ZM33.8965 19.3191C33.7683 19.1416 33.5991 18.9845 33.3919 18.8709L32.4308 20.6249C32.3573 20.5846 32.3071 20.5344 32.2752 20.4902L33.8965 19.3191ZM33.3919 18.8709C33.1835 18.7567 32.9463 18.6923 32.6984 18.6923L32.6983 20.6923C32.5974 20.6923 32.5055 20.6658 32.4308 20.6249L33.3919 18.8709ZM32.6984 18.6923H23.5897V20.6923H32.6984V18.6923ZM23.5897 18.6923C23.6497 18.6923 23.6603 18.7239 23.6331 18.6912C23.6043 18.6567 23.5641 18.5783 23.5641 18.4615H21.5641C21.5641 19.514 22.3089 20.6923 23.5897 20.6923V18.6923ZM23.5641 18.4615V2.46154H21.5641V18.4615H23.5641ZM23.5641 2.46154C23.5641 2.34474 23.6043 2.26642 23.6331 2.23185C23.6603 2.19914 23.6497 2.23077 23.5897 2.23077V0.230769C22.3089 0.230769 21.5641 1.40907 21.5641 2.46154H23.5641ZM23.5897 2.23077H37.9487V0.230769H23.5897V2.23077ZM37.9487 2.23077C37.8887 2.23077 37.8781 2.19914 37.9054 2.23185C37.9342 2.26642 37.9744 2.34474 37.9744 2.46154H39.9744C39.9744 1.40907 39.2295 0.230769 37.9487 0.230769V2.23077ZM37.9744 2.46154V18.4615H39.9744V2.46154H37.9744Z" fill="white" mask="url(#path-1-inside-1_220_1063)"/>
</svg>
