<svg width="40" height="40" viewBox="0 0 40 40" fill="none" xmlns="http://www.w3.org/2000/svg">
<mask id="path-1-inside-1_220_1064" fill="white">
<path d="M23.5897 40H37.9487C39.0798 40 40 38.8958 40 37.5385V21.5385C40 20.1812 39.0798 19.0769 37.9487 19.0769H29.4497C30.411 13.4162 34.6249 9.23077 39.4872 9.23077C39.6232 9.23077 39.7536 9.16593 39.8498 9.05053C39.946 8.93512 40 8.77859 40 8.61539V0.615383C40 0.452175 39.946 0.29565 39.8498 0.180244C39.7536 0.0648346 39.6232 0 39.4872 0C29.5903 0 21.5385 9.66215 21.5385 21.5385L21.5385 37.5385C21.5385 38.8958 22.4587 40 23.5897 40ZM22.5641 21.5385C22.5641 10.5465 29.8791 1.56628 38.9744 1.23988V8.01391C36.4256 8.15221 33.9918 9.32628 32.0725 11.3434C30.0426 13.4769 28.7146 16.411 28.3329 19.6049C28.3224 19.6922 28.3277 19.7812 28.3484 19.8659C28.3691 19.9505 28.4048 20.0288 28.4529 20.0955C28.501 20.1621 28.5606 20.2156 28.6275 20.2522C28.6943 20.2888 28.767 20.3077 28.8405 20.3077H37.9487C38.5143 20.3077 38.9744 20.8598 38.9744 21.5385V37.5385C38.9744 38.2171 38.5143 38.7692 37.9487 38.7692H23.5897C23.0242 38.7692 22.5641 38.2171 22.5641 37.5385L22.5641 21.5385ZM2.05128 40L16.4103 40C17.5413 40 18.4615 38.8958 18.4615 37.5385L18.4615 21.5385C18.4615 20.1812 17.5413 19.0769 16.4103 19.0769H7.91087C8.8721 13.4162 13.0862 9.23077 17.9487 9.23077C18.0847 9.23077 18.2152 9.16593 18.3113 9.05053C18.4075 8.93512 18.4615 8.77859 18.4615 8.61539V0.615383C18.4615 0.452175 18.4075 0.29565 18.3113 0.180244C18.2152 0.0648346 18.0847 0 17.9487 0C8.05179 0 0 9.66215 0 21.5385V37.5385C0 38.8958 0.920101 40 2.05128 40ZM1.02564 21.5385C1.02564 10.5465 8.34061 1.56628 17.4359 1.23988V8.01391C14.8871 8.15218 12.4532 9.32626 10.5338 11.3434C8.50379 13.4769 7.17569 16.411 6.79405 19.6049C6.78362 19.6922 6.78894 19.7812 6.80966 19.8658C6.83038 19.9504 6.86602 20.0287 6.91415 20.0954C6.96229 20.162 7.0218 20.2155 7.08865 20.2521C7.15551 20.2887 7.22815 20.3077 7.30164 20.3077H16.4103C16.9758 20.3077 17.4359 20.8598 17.4359 21.5385L17.4359 37.5385C17.4359 38.2171 16.9758 38.7692 16.4103 38.7692L2.05128 38.7692C1.48574 38.7692 1.02564 38.2171 1.02564 37.5385V21.5385Z"/>
</mask>
<path d="M29.4497 19.0769L28.4639 18.9095L28.2656 20.0769H29.4497V19.0769ZM38.9744 1.23988H39.9744V0.203346L38.9385 0.24052L38.9744 1.23988ZM38.9744 8.01391L39.0285 9.01244L39.9744 8.96112V8.01391H38.9744ZM32.0725 11.3434L31.3481 10.6541L31.348 10.6541L32.0725 11.3434ZM28.3329 19.6049L29.3258 19.7242L29.3259 19.7236L28.3329 19.6049ZM28.8405 20.3077V19.3077L28.8398 19.3077L28.8405 20.3077ZM7.91087 19.0769L6.92498 18.9095L6.72675 20.0769H7.91087V19.0769ZM17.4359 1.23988H18.4359V0.203346L17.4 0.24052L17.4359 1.23988ZM17.4359 8.01391L17.4901 9.01244L18.4359 8.96113V8.01391H17.4359ZM10.5338 11.3434L9.8094 10.654L9.80939 10.6541L10.5338 11.3434ZM6.79405 19.6049L7.78698 19.7236L7.78699 19.7236L6.79405 19.6049ZM7.30164 20.3077L7.30156 21.3077H7.30164V20.3077ZM23.5897 41H37.9487V39H23.5897V41ZM37.9487 41C39.7951 41 41 39.2696 41 37.5385H39C39 38.5219 38.3645 39 37.9487 39V41ZM41 37.5385V21.5385H39V37.5385H41ZM41 21.5385C41 19.8073 39.7951 18.0769 37.9487 18.0769V20.0769C38.3645 20.0769 39 20.555 39 21.5385H41ZM37.9487 18.0769H29.4497L29.4497 20.0769H37.9487V18.0769ZM30.4356 19.2443C31.3385 13.9273 35.2397 10.2308 39.4872 10.2308V8.23077C34.0102 8.23077 29.4834 12.9052 28.4639 18.9095L30.4356 19.2443ZM39.4872 10.2308C39.9534 10.2308 40.3543 10.0071 40.618 9.69071L39.0816 8.41034C39.1529 8.32472 39.293 8.23077 39.4872 8.23077V10.2308ZM40.618 9.69071C40.8773 9.37959 41 8.99083 41 8.61539H39C39 8.56636 39.0147 8.49065 39.0816 8.41034L40.618 9.69071ZM41 8.61539V0.615383H39V8.61539H41ZM41 0.615383C41 0.239941 40.8773 -0.148823 40.618 -0.459942L39.0816 0.820427C39.0147 0.740124 39 0.66441 39 0.615383H41ZM40.618 -0.459942C40.3543 -0.776375 39.9534 -1 39.4872 -1V1C39.293 1 39.1529 0.906048 39.0816 0.820427L40.618 -0.459942ZM39.4872 -1C28.875 -1 20.5385 9.28833 20.5385 21.5385H22.5385C22.5385 10.036 30.3055 1 39.4872 1V-1ZM20.5385 21.5385L20.5385 37.5385H22.5385L22.5385 21.5385H20.5385ZM20.5385 37.5385C20.5385 39.2696 21.7434 41 23.5897 41V39C23.1739 39 22.5385 38.5219 22.5385 37.5385H20.5385ZM23.5641 21.5385C23.5641 10.9176 30.6056 2.54085 39.0102 2.23923L38.9385 0.24052C29.1525 0.591709 21.5641 10.1753 21.5641 21.5385H23.5641ZM37.9744 1.23988V8.01391H39.9744V1.23988H37.9744ZM38.9202 7.01538C36.0926 7.16881 33.4258 8.4705 31.3481 10.6541L32.797 12.0327C34.5579 10.1821 36.7587 9.13561 39.0285 9.01244L38.9202 7.01538ZM31.348 10.6541C29.1555 12.9585 27.7447 16.099 27.34 19.4863L29.3259 19.7236C29.6844 16.7229 30.9296 13.9953 32.797 12.0327L31.348 10.6541ZM27.3401 19.4856C27.3154 19.6911 27.3275 19.901 27.3771 20.1034L29.3198 19.6283C29.3279 19.6614 29.3295 19.6934 29.3258 19.7242L27.3401 19.4856ZM27.3771 20.1034C27.4265 20.3058 27.5142 20.5037 27.6422 20.681L29.2636 19.51C29.2954 19.554 29.3117 19.5953 29.3198 19.6283L27.3771 20.1034ZM27.6422 20.681C27.7705 20.8586 27.9399 21.0158 28.1472 21.1294L29.1077 19.3751C29.1813 19.4154 29.2316 19.4657 29.2636 19.51L27.6422 20.681ZM28.1472 21.1294C28.3559 21.2436 28.5933 21.3079 28.8413 21.3077L28.8398 19.3077C28.9407 19.3076 29.0328 19.3341 29.1077 19.3751L28.1472 21.1294ZM28.8405 21.3077H37.9487V19.3077H28.8405V21.3077ZM37.9487 21.3077C37.8887 21.3077 37.8781 21.2761 37.9054 21.3088C37.9342 21.3433 37.9744 21.4217 37.9744 21.5385H39.9744C39.9744 20.486 39.2295 19.3077 37.9487 19.3077V21.3077ZM37.9744 21.5385V37.5385H39.9744V21.5385H37.9744ZM37.9744 37.5385C37.9744 37.6553 37.9342 37.7336 37.9054 37.7682C37.8781 37.8009 37.8887 37.7692 37.9487 37.7692V39.7692C39.2295 39.7692 39.9744 38.5909 39.9744 37.5385H37.9744ZM37.9487 37.7692H23.5897V39.7692H37.9487V37.7692ZM23.5897 37.7692C23.6497 37.7692 23.6603 37.8009 23.6331 37.7682C23.6043 37.7336 23.5641 37.6553 23.5641 37.5385H21.5641C21.5641 38.5909 22.3089 39.7692 23.5897 39.7692V37.7692ZM23.5641 37.5385L23.5641 21.5385H21.5641L21.5641 37.5385H23.5641ZM2.05128 41L16.4103 41V39L2.05128 39V41ZM16.4103 41C18.2566 41 19.4615 39.2696 19.4615 37.5385H17.4615C17.4615 38.5219 16.8261 39 16.4103 39V41ZM19.4615 37.5385L19.4615 21.5385H17.4615L17.4615 37.5385H19.4615ZM19.4615 21.5385C19.4615 19.8073 18.2566 18.0769 16.4103 18.0769V20.0769C16.8261 20.0769 17.4615 20.555 17.4615 21.5385H19.4615ZM16.4103 18.0769H7.91087V20.0769H16.4103V18.0769ZM8.89676 19.2443C9.79963 13.9274 13.7009 10.2308 17.9487 10.2308V8.23077C12.4714 8.23077 7.94458 12.9051 6.92498 18.9095L8.89676 19.2443ZM17.9487 10.2308C18.4149 10.2308 18.8159 10.0071 19.0796 9.69071L17.5431 8.41034C17.6145 8.32472 17.7545 8.23077 17.9487 8.23077V10.2308ZM19.0796 9.69071C19.3388 9.37959 19.4615 8.99083 19.4615 8.61539H17.4615C17.4615 8.56636 17.4762 8.49064 17.5431 8.41034L19.0796 9.69071ZM19.4615 8.61539V0.615383H17.4615V8.61539H19.4615ZM19.4615 0.615383C19.4615 0.239937 19.3388 -0.148827 19.0796 -0.459942L17.5431 0.820427C17.4762 0.740128 17.4615 0.664413 17.4615 0.615383H19.4615ZM19.0796 -0.459942C18.8159 -0.776371 18.4149 -1 17.9487 -1V1C17.7545 1 17.6145 0.906044 17.5431 0.820427L19.0796 -0.459942ZM17.9487 -1C7.33654 -1 -1 9.28833 -1 21.5385H1C1 10.036 8.76705 1 17.9487 1V-1ZM-1 21.5385V37.5385H1V21.5385H-1ZM-1 37.5385C-1 39.2695 0.204815 41 2.05128 41V39C1.63539 39 1 38.522 1 37.5385H-1ZM2.02564 21.5385C2.02564 10.9176 9.06717 2.54085 17.4718 2.23923L17.4 0.24052C7.61406 0.591709 0.0256424 10.1753 0.0256424 21.5385H2.02564ZM16.4359 1.23988V8.01391H18.4359V1.23988H16.4359ZM17.3817 7.01538C14.5541 7.16878 11.8872 8.47047 9.8094 10.654L11.2583 12.0327C13.0193 10.182 15.2201 9.13559 17.4901 9.01244L17.3817 7.01538ZM9.80939 10.6541C7.61674 12.9585 6.20585 16.099 5.80111 19.4863L7.78699 19.7236C8.14553 16.7229 9.39085 13.9954 11.2583 12.0327L9.80939 10.6541ZM5.80112 19.4862C5.77657 19.6916 5.78882 19.9014 5.83836 20.1037L7.78096 19.628C7.78906 19.661 7.79066 19.6929 7.78698 19.7236L5.80112 19.4862ZM5.83836 20.1037C5.88787 20.3059 5.97548 20.5036 6.10349 20.6809L7.72481 19.5098C7.75656 19.5538 7.77289 19.595 7.78096 19.628L5.83836 20.1037ZM6.10349 20.6809C6.2317 20.8584 6.4009 21.0155 6.6081 21.1291L7.56921 19.3751C7.6427 19.4154 7.69288 19.4656 7.72481 19.5098L6.10349 20.6809ZM6.6081 21.1291C6.81654 21.2433 7.05373 21.3077 7.30156 21.3077L7.30172 19.3077C7.40256 19.3077 7.49448 19.3342 7.56921 19.3751L6.6081 21.1291ZM7.30164 21.3077H16.4103V19.3077H7.30164V21.3077ZM16.4103 21.3077C16.3503 21.3077 16.3397 21.2761 16.3669 21.3088C16.3957 21.3433 16.4359 21.4217 16.4359 21.5385H18.4359C18.4359 20.486 17.6911 19.3077 16.4103 19.3077V21.3077ZM16.4359 21.5385L16.4359 37.5385H18.4359L18.4359 21.5385H16.4359ZM16.4359 37.5385C16.4359 37.6553 16.3957 37.7336 16.3669 37.7682C16.3397 37.8009 16.3503 37.7692 16.4103 37.7692V39.7692C17.6911 39.7692 18.4359 38.5909 18.4359 37.5385H16.4359ZM16.4103 37.7692L2.05128 37.7692V39.7692L16.4103 39.7692V37.7692ZM2.05128 37.7692C2.11125 37.7692 2.12186 37.8009 2.0946 37.7682C2.0658 37.7336 2.02564 37.6553 2.02564 37.5385H0.0256424C0.0256424 38.5909 0.770485 39.7692 2.05128 39.7692V37.7692ZM2.02564 37.5385V21.5385H0.0256424V37.5385H2.02564Z" fill="white" mask="url(#path-1-inside-1_220_1064)"/>
</svg>
