<svg width="12" height="12" viewBox="0 0 12 12" fill="none" xmlns="http://www.w3.org/2000/svg">
<path d="M0.166643 5.99687C0.165681 5.83135 0.214032 5.66929 0.305533 5.53136C0.397034 5.39343 0.527538 5.28587 0.680408 5.2224C0.833278 5.15892 1.00159 5.14241 1.16388 5.17497C1.32617 5.20753 1.47508 5.28768 1.59164 5.4052L5.99998 9.82187L10.4083 5.4052C10.5677 5.26868 10.7728 5.19734 10.9825 5.20545C11.1923 5.21355 11.3912 5.30049 11.5396 5.4489C11.688 5.59731 11.775 5.79626 11.7831 6.00599C11.7912 6.21572 11.7198 6.42079 11.5833 6.5802L6.58331 11.5802C6.42718 11.7354 6.21597 11.8225 5.99581 11.8225C5.77566 11.8225 5.56445 11.7354 5.40831 11.5802L0.408311 6.5802C0.254357 6.42499 0.167563 6.21549 0.166643 5.99687Z" fill="#D81320"/>
<path d="M0.166837 0.996871C0.165874 0.831351 0.214226 0.669293 0.305727 0.53136C0.397227 0.393427 0.527732 0.285868 0.680602 0.222395C0.833471 0.158923 1.00178 0.142414 1.16407 0.174972C1.32636 0.20753 1.47528 0.28768 1.59184 0.405205L6.00017 4.82187L10.4085 0.405205C10.5654 0.248285 10.7783 0.160128 11.0002 0.160128C11.2221 0.160128 11.4349 0.248285 11.5918 0.405205C11.7488 0.562124 11.8369 0.774953 11.8369 0.996871C11.8369 1.21879 11.7488 1.43162 11.5918 1.58854L6.59184 6.58854C6.4357 6.74375 6.22449 6.83086 6.00434 6.83086C5.78418 6.83086 5.57297 6.74375 5.41684 6.58854L0.416836 1.58854C0.338096 1.51136 0.275455 1.41932 0.232542 1.31776C0.189628 1.2162 0.167295 1.10713 0.166837 0.996871Z" fill="#D81320"/>
</svg>
